<?xml version="1.0" encoding="UTF-8"?>
<svg xmlns="http://www.w3.org/2000/svg" width="127" height="51" viewBox="0 0 127 51" fill="none">
  <path d="M16.466 12.6529L19.3781 9.33755L23.2335 12.9446L20.507 15.664C21.8465 17.2695 22.5778 19.2933 22.5731 21.382C22.5731 27.0968 17.8749 30.8952 12.0979 30.8952C10.8637 30.9076 9.6329 30.7653 8.43427 30.4717C6.41219 32.1592 6.23292 34.2199 9.32423 34.2199C11.4878 34.2199 12.8967 33.3292 16.0446 33.3292C28.023 33.3292 27.9318 50.0125 12.0979 50.0125C0.2107 50.0125 -2.23277 42.328 1.80825 37.0334C0.116365 34.4081 0.820792 30.3776 3.9687 27.9374C2.41833 26.297 1.57239 24.0481 1.57239 21.3788C1.57239 15.6609 6.31784 11.8186 12.0979 11.8186C13.5953 11.8013 15.0809 12.0851 16.466 12.6529ZM6.17632 39.6901C4.91841 42.0802 6.45935 44.4232 12.0979 44.4232C20.3655 44.4232 20.1296 38.7052 15.8087 38.7052C13.2709 38.7052 10.7362 39.7842 7.39963 39.7842C6.99031 39.7781 6.58175 39.7466 6.17632 39.6901ZM12.0979 25.4909C14.6798 25.4909 16.3717 24.0386 16.3717 21.3694C16.3717 18.65 14.6798 17.1037 12.0979 17.1037C9.46575 17.1037 7.77386 18.6971 7.77386 21.3694C7.77386 24.0418 9.60726 25.4909 12.0979 25.4909Z" fill="#282057"></path>
  <path d="M24.3845 23.6654C24.3845 16.8684 29.6457 11.7621 36.3629 11.7621C43.0802 11.7621 48.3445 16.8653 48.3445 23.6654C48.3445 30.4655 43.0833 35.5655 36.3629 35.5655C29.6426 35.5655 24.3845 30.4592 24.3845 23.6654ZM41.9072 23.6654C41.9072 20.1963 39.7058 17.6181 36.3629 17.6181C33.0201 17.6181 30.7715 20.1963 30.7715 23.6654C30.7715 27.1344 33.0735 29.7566 36.3629 29.7566C39.6995 29.7566 41.9072 27.1783 41.9072 23.6654Z" fill="#282057"></path>
  <path d="M50.2031 23.6654C50.2031 16.8684 55.4674 11.7621 62.1846 11.7621C68.9019 11.7621 74.1662 16.8684 74.1662 23.6811C74.1662 30.4937 68.9019 35.5812 62.1846 35.5812C55.4674 35.5812 50.2031 30.4592 50.2031 23.6654ZM67.7289 23.6654C67.7289 20.1963 65.5275 17.6181 62.1846 17.6181C58.8418 17.6181 56.5932 20.1963 56.5932 23.6654C56.5932 27.1344 58.8952 29.7566 62.1815 29.7566C65.4678 29.7566 67.7289 27.1783 67.7289 23.6654Z" fill="#282057"></path>
  <path d="M93.0191 35.1452V32.1467C91.1888 34.3015 88.7453 35.6126 86.066 35.6126C79.6318 35.6126 76.1537 29.8037 76.1537 23.6183C76.1537 17.5271 79.7702 11.7621 86.1132 11.7621C87.3607 11.7473 88.5977 11.9904 89.7463 12.4763C90.8948 12.9622 91.93 13.6802 92.7864 14.585V0H99.3621V35.1452H93.0191ZM92.8807 23.6654C92.8807 20.1493 90.8586 17.6181 87.805 17.6181C84.3773 17.6181 82.6854 20.3375 82.6854 23.7124C82.6854 27.0372 84.4213 29.8037 87.805 29.8037C90.7989 29.8037 92.8807 26.8051 92.8807 23.6654Z" fill="#282057"></path>
  <path d="M114.765 23.6529C121.299 23.6529 126.596 18.3699 126.596 11.8531C126.596 5.33628 121.299 0.0533447 114.765 0.0533447C108.231 0.0533447 102.935 5.33628 102.935 11.8531C102.935 18.3699 108.231 23.6529 114.765 23.6529Z" fill="white"></path>
  <path d="M113.969 8.74786V14.861H112.212V14.4501C112.214 14.3073 112.227 14.1647 112.249 14.0236C112.05 14.3327 111.774 14.5858 111.449 14.7588C111.124 14.9317 110.759 15.0187 110.391 15.0116C110.088 15.0189 109.788 14.9588 109.511 14.8356C109.235 14.7124 108.99 14.5293 108.793 14.2996C108.353 13.759 108.129 13.0753 108.164 12.38V8.74786H109.938V12.2796C109.915 12.6223 110.028 12.9603 110.252 13.2206C110.355 13.3302 110.479 13.417 110.617 13.4754C110.755 13.5338 110.904 13.5624 111.054 13.5594C111.343 13.5602 111.621 13.4476 111.828 13.2457C111.948 13.1254 112.042 12.9824 112.106 12.8251C112.17 12.6678 112.201 12.4994 112.199 12.3298V8.74786H113.969Z" fill="#4595D1"></path>
  <path d="M117.023 17.9945H115.328V8.74786H117.086V9.37517C117.313 9.13117 117.59 8.93816 117.898 8.80892C118.206 8.67969 118.538 8.61718 118.872 8.62553C119.248 8.61343 119.621 8.69278 119.959 8.85673C120.297 9.02068 120.59 9.26429 120.812 9.5665C121.299 10.2074 121.553 10.9932 121.536 11.7966C121.553 12.6028 121.303 13.3922 120.825 14.0424C120.604 14.3462 120.311 14.591 119.973 14.7551C119.635 14.9193 119.261 14.9976 118.885 14.9833C118.522 14.9814 118.166 14.8954 117.843 14.732C117.519 14.5687 117.239 14.3326 117.023 14.0424V17.9945ZM118.419 13.4339C118.613 13.4436 118.806 13.4064 118.983 13.3256C119.159 13.2448 119.313 13.1227 119.432 12.9697C119.663 12.6235 119.786 12.217 119.786 11.8013C119.786 11.3856 119.663 10.9792 119.432 10.6329C119.312 10.4804 119.157 10.3591 118.981 10.2793C118.804 10.1996 118.61 10.1638 118.416 10.175C118.229 10.1698 118.043 10.2079 117.873 10.2863C117.702 10.3646 117.553 10.4811 117.435 10.6267C117.174 10.9571 117.04 11.3699 117.058 11.7903C117.051 12.2053 117.186 12.6102 117.441 12.9383C117.552 13.0934 117.699 13.2194 117.869 13.3057C118.04 13.392 118.228 13.436 118.419 13.4339Z" fill="#4595D1"></path>
</svg>
