<svg height="178.453" fill="currentColor" viewBox="0 0 399.219 178.453" width="399.219" xmlns="http://www.w3.org/2000/svg"><path d="m41.29 118.671c23.392-21.586 41.539-38.1 41.539-51.6 0-8.944-4.988-13.158-12.212-13.158-6.536 0-11.524 4.73-16.254 9.374l-14.363-14.277c10.32-10.922 19.694-15.91 34.4-15.91 20.038 0 34.057 12.814 34.057 32.509 0 15.91-14.964 33.455-28.466 47.215 5.5-.688 11.008-1.118 16.6-1.29h16.509v22.532h-71.81z" transform="translate(-40 -25.274)"/><path d="m161.379 94.479c9.8-5.332 16.426-14.878 16.426-29.412 0-25.284-18.748-32.767-40.593-32.767h-12.212v21.242h10.32c10.664 0 16.254 2.838 16.254 11.524s-5.59 13.416-16.254 13.416h-10.32v21.243h10.922l17.458 34.057h30.014z" transform="translate(-51.899 -25.162)"/><path d="m237.5 57.4c19.952 0 38.7 14.964 38.7 40.937s-18.748 40.937-38.7 40.937-38.7-14.964-38.7-40.937 18.748-40.937 38.7-40.937zm0 60.287c8.084 0 11.266-7.482 11.266-19.35s-3.1-19.35-11.266-19.35-11.266 7.482-11.266 19.35 3.183 19.35 11.266 19.35z" transform="translate(-62.23 -28.676)"/><path d="m342.383 57.4c9.374 0 17.458 3.44 22.79 8.772l-12.212 16.6c-3.44-2.838-6.278-3.784-9.03-3.784-9.976 0-15.91 7.482-15.91 19.35s6.536 19.35 14.964 19.35c4.988 0 9.03-2.494 12.47-4.988l10.664 16.856a40.977 40.977 0 0 1 -26.23 9.718c-22.188 0-39.389-14.964-39.389-40.937s19.694-40.937 41.883-40.937z" transform="translate(-76.466 -28.676)"/><path d="m390.9 24h26.23v57.793h.6l21.586-27.176h29.068l-27.775 32.508 29.326 45.581h-29.068l-15.652-27.778-8.084 9.03v18.748h-26.231z" transform="translate(-89.121 -24)"/><path d="m46.456 213.74c3.44 2.666 6.708 4.3 10.664 4.3 4.128 0 6.106-1.978 6.106-4.644 0-3.182-4.128-4.644-8.17-6.192-5.074-1.892-10.75-4.73-10.75-11.18 0-6.708 5.418-11.524 14.018-11.524a20.829 20.829 0 0 1 12.728 4.644l-4.128 5.5c-2.666-1.978-5.418-3.268-8.428-3.268-3.87 0-5.59 1.806-5.59 4.214 0 3.01 3.87 4.214 8 5.676 5.246 1.978 11.008 4.472 11.008 11.61 0 6.536-5.246 11.868-14.878 11.868a24.121 24.121 0 0 1 -14.536-5.327z" transform="translate(-40.35 -46.468)"/><path d="m115.132 184.7c9.632 0 18.318 7.31 18.318 20.124 0 12.728-8.686 20.038-18.318 20.038-9.546 0-18.232-7.31-18.232-20.038 0-12.814 8.686-20.124 18.232-20.124zm0 32.853c5.59 0 9.03-5.074 9.03-12.728 0-7.74-3.44-12.814-9.03-12.814s-8.944 5.074-8.944 12.814c0 7.653 3.354 12.728 8.944 12.728z" transform="translate(-47.965 -46.496)"/><path d="m182.434 173.184a10.064 10.064 0 0 0 -4.214-.946c-3.1 0-4.816 2.064-4.816 6.45v4.128h7.482v7.138h-7.486v31.219h-8.94v-31.219h-5.16v-6.708l5.16-.43v-3.956c0-8 3.7-13.76 12.728-13.76a19.7 19.7 0 0 1 7.052 1.29z" transform="translate(-56.7 -43.752)"/><path d="m206.9 191.13h-5.5v-6.708l5.934-.43 1.118-10.492h7.482v10.492h9.8v7.138h-9.8v18.318c0 4.558 1.72 6.708 5.418 6.708a10.2 10.2 0 0 0 3.956-.86l1.548 6.622a24.168 24.168 0 0 1 -7.826 1.376c-8.944 0-12.212-5.59-12.212-13.932v-18.232z" transform="translate(-62.594 -44.928)"/><path d="m248.7 185.7h9.03l4.644 19.952c.774 3.7 1.29 7.224 2.064 11.008h.344c.688-3.784 1.462-7.4 2.408-11.008l4.988-19.952h8.17l5.074 19.952c.946 3.7 1.72 7.224 2.58 11.008h.344c.688-3.784 1.29-7.31 2.064-11.008l4.644-19.952h8.428l-9.8 38.357h-10.667l-4.472-17.888c-.86-3.612-1.462-7.138-2.322-11.18h-.344c-.688 4.042-1.376 7.654-2.236 11.266l-4.386 17.8h-10.32z" transform="translate(-69.215 -46.636)"/><path d="m354.932 199.406c-.086-4.042-1.806-7.482-6.966-7.482-3.87 0-7.4 1.72-10.75 3.784l-3.268-6.02a29.712 29.712 0 0 1 15.738-4.988c9.632 0 14.276 5.848 14.276 16.6v22.7h-7.31l-.688-4.214h-.258c-3.44 2.924-7.31 5.16-11.868 5.16-6.708 0-11.438-4.558-11.438-11.266 0-8.254 6.794-12.554 22.532-14.274zm-8.342 18.494c3.1 0 5.5-1.548 8.342-4.214v-8.6c-10.406 1.29-13.846 4.042-13.846 7.912 0 3.351 2.322 4.902 5.504 4.902z" transform="translate(-80.932 -46.496)"/><path d="m395.8 185.543h7.4l.6 6.794h.344c2.752-4.988 6.794-7.74 10.836-7.74a9.678 9.678 0 0 1 4.386.774l-1.548 7.826a12.634 12.634 0 0 0 -3.956-.6c-3.01 0-6.708 2.15-9.03 7.912v23.391h-8.944v-38.357z" transform="translate(-89.807 -46.479)"/><path d="m457.616 184.7c10.406 0 15.824 7.482 15.824 18.232a17.537 17.537 0 0 1 -.43 4.214h-24.338c.774 6.966 5.16 10.836 11.352 10.836a15.984 15.984 0 0 0 8.944-2.838l3.01 5.59a24.533 24.533 0 0 1 -13.158 4.128c-10.664 0-18.92-7.4-18.92-20.038.086-12.47 8.772-20.124 17.716-20.124zm8.084 16.684c0-6.106-2.58-9.8-7.826-9.8-4.558 0-8.428 3.354-9.2 9.8z" transform="translate(-95.98 -46.496)"/><path d="m484.7 49h-3.7v-1.2h8.772v1.2h-3.7v9.374h-1.29zm6.88-1.2h1.806l1.806 4.3 1.032 3.01h.172l1.032-3.01 1.72-4.3h1.806v10.578h-1.29v-5.59l.172-3.354h-.172l-2.838 7.31h-1.2l-2.838-7.31h-.172l.172 3.354v5.59h-1.29v-10.578z" transform="translate(-101.734 -27.332)"/></svg>