<svg width="3380" height="1317" viewBox="0 0 3380 1317" fill="none" xmlns="http://www.w3.org/2000/svg">
<rect width="1100" height="1317" fill="#FF6720"/>
<rect width="1100" height="1317" transform="translate(2280)" fill="#7ED957"/>
<rect width="1100" height="1317" transform="translate(1140)" fill="#FFDE59"/>
<path d="M768.2 346H617.8V727.6C617.8 838 584.2 870 510.6 870C437 870 403.4 838 403.4 727.6V346H253V771.6C253 934.8 342.6 1018 510.6 1018C678.6 1018 768.2 934.8 768.2 771.6V346Z" fill="white"/>
<path d="M1968.4 346H1425.2V478H1705.2L1378.8 1006H1946.8V874H1641.2L1968.4 346Z" fill="white"/>
<path d="M2884.2 346H2745L2478.6 1006H2640.2L2689 874H2940.2L2989 1006H3150.6L2884.2 346ZM2889 742H2740.2L2813.8 550H2815.4L2889 742Z" fill="white"/>
</svg>
