<svg width="322" height="87" viewBox="0 0 322 87" fill="none" xmlns="http://www.w3.org/2000/svg">
<path d="M87.4226 12.0343H90.8097L91.0976 12.3258L91.3855 12.0343H96.771C102.597 12.0343 106.182 17.0981 107.525 27.2257V28.083C107.525 33.2954 104.883 37.7876 99.5992 41.5597C97.6121 42.5199 95.2525 43 92.5202 43C88.1734 42.76 86 41.9941 86 40.7024L86.2879 38.6963V22.0647L86.5589 20.9159L86.2879 19.7671C86.2879 14.6119 86.6661 12.0343 87.4226 12.0343ZM92.5202 19.2013C92.8928 20.0586 93.0791 21.2989 93.0791 22.922V30.9635L93.6549 31.5293H95.6363C97.8267 31.5293 99.2379 30.1919 99.8702 27.5171V26.6598C98.8654 21.4932 97.2621 18.9098 95.0605 18.9098H94.5016L92.5202 19.2013Z" fill="black"/>
<path d="M132.59 12.2229H133.961C134.402 12.2229 134.769 12.9602 135.062 14.4347C135.062 16.6637 132.962 17.7782 128.762 17.7782L128.491 18.0525H128.22C128.762 32.2266 129.22 39.8051 129.592 40.7882C129.592 41.8169 127.949 42.5542 124.664 43H116.992C114.802 43 113.069 42.1656 111.793 40.4967C109.411 39.788 108.219 38.3134 108.219 36.073L107.677 31.9065V29.6947C108.163 26.5513 109.077 24.9795 110.421 24.9795C112.973 24.9795 114.248 26.8256 114.248 30.5177C114.248 34.587 115.801 36.6217 118.906 36.6217L119.177 36.3473L120.549 23.3164V19.4414L120.007 18.8756C118.9 19.4357 117.257 19.7157 115.078 19.7157L114.79 19.4414V18.0525C115.174 14.5319 116.546 12.7716 118.906 12.7716C121.717 12.4058 126.278 12.2229 132.59 12.2229Z" fill="black"/>
<path d="M146.782 12.1543H152.76C154.916 12.1543 156.627 14.269 157.891 18.4983C162.633 28.5573 165.004 35.8615 165.004 40.4109C165.388 40.4109 165.58 40.891 165.58 41.8512L164.733 43L161.312 42.7085H156.469C155.995 42.7085 155.328 40.4967 154.47 36.073L154.199 35.7987C154.199 34.8385 153.341 34.3584 151.625 34.3584C149.796 33.7754 148.091 33.484 146.511 33.484C145.37 33.8154 144.8 34.9699 144.8 36.9475C144.371 36.9475 143.897 37.9076 143.378 39.828C142.237 41.7255 141.475 42.6857 141.091 42.7085H139.381L138.246 42.417L137.399 42.7085C135.706 42.7085 134.47 42.2284 133.69 41.2683V40.9768C133.69 38.382 137.298 29.8319 144.512 15.3263C145.449 13.3717 146.206 12.3143 146.782 12.1543ZM150.491 21.0874L147.933 27.4314V27.7229C147.933 28.4316 149.542 28.9117 152.76 29.1632L153.048 28.8717V28.5802L151.066 21.0874H150.491Z" fill="black"/>
<path d="M169.018 12.1543H169.814C172.682 12.5887 175.329 13.5374 177.757 15.0006L180.941 20.4358H181.212C181.212 16.0808 181.917 13.4117 183.329 12.4287C186.682 12.4287 188.358 13.0973 188.358 14.4347L190.204 36.9989V39.2793L190.475 40.4281C190.058 41.7655 188.996 42.4342 187.291 42.4342H183.854C182.442 42.4342 181.737 41.6683 181.737 40.1366V35.01C181.737 33.6154 181.031 32.5638 179.62 31.8551C178.333 28.8831 176.656 26.5055 174.59 24.7223V24.9967L175.115 41.8512C174.347 42.6171 172.936 43 170.881 43H168.493C166.901 43 166.105 42.3313 166.105 40.9939V25.854C166.929 17.3381 167.9 12.7716 169.018 12.1543Z" fill="black"/>
<path d="M203.431 12.1372H206.818C207.947 12.1372 208.512 12.8973 208.512 14.4176L208.8 16.1322C208.021 18.224 206.705 19.2699 204.854 19.2699L204.566 18.9956H204.278C200.699 21.4189 198.909 23.4192 198.909 24.9967C200.174 29.569 202.155 31.8551 204.854 31.8551H206.259C209.082 31.8551 210.493 30.1405 210.493 26.7113H210.205L205.971 28.9917H205.125C203.284 28.9917 202.251 27.66 202.025 24.9967C202.025 22.7563 204.662 20.9445 209.934 19.5614H210.781C212.904 19.5614 215.162 21.276 217.555 24.7052L218.114 26.9856V28.1344C218.114 33.2211 215.76 37.6047 211.052 41.2854C209.517 42.4285 207.733 43 205.7 43C200.179 43 195.567 39.9537 191.864 33.8612C191.108 32.5466 190.729 31.4036 190.729 30.432V26.1283C190.729 20.9274 193.456 16.738 198.909 13.5603L203.431 12.1372Z" fill="black"/>
<path d="M231.138 12.1372H234.813C239.645 12.1372 243.128 15.9436 245.262 23.5564L245.821 28.4259C245.821 33.2039 243.467 37.4904 238.759 41.2854C237.223 42.4285 235.439 43 233.407 43C227.886 43 223.274 39.9537 219.571 33.8612C218.814 32.5466 218.436 31.4036 218.436 30.432V26.1283C218.436 20.9274 221.163 16.738 226.616 13.5603L231.138 12.1372ZM226.159 26.0083C227.355 30.3177 229.224 32.4723 231.764 32.4723H233.085C235.151 32.4723 236.484 31.215 237.082 28.7002V27.8944C236.134 23.0363 234.626 20.6073 232.56 20.6073H232.018C229.839 20.6073 227.886 22.3162 226.159 25.734V26.0083Z" fill="black"/>
<path d="M260.961 12H262.926C264.8 13.566 265.737 15.7493 265.737 18.5498C265.443 18.927 263.479 19.7786 259.843 21.1045C256.84 22.8191 255.339 25.1853 255.339 28.203C255.339 31.4722 258.618 33.9412 265.178 35.6101L265.466 35.8844V37.599C264.043 41.1997 262.638 43 261.249 43C256.801 43 252.397 40.6281 248.039 35.8844C246.73 33.8383 246.075 32.2266 246.075 31.0492V26.797C246.075 21.8361 248.694 17.5667 253.933 13.9889C256.225 12.663 258.568 12 260.961 12Z" fill="black"/>
<path d="M278.693 12.1372H282.368C287.2 12.1372 290.683 15.9436 292.817 23.5564L293.376 28.4259C293.376 33.2039 291.022 37.4904 286.314 41.2854C284.778 42.4285 282.994 43 280.962 43C275.441 43 270.829 39.9537 267.126 33.8612C266.369 32.5466 265.991 31.4036 265.991 30.432V26.1283C265.991 20.9274 268.718 16.738 274.171 13.5603L278.693 12.1372ZM273.714 26.0083C274.91 30.3177 276.779 32.4723 279.319 32.4723H280.64C282.706 32.4723 284.039 31.215 284.637 28.7002V27.8944C283.689 23.0363 282.181 20.6073 280.115 20.6073H279.573C277.394 20.6073 275.441 22.3162 273.714 25.734V26.0083Z" fill="black"/>
<path d="M296.543 12.1543H297.339C300.206 12.5887 302.854 13.5374 305.281 15.0006L308.465 20.4358H308.736C308.736 16.0808 309.442 13.4117 310.853 12.4287C314.206 12.4287 315.883 13.0973 315.883 14.4347L317.729 36.9989V39.2793L318 40.4281C317.582 41.7655 316.521 42.4342 314.816 42.4342H311.378C309.967 42.4342 309.261 41.6683 309.261 40.1366V35.01C309.261 33.6154 308.556 32.5638 307.144 31.8551C305.857 28.8831 304.181 26.5055 302.114 24.7223V24.9967L302.639 41.8512C301.872 42.6171 300.46 43 298.406 43H296.018C294.426 43 293.63 42.3313 293.63 40.9939V25.854C294.454 17.3381 295.425 12.7716 296.543 12.1543Z" fill="black"/>
<path d="M99.1703 50.1543H105.185C107.354 50.1543 109.075 52.269 110.347 56.4983C115.118 66.5573 117.503 73.8615 117.503 78.4109C117.889 78.4109 118.082 78.891 118.082 79.8512L117.23 81L113.789 80.7085H108.916C108.439 80.7085 107.769 78.4967 106.905 74.073L106.633 73.7987C106.633 72.8385 105.77 72.3584 104.043 72.3584C102.203 71.7754 100.488 71.484 98.8976 71.484C97.7504 71.8154 97.1768 72.9699 97.1768 74.9475C96.7452 74.9475 96.2681 75.9076 95.7457 77.828C94.5984 79.7255 93.8317 80.6857 93.4455 80.7085H91.7247L90.5832 80.417L89.7313 80.7085C88.0275 80.7085 86.7837 80.2284 86 79.2683V78.9768C86 76.382 89.6291 67.8319 96.8872 53.3263C97.83 51.3717 98.591 50.3143 99.1703 50.1543ZM102.902 59.0874L100.329 65.4314V65.7229C100.329 66.4316 101.947 66.9117 105.185 67.1632L105.474 66.8717V66.5802L103.481 59.0874H102.902Z" fill="black"/>
<path d="M136.722 50.3258H138.153L139.022 50.9087C138.783 54.3837 138.21 56.1211 137.301 56.1211C131.36 56.6469 128.39 57.4185 128.39 58.4358V59.0188L128.68 59.3103L128.39 60.7506V62.4823L129.242 62.7738C130.105 62.3851 131.355 62.1908 132.99 62.1908H135.291L136.142 63.0653V65.38C136.142 66.9231 134.422 67.6947 130.98 67.6947C129.253 67.6947 128.39 68.3691 128.39 69.7179V75.7876L128.101 78.9768L128.39 80.417L127.521 81H126.38C121.2 80.0513 118.61 78.2166 118.61 75.4961V75.2218C118.61 64.0654 119.854 56.2526 122.342 51.7832C126.601 50.8116 131.395 50.3258 136.722 50.3258Z" fill="black"/>
<path d="M140.606 50.2229H149.67C155.52 51.8346 158.445 54.778 158.445 59.0531C158.445 61.9336 156.843 64.4998 153.64 66.7517V67.3175C156.537 69.6608 159.365 72.9871 162.125 77.2965V77.5879C159.297 79.474 157.031 80.5142 155.327 80.7085L147.694 69.5979L146.842 69.3236L147.115 69.5979L146.842 71.021V71.3125L147.694 79.2854C147.694 80.2341 147.126 80.7085 145.99 80.7085V81C141.458 80.8171 139.192 80.057 139.192 78.7196L139.482 76.7306V60.2019L139.754 59.0531L139.482 57.9215C139.482 52.7891 139.857 50.2229 140.606 50.2229ZM145.99 57.0642L146.28 62.4823L146.553 62.7566H146.842C148.978 61.8079 150.579 60.3848 151.647 58.4873V58.1958C150.59 56.2983 149.273 55.3496 147.694 55.3496H146.842C146.467 55.3496 146.183 55.9211 145.99 57.0642Z" fill="black"/>
<path d="M163.318 50.2229H167.322C169.605 50.2229 170.746 51.9489 170.746 55.401L173.319 79.8512V80.1427C173.137 80.7142 172.569 81 171.615 81H169.894C166.975 81 164.499 79.9427 162.466 77.828V51.0802L163.318 50.2229Z" fill="black"/>
<path d="M188.857 50H190.834C192.719 51.566 193.662 53.7493 193.662 56.5498C193.367 56.927 191.39 57.7786 187.733 59.1045C184.712 60.8191 183.201 63.1853 183.201 66.203C183.201 69.4722 186.501 71.9412 193.1 73.6101L193.39 73.8844V75.599C191.958 79.1997 190.544 81 189.147 81C184.672 81 180.242 78.6281 175.858 73.8844C174.54 71.8383 173.881 70.2266 173.881 69.0492V64.797C173.881 59.8361 176.516 55.5667 181.787 51.9889C184.093 50.663 186.449 50 188.857 50Z" fill="black"/>
<path d="M207.088 50.1543H213.102C215.272 50.1543 216.993 52.269 218.265 56.4983C223.035 66.5573 225.421 73.8615 225.421 78.4109C225.807 78.4109 226 78.891 226 79.8512L225.148 81L221.706 80.7085H216.834C216.357 80.7085 215.686 78.4967 214.823 74.073L214.551 73.7987C214.551 72.8385 213.687 72.3584 211.961 72.3584C210.121 71.7754 208.406 71.484 206.815 71.484C205.668 71.8154 205.095 72.9699 205.095 74.9475C204.663 74.9475 204.186 75.9076 203.663 77.828C202.516 79.7255 201.749 80.6857 201.363 80.7085H199.642L198.501 80.417L197.649 80.7085C195.945 80.7085 194.701 80.2284 193.918 79.2683V78.9768C193.918 76.382 197.547 67.8319 204.805 53.3263C205.748 51.3717 206.509 50.3143 207.088 50.1543ZM210.819 59.0874L208.247 65.4314V65.7229C208.247 66.4316 209.865 66.9117 213.102 67.1632L213.392 66.8717V66.5802L211.399 59.0874H210.819Z" fill="black"/>
<path d="M56.706 13.3518C58.896 14.7965 59.8998 18.7693 60.1279 20.5751C60.28 21.1018 61.451 25.7218 62.181 28.25C63.0935 31.4102 63.0935 32.9902 68.7966 33.216C73.3591 33.3966 72.0664 36.1504 70.8498 37.5048C67.58 41.1165 60.9491 48.5203 60.5841 49.2427C60.1279 50.1456 60.1279 59.1747 59.4435 61.8834C58.7591 64.5921 54.4248 68.4295 53.2841 70.9125C52.1435 73.3955 50.7748 76.7814 44.3873 81.0703C37.9998 85.3591 34.3498 73.6213 33.6654 70.0096C33.1179 67.1203 33.4373 59.5509 33.6654 57.1431C33.6654 55.7888 33.4373 51.4999 32.0685 50.3713C30.6998 49.2427 30.0154 44.7281 28.8748 43.3737C27.7341 42.0194 27.506 41.3422 24.7685 40.2135C22.031 39.0849 21.5748 42.4708 14.0466 42.2451C6.51851 42.0194 4.23725 29.8301 4.00913 26.4441C3.781 23.0582 7.88725 19.898 9.71226 17.8665C11.5373 15.8349 11.7654 15.6092 12.2216 13.3519C12.6779 11.0947 13.8185 9.51456 15.1873 8.38592C16.556 7.25728 19.7498 7.03155 22.2591 7.03155C24.7685 7.03155 26.8216 5 29.1029 5C31.3841 5 33.8935 11.7717 36.631 11.9975C39.3685 12.2232 42.5623 10.8688 44.3873 11.0946C46.2123 11.3203 53.9685 11.546 56.706 13.3518Z" stroke="black" stroke-width="3"/>
<path d="M70.3935 64.1407C70.0285 65.9465 70.8498 68.2038 71.306 69.1067C71.5341 69.5582 71.5341 71.0931 69.7092 73.6213C67.4279 76.7814 65.831 75.4271 63.5498 73.6213C61.2685 71.8154 62.8654 70.0096 63.5498 67.9781C64.2341 65.9465 62.181 65.4951 66.2873 60.529C70.3935 55.563 70.8498 61.8834 70.3935 64.1407Z" stroke="black" stroke-width="3"/>
<path d="M47.6099 20.5081C46.6335 20.27 45.6732 20 44.6631 20C42.7644 20 40.5046 20.0679 38.6714 20.6428C38.1401 20.8094 37.6169 20.9845 37.0867 21.1726C36.6055 21.3434 36.1597 21.7218 35.7246 21.8762C35.1166 22.0919 34.7252 22.5573 34.2289 22.8925C33.6135 23.3082 32.9969 23.9166 32.564 24.5168C32.131 25.1172 31.4131 25.7675 31.2019 26.4886C31.1268 26.7451 30.9505 26.9893 30.8636 27.253C30.7121 27.7128 30.6455 28.2084 30.5253 28.6775C30.4051 29.1464 30.4621 29.6401 30.2849 30.0847C30.1171 30.5057 30 31.0396 30 31.4918V34.0108V34.0271C30 34.9699 30 35.7579 30.3561 36.6514C30.7654 37.6782 31.3501 38.6918 31.9631 39.6221C32.1252 39.8681 32.3316 40.1567 32.5818 40.3257C32.7602 40.4462 33.0951 40.5723 33.205 40.76C33.3331 40.9786 33.7311 41.2243 33.9262 41.4202C34.2915 41.787 34.4918 42.2563 34.8432 42.6319C36.1498 44.0282 37.9297 44 39.7754 44C40.6839 44 41.6029 43.9218 42.4997 43.9218C43.3155 43.9218 44.2298 44.0385 45.0281 43.8827C45.7214 43.7474 46.5131 43.7608 47.2227 43.6916C47.6514 43.6498 48.0369 43.4244 48.4112 43.2182C49.4694 42.6354 50.1168 41.789 51.0109 41.0293C52.8504 39.4661 54.1215 37.6371 54.8391 35.3615C55.3284 33.8101 54.5485 32.3333 54.5186 30.7883C54.4857 29.0886 54.5588 27.363 53.9577 25.7503C53.7345 25.1514 52.9588 24.7816 52.5778 24.2997C51.9472 23.5021 51.1352 22.7588 50.4322 22.0326C49.925 21.5086 49.2087 21.3031 48.6694 20.8599C48.3998 20.6384 47.9387 20.5883 47.6099 20.5081Z" fill="black" stroke="black" stroke-linecap="round"/>
<path d="M38.6646 22.871C38.698 23.1301 38.7056 23.735 38.6234 24.2583C38.6517 24.3149 38.4921 24.2306 38.4633 24.2217C38.4068 24.2043 38.34 24.176 38.2838 24.176C38.0717 24.176 37.881 24.0175 37.6753 23.9918C37.5553 23.9768 37.4355 23.9138 37.3219 23.8717C37.2454 23.8434 37.138 23.8164 37.0703 23.7734C36.8652 23.6429 36.605 23.5368 36.431 23.3628C36.2294 23.1612 36.0027 22.9703 35.8546 22.7235C35.7017 22.4686 35.5554 22.2188 35.4223 21.9527C35.303 21.714 35.2377 21.4504 35.1856 21.1898C35.1411 20.9675 35.062 20.7162 35.062 20.4899C35.062 20.2137 35.0209 19.9447 35.0209 19.6676C35.0209 19.6106 34.9953 19.5628 34.9808 19.5121C34.963 19.4497 35.0796 19.4844 35.1284 19.4983C35.2363 19.5292 35.3621 19.5238 35.4738 19.5441C35.6141 19.5696 35.7481 19.6061 35.8855 19.6424C36.2308 19.7338 36.5374 19.893 36.853 20.0587C37.0172 20.1449 37.1762 20.2912 37.3124 20.4165L37.3151 20.419C37.4387 20.5328 37.5766 20.638 37.6765 20.7747C37.7343 20.8538 37.8151 20.8995 37.8732 20.984L37.8739 20.985C37.9657 21.1184 38.0556 21.2493 38.1294 21.3968C38.2878 21.7137 38.4807 22.0549 38.5457 22.4056C38.5747 22.5623 38.6442 22.7127 38.6646 22.871Z" fill="#B6C5F9" stroke="black" stroke-linecap="round"/>
<path d="M38.6646 40.9835C38.698 40.7244 38.7056 40.1195 38.6234 39.5962C38.6517 39.5396 38.4921 39.6239 38.4633 39.6328C38.4068 39.6502 38.34 39.6785 38.2838 39.6785C38.0717 39.6785 37.881 39.837 37.6753 39.8627C37.5553 39.8777 37.4355 39.9407 37.3219 39.9827C37.2454 40.0111 37.138 40.0381 37.0703 40.0811C36.8652 40.2116 36.605 40.3177 36.431 40.4917C36.2294 40.6933 36.0027 40.8842 35.8546 41.131C35.7017 41.3859 35.5554 41.6357 35.4223 41.9018C35.303 42.1405 35.2377 42.4041 35.1856 42.6647C35.1411 42.887 35.062 43.1383 35.062 43.3646C35.062 43.6408 35.0209 43.9098 35.0209 44.1869C35.0209 44.2439 34.9953 44.2917 34.9808 44.3424C34.963 44.4048 35.0796 44.3701 35.1284 44.3562C35.2363 44.3253 35.3621 44.3307 35.4738 44.3104C35.6141 44.2849 35.7481 44.2484 35.8855 44.2121C36.2308 44.1206 36.5374 43.9615 36.853 43.7958C37.0172 43.7096 37.1762 43.5633 37.3124 43.438L37.3151 43.4355C37.4387 43.3217 37.5766 43.2164 37.6765 43.0798C37.7343 43.0007 37.8151 42.955 37.8732 42.8705L37.8739 42.8695C37.9657 42.736 38.0556 42.6052 38.1294 42.4577C38.2878 42.1408 38.4807 41.7995 38.5457 41.4489C38.5747 41.2922 38.6442 41.1418 38.6646 40.9835Z" fill="#B6C5F9" stroke="black" stroke-linecap="round"/>
<path d="M34.2376 25.8736C34.3981 26.0796 34.7122 26.5967 34.9074 27.0891C34.9605 27.1235 34.7802 27.132 34.7509 27.139C34.6934 27.1528 34.6214 27.1623 34.5731 27.1909C34.3904 27.2987 34.1457 27.2592 33.9555 27.3416C33.8445 27.3897 33.7093 27.3964 33.5901 27.4179C33.5098 27.4324 33.4036 27.4638 33.3235 27.4611C33.0805 27.453 32.8025 27.4939 32.5642 27.4326C32.2881 27.3614 31.9958 27.3123 31.7428 27.1751C31.4815 27.0333 31.2286 26.8926 30.9787 26.731C30.7546 26.5862 30.5643 26.3924 30.387 26.1945C30.2357 26.0256 30.0398 25.8494 29.9248 25.6546C29.7844 25.4167 29.6122 25.206 29.4713 24.9674C29.4423 24.9183 29.396 24.8901 29.3578 24.8538C29.3107 24.8091 29.4287 24.7798 29.4778 24.767C29.5864 24.7387 29.692 24.6701 29.7985 24.6308C29.9323 24.5814 30.0662 24.5447 30.2031 24.5062C30.5469 24.4093 30.8918 24.3905 31.2479 24.3728C31.433 24.3635 31.6444 24.4087 31.8253 24.4473L31.8289 24.4481C31.9932 24.4832 32.1655 24.5038 32.321 24.5707C32.411 24.6094 32.5038 24.6077 32.5968 24.6509L32.5979 24.6514C32.7447 24.7197 32.8887 24.7866 33.0273 24.8762C33.3248 25.0685 33.6644 25.2643 33.8986 25.5332C34.0032 25.6534 34.1396 25.7476 34.2376 25.8736Z" fill="#B6C5F9" stroke="black" stroke-linecap="round"/>
<path d="M34.2376 37.9809C34.3981 37.7749 34.7122 37.2578 34.9074 36.7654C34.9605 36.731 34.7802 36.7225 34.7509 36.7155C34.6934 36.7017 34.6214 36.6922 34.5731 36.6636C34.3904 36.5558 34.1457 36.5953 33.9555 36.5128C33.8445 36.4648 33.7093 36.4581 33.5901 36.4366C33.5098 36.4221 33.4036 36.3907 33.3235 36.3934C33.0805 36.4015 32.8025 36.3605 32.5642 36.4219C32.2881 36.493 31.9958 36.5422 31.7428 36.6794C31.4815 36.8212 31.2286 36.9619 30.9787 37.1235C30.7546 37.2683 30.5643 37.4621 30.387 37.66C30.2357 37.8288 30.0398 38.0051 29.9248 38.1999C29.7844 38.4378 29.6122 38.6485 29.4713 38.8871C29.4423 38.9362 29.396 38.9644 29.3578 39.0007C29.3107 39.0453 29.4287 39.0747 29.4778 39.0875C29.5864 39.1158 29.692 39.1844 29.7985 39.2237C29.9323 39.2731 30.0662 39.3098 30.2031 39.3483C30.5469 39.4452 30.8918 39.464 31.2479 39.4817C31.433 39.491 31.6444 39.4458 31.8253 39.4072L31.8289 39.4064C31.9932 39.3713 32.1655 39.3507 32.321 39.2838C32.411 39.2451 32.5038 39.2468 32.5968 39.2036L32.5979 39.2031C32.7447 39.1348 32.8887 39.0679 33.0273 38.9783C33.3248 38.786 33.6644 38.5902 33.8986 38.3213C34.0032 38.2011 34.1396 38.1069 34.2376 37.9809Z" fill="#B6C5F9" stroke="black" stroke-linecap="round"/>
<path d="M32.6869 31.4215C32.9118 31.5543 33.3937 31.9201 33.7559 32.3066C33.818 32.319 33.6533 32.3931 33.6287 32.4104C33.5802 32.4443 33.5167 32.4796 33.4822 32.5239C33.3519 32.6912 33.1097 32.7443 32.963 32.8907C32.8774 32.9761 32.7541 33.0319 32.6511 33.0957C32.5817 33.1386 32.4944 33.2068 32.4189 33.2337C32.1898 33.3152 31.9463 33.4553 31.702 33.4856C31.4191 33.5208 31.1291 33.5823 30.8435 33.5474C30.5484 33.5114 30.2615 33.4733 29.9697 33.4146C29.7081 33.3621 29.46 33.2516 29.2225 33.1325C29.0197 33.031 28.7729 32.9389 28.5944 32.7998C28.3766 32.6301 28.1391 32.4972 27.9205 32.3269C27.8755 32.2918 27.8221 32.2826 27.7732 32.2629C27.713 32.2386 27.812 32.168 27.853 32.138C27.9437 32.0719 28.0167 31.9693 28.1014 31.8937C28.2078 31.7987 28.3189 31.7154 28.432 31.6294C28.7164 31.4132 29.0303 31.2692 29.3551 31.122C29.5239 31.0455 29.7371 31.01 29.9196 30.9796L29.9232 30.979C30.089 30.9513 30.2568 30.9073 30.4259 30.9125C30.5239 30.9155 30.6096 30.8798 30.7119 30.8859L30.7132 30.886C30.8748 30.8957 31.0333 30.9051 31.1951 30.9376C31.5424 31.0074 31.9302 31.0649 32.2466 31.2292C32.3881 31.3026 32.5495 31.3403 32.6869 31.4215Z" fill="#B6C5F9" stroke="black" stroke-linecap="round"/>
<path d="M56.6034 31.4215C56.8283 31.5543 57.3102 31.9201 57.6724 32.3066C57.7345 32.319 57.5698 32.3931 57.5452 32.4104C57.4967 32.4443 57.4333 32.4796 57.3987 32.5239C57.2684 32.6912 57.0262 32.7443 56.8795 32.8907C56.7939 32.9761 56.6706 33.0319 56.5676 33.0957C56.4982 33.1386 56.4109 33.2068 56.3354 33.2337C56.1064 33.3152 55.8628 33.4553 55.6186 33.4856C55.3356 33.5208 55.0456 33.5823 54.76 33.5474C54.4649 33.5114 54.178 33.4733 53.8862 33.4146C53.6246 33.3621 53.3765 33.2516 53.139 33.1325C52.9363 33.031 52.6894 32.9389 52.5109 32.7998C52.2931 32.6301 52.0556 32.4972 51.837 32.3269C51.792 32.2918 51.7386 32.2826 51.6897 32.2629C51.6295 32.2386 51.7285 32.168 51.7695 32.138C51.8602 32.0719 51.9332 31.9693 52.0179 31.8937C52.1243 31.7987 52.2354 31.7154 52.3485 31.6294C52.6329 31.4132 52.9468 31.2692 53.2716 31.122C53.4404 31.0455 53.6536 31.01 53.8361 30.9796L53.8397 30.979C54.0055 30.9513 54.1733 30.9073 54.3424 30.9125C54.4404 30.9155 54.5261 30.8798 54.6284 30.8859L54.6297 30.886C54.7913 30.8957 54.9498 30.9051 55.1116 30.9376C55.4589 31.0074 55.8467 31.0649 56.1631 31.2292C56.3046 31.3026 56.466 31.3403 56.6034 31.4215Z" fill="#B6C5F9" stroke="black" stroke-linecap="round"/>
<path d="M43.7597 21.5819C43.6483 21.8181 43.329 22.332 42.978 22.7287C42.9714 22.7916 42.8822 22.6346 42.8628 22.6116C42.8245 22.5666 42.7835 22.5067 42.7361 22.4764C42.5574 22.3622 42.482 22.126 42.3225 21.9937C42.2295 21.9164 42.1625 21.7988 42.0894 21.7022C42.0402 21.6371 41.9642 21.5565 41.9303 21.4838C41.8278 21.2634 41.6656 21.0339 41.6127 20.7936C41.5514 20.5152 41.4631 20.2322 41.4712 19.9445C41.4796 19.6474 41.4908 19.3581 41.522 19.0622C41.5499 18.7968 41.6368 18.5395 41.7332 18.2919C41.8155 18.0806 41.8842 17.8263 42.006 17.6356C42.1547 17.4029 42.2649 17.154 42.4141 16.9205C42.4448 16.8724 42.449 16.8184 42.4641 16.7679C42.4827 16.7057 42.5622 16.7977 42.5958 16.8358C42.6701 16.9198 42.7791 16.983 42.8622 17.0603C42.9668 17.1573 43.06 17.2602 43.1562 17.3648C43.398 17.6278 43.5706 17.927 43.7474 18.2366C43.8393 18.3976 43.8945 18.6066 43.9418 18.7854L43.9427 18.789C43.9857 18.9514 44.0452 19.1144 44.0558 19.2833C44.0619 19.3811 44.1054 19.4632 44.1088 19.5656L44.1089 19.5669C44.1143 19.7287 44.1197 19.8874 44.1024 20.0514C44.0653 20.4037 44.0441 20.7952 43.9101 21.1256C43.8501 21.2733 43.8277 21.4375 43.7597 21.5819Z" fill="#B6C5F9" stroke="black" stroke-linecap="round"/>
<path d="M43.7597 42.2729C43.6483 42.0366 43.329 41.5227 42.978 41.126C42.9714 41.0631 42.8822 41.2201 42.8628 41.2431C42.8245 41.2882 42.7835 41.3481 42.7361 41.3783C42.5574 41.4925 42.482 41.7287 42.3225 41.8611C42.2295 41.9383 42.1625 42.0559 42.0894 42.1526C42.0402 42.2177 41.9642 42.2983 41.9303 42.3709C41.8278 42.5913 41.6656 42.8208 41.6127 43.0611C41.5514 43.3396 41.4631 43.6226 41.4712 43.9102C41.4796 44.2074 41.4908 44.4966 41.522 44.7926C41.5499 45.0579 41.6368 45.3152 41.7332 45.5628C41.8155 45.7741 41.8842 46.0285 42.006 46.2191C42.1547 46.4519 42.2649 46.7007 42.4141 46.9342C42.4448 46.9823 42.449 47.0363 42.4641 47.0869C42.4827 47.149 42.5622 47.057 42.5958 47.019C42.6701 46.9349 42.7791 46.8717 42.8622 46.7945C42.9668 46.6974 43.06 46.5945 43.1562 46.4899C43.398 46.2269 43.5706 45.9277 43.7474 45.6181C43.8393 45.4571 43.8945 45.2482 43.9418 45.0693L43.9427 45.0658C43.9857 44.9033 44.0452 44.7403 44.0558 44.5714C44.0619 44.4736 44.1054 44.3916 44.1088 44.2892L44.1089 44.2879C44.1143 44.1261 44.1197 43.9674 44.1024 43.8033C44.0653 43.451 44.0441 43.0596 43.9101 42.7292C43.8501 42.5815 43.8277 42.4172 43.7597 42.2729Z" fill="#B6C5F9" stroke="black" stroke-linecap="round"/>
<path d="M48.7224 23.6149C48.493 23.7396 47.9316 23.9652 47.4139 24.0775C47.3714 24.1243 47.3924 23.945 47.3902 23.915C47.386 23.856 47.3883 23.7834 47.368 23.731C47.2914 23.5333 47.3703 23.2982 47.32 23.0972C47.2906 22.9798 47.3061 22.8454 47.3043 22.7243C47.3031 22.6426 47.2895 22.5327 47.3052 22.4541C47.3528 22.2157 47.3577 21.9348 47.4572 21.7097C47.5723 21.4489 47.6685 21.1685 47.8451 20.9413C48.0276 20.7066 48.2077 20.48 48.4078 20.2597C48.5872 20.0623 48.8095 19.9062 49.0337 19.7635C49.2249 19.6417 49.4307 19.4772 49.6417 19.3955C49.8993 19.2958 50.1352 19.1602 50.3937 19.0601C50.4468 19.0395 50.4822 18.9985 50.5242 18.9666C50.576 18.9275 50.5857 19.0487 50.5903 19.0992C50.6005 19.211 50.651 19.3264 50.6724 19.4378C50.6993 19.5779 50.7137 19.716 50.7294 19.8573C50.7689 20.2123 50.7312 20.5557 50.6906 20.9099C50.6696 21.094 50.5905 21.2952 50.5229 21.4674L50.5216 21.4708C50.4601 21.6272 50.4118 21.7939 50.3204 21.9363C50.2675 22.0188 50.2541 22.1107 50.1963 22.1953L50.1956 22.1964C50.1043 22.3301 50.0148 22.4613 49.9038 22.5833C49.6656 22.8455 49.417 23.1487 49.1135 23.3359C48.9779 23.4195 48.8627 23.5387 48.7224 23.6149Z" fill="#B6C5F9" stroke="black" stroke-linecap="round"/>
<path d="M48.7224 40.2399C48.493 40.1151 47.9316 39.8895 47.4139 39.7772C47.3714 39.7304 47.3924 39.9097 47.3902 39.9397C47.386 39.9987 47.3883 40.0713 47.368 40.1237C47.2914 40.3215 47.3703 40.5565 47.32 40.7576C47.2906 40.8749 47.3061 41.0094 47.3043 41.1305C47.3031 41.2121 47.2895 41.322 47.3052 41.4006C47.3528 41.639 47.3577 41.92 47.4572 42.1451C47.5723 42.4059 47.6685 42.6863 47.8451 42.9135C48.0276 43.1481 48.2077 43.3748 48.4078 43.595C48.5872 43.7925 48.8095 43.9486 49.0337 44.0913C49.2249 44.213 49.4307 44.3775 49.6417 44.4592C49.8993 44.559 50.1352 44.6945 50.3937 44.7946C50.4468 44.8152 50.4822 44.8563 50.5242 44.8881C50.576 44.9273 50.5857 44.8061 50.5903 44.7555C50.6005 44.6438 50.651 44.5284 50.6724 44.4169C50.6993 44.2768 50.7137 44.1387 50.7294 43.9975C50.7689 43.6424 50.7312 43.2991 50.6906 42.9449C50.6696 42.7607 50.5905 42.5595 50.5229 42.3873L50.5216 42.3839C50.4601 42.2275 50.4118 42.0609 50.3204 41.9184C50.2675 41.8359 50.2541 41.744 50.1963 41.6594L50.1956 41.6583C50.1043 41.5246 50.0148 41.3935 49.9038 41.2714C49.6656 41.0092 49.417 40.7061 49.1135 40.5189C48.9779 40.4352 48.8627 40.3161 48.7224 40.2399Z" fill="#B6C5F9" stroke="black" stroke-linecap="round"/>
<path d="M52.2606 27.5728C51.9994 27.5721 51.3986 27.5006 50.8906 27.3508C50.8308 27.3714 50.9352 27.2242 50.9478 27.1968C50.9724 27.1431 51.0092 27.0805 51.0166 27.0248C51.0443 26.8145 51.2263 26.6461 51.2786 26.4456C51.3092 26.3286 51.3873 26.218 51.4438 26.1109C51.4819 26.0387 51.5227 25.9357 51.5742 25.8743C51.7304 25.688 51.8695 25.4439 52.0648 25.2941C52.291 25.1206 52.5099 24.9207 52.7739 24.8062C53.0466 24.6878 53.3134 24.5754 53.5946 24.4783C53.8468 24.3911 54.1167 24.3608 54.3819 24.3432C54.6081 24.3282 54.8676 24.2826 55.0919 24.3122C55.3657 24.3483 55.6378 24.3426 55.9126 24.3788C55.9691 24.3862 56.0198 24.3672 56.072 24.3594C56.1361 24.3499 56.0865 24.4609 56.0663 24.5075C56.0217 24.6104 56.0106 24.7359 55.9759 24.8439C55.9322 24.9797 55.8786 25.1078 55.8246 25.2393C55.6888 25.5697 55.491 25.8528 55.2854 26.1442C55.1786 26.2956 55.0127 26.4342 54.8707 26.5528L54.8679 26.5552C54.739 26.6629 54.6165 26.7859 54.468 26.867C54.382 26.914 54.3261 26.9882 54.2348 27.0347L54.2337 27.0353C54.0894 27.1088 53.948 27.1809 53.792 27.2348C53.4572 27.3504 53.0937 27.4971 52.7376 27.5157C52.5784 27.524 52.4202 27.5732 52.2606 27.5728Z" fill="#B6C5F9" stroke="black" stroke-linecap="round"/>
<path d="M52.2606 36.2814C51.9994 36.2821 51.3986 36.3536 50.8906 36.5035C50.8308 36.4828 50.9352 36.6301 50.9478 36.6574C50.9724 36.7112 51.0092 36.7738 51.0166 36.8295C51.0443 37.0398 51.2263 37.2081 51.2786 37.4087C51.3092 37.5257 51.3873 37.6362 51.4438 37.7433C51.4819 37.8155 51.5227 37.9185 51.5742 37.9799C51.7304 38.1662 51.8695 38.4103 52.0648 38.5601C52.291 38.7337 52.5099 38.9335 52.7739 39.0481C53.0466 39.1664 53.3134 39.2788 53.5946 39.376C53.8468 39.4631 54.1167 39.4934 54.3819 39.511C54.6081 39.5261 54.8676 39.5716 55.0919 39.5421C55.3657 39.506 55.6378 39.5117 55.9126 39.4755C55.9691 39.468 56.0198 39.4871 56.072 39.4948C56.1361 39.5043 56.0865 39.3933 56.0663 39.3468C56.0217 39.2438 56.0106 39.1184 55.9759 39.0103C55.9322 38.8745 55.8786 38.7465 55.8246 38.615C55.6888 38.2845 55.491 38.0014 55.2854 37.7101C55.1786 37.5586 55.0127 37.42 54.8707 37.3014L54.8679 37.2991C54.739 37.1913 54.6165 37.0684 54.468 36.9872C54.382 36.9402 54.3261 36.8661 54.2348 36.8195L54.2337 36.819C54.0894 36.7455 53.948 36.6734 53.792 36.6195C53.4572 36.5038 53.0937 36.3571 52.7376 36.3385C52.5784 36.3302 52.4202 36.281 52.2606 36.2814Z" fill="#B6C5F9" stroke="black" stroke-linecap="round"/>
<path d="M47.088 22.4235C46.3068 22.225 45.5386 22 44.7305 22C43.2115 22 41.4037 22.0566 39.9371 22.5357C39.512 22.6745 39.0935 22.8205 38.6694 22.9772C38.2844 23.1195 37.9278 23.4349 37.5797 23.5635C37.0933 23.7433 36.7802 24.131 36.3831 24.4104C35.8908 24.7568 35.3975 25.2639 35.0512 25.764C34.7048 26.2643 34.1305 26.8062 33.9615 27.4072C33.9014 27.6209 33.7604 27.8244 33.6909 28.0441C33.5697 28.4273 33.5164 28.8403 33.4202 29.2313C33.3241 29.622 33.3697 30.0335 33.2279 30.4039C33.0937 30.7548 33 31.1997 33 31.5765V33.6757V33.6893C33 34.4749 33 35.1316 33.2849 35.8762C33.6123 36.7318 34.0801 37.5765 34.5705 38.3518C34.7002 38.5568 34.8653 38.7972 35.0655 38.9381C35.2082 39.0385 35.4761 39.1436 35.564 39.3C35.6665 39.4822 35.9849 39.6869 36.1409 39.8501C36.4332 40.1559 36.5934 40.547 36.8745 40.8599C37.9199 42.0235 39.3437 42 40.8203 42C41.5471 42 42.2823 41.9348 42.9997 41.9348C43.6524 41.9348 44.3838 42.0321 45.0225 41.9022C45.5771 41.7895 46.2105 41.8007 46.7781 41.743C47.1211 41.7081 47.4295 41.5203 47.729 41.3485C48.5755 40.8628 49.0935 40.1575 49.8087 39.5244C51.2803 38.2218 52.2972 36.6976 52.8713 34.8013C53.2627 33.5084 52.6388 32.2777 52.6149 30.9902C52.5886 29.5738 52.647 28.1359 52.1662 26.7919C51.9876 26.2929 51.3671 25.9847 51.0622 25.5831C50.5577 24.9184 49.9081 24.299 49.3457 23.6938C48.94 23.2572 48.367 23.0859 47.9355 22.7166C47.7198 22.532 47.3509 22.4903 47.088 22.4235Z" fill="black" stroke="black" stroke-linecap="round"/>
<path fill-rule="evenodd" clip-rule="evenodd" d="M42.6918 41.223C45.4798 39.0728 47.2757 35.6991 47.2757 31.906C47.2757 28.1129 45.4798 24.7393 42.6918 22.5891C39.9039 24.7393 38.1079 28.1129 38.1079 31.906C38.1079 35.6991 39.9039 39.0728 42.6918 41.223Z" fill="#B6C5F9"/>
<path fill-rule="evenodd" clip-rule="evenodd" d="M36.4139 38.3834C39.8289 38.7502 43.3738 37.6247 45.9916 35.0069C48.6092 32.3893 49.7347 28.8446 49.3682 25.4297C45.9531 25.0629 42.4082 26.1884 39.7905 28.8062C37.1728 31.4238 36.0473 34.9686 36.4139 38.3834Z" fill="#B6C5F9"/>
<path fill-rule="evenodd" clip-rule="evenodd" d="M52.0513 31.9067C49.8958 34.5808 46.5934 36.2915 42.8914 36.2915C39.1894 36.2915 35.8869 34.5807 33.7315 31.9067C35.8869 29.2327 39.1894 27.522 42.8914 27.522C46.5934 27.522 49.8958 29.2327 52.0513 31.9067Z" fill="#B6C5F9"/>
<path fill-rule="evenodd" clip-rule="evenodd" d="M49.5039 38.3681C46.0473 38.7798 42.4429 37.6594 39.7904 35.0069C37.1381 32.3547 36.0177 28.7506 36.4291 25.2943C39.9075 24.8608 43.5258 25.9673 46.1783 28.6198C48.8306 31.272 49.9371 34.89 49.5039 38.3681Z" fill="#B6C5F9"/>
<path d="M45.0833 25.1303C45.0833 24.7343 44.9474 24.5144 44.7316 24.2041C44.5805 23.987 44.3694 23.8143 44.219 23.5971C43.9981 23.2781 43.6342 23.0105 43.2903 22.8353C43.1344 22.7559 42.9694 22.6565 42.7975 22.6136C42.7175 22.5936 42.5995 22.4847 42.5549 22.574C42.5032 22.6775 42.3438 22.758 42.2585 22.8309C42.19 22.8894 42.1246 22.9637 42.0554 23.0175C41.8756 23.1573 41.701 23.3126 41.556 23.4939C41.3099 23.8014 40.9388 23.9702 40.7525 24.3325C40.6817 24.4702 40.5824 24.5913 40.5143 24.7277C40.4519 24.8525 40.4597 25.0479 40.3705 25.147C40.2722 25.2562 40.4128 25.3167 40.2124 25.2096C39.7182 24.9452 39.0627 24.9726 38.5062 24.931C37.8109 24.879 37.1764 25.1822 36.5132 25.3296" stroke="#B6C5F9" stroke-width="2" stroke-linecap="round"/>
<path d="M36.5447 25.6064C36.5317 25.8002 36.4104 25.9806 36.3361 26.1553C36.2784 26.2909 36.2174 26.4292 36.1736 26.5702C36.1474 26.6547 36.1505 26.791 36.1495 26.8754C36.1458 27.1697 36.1439 27.4658 36.1495 27.7601C36.1561 28.1085 36.2597 28.4698 36.3712 28.7919C36.4337 28.9723 36.5247 29.1425 36.5842 29.321" stroke="#B6C5F9" stroke-width="2" stroke-linecap="round"/>
<path d="M36.7622 29.4592C36.3283 29.4592 35.9264 29.6943 35.5712 29.9225C35.3102 30.09 35.1221 30.3098 34.8972 30.5152C34.683 30.7107 34.5458 31.0034 34.3615 31.2287C34.2739 31.3358 34.2223 31.4751 34.1343 31.5734C34.0907 31.6221 34.0775 31.6907 34.0399 31.7358C33.9722 31.817 33.8774 32.1137 33.8774 32.008" stroke="#B6C5F9" stroke-width="2" stroke-linecap="round"/>
<path d="M36.9995 34.3821C37.0259 34.3996 37.0501 34.4158 37.0234 34.3944C37.0163 34.3887 37.0082 34.3848 36.9995 34.3821Z" fill="#B6C5F9"/>
<path d="M33.8774 32.0081C34.1426 32.5678 34.6731 32.9568 35.1222 33.356C35.3515 33.5599 35.5918 33.7075 35.8642 33.8456C35.9758 33.9021 36.0764 33.9765 36.1936 34.0234C36.3733 34.0953 36.5489 34.176 36.7226 34.2605C36.8004 34.2983 36.8887 34.3146 36.9641 34.3593C36.9884 34.3736 37.0637 34.4266 37.0234 34.3944C36.9917 34.369 36.9417 34.3791 36.9005 34.3791" stroke="#B6C5F9" stroke-width="2" stroke-linecap="round"/>
<path d="M36.999 34.3003C36.9879 34.4108 36.8586 34.547 36.797 34.6318C36.692 34.7762 36.5656 34.9126 36.4743 35.0665C36.3606 35.2579 36.3283 35.469 36.2778 35.6823C36.2287 35.8897 36.1493 36.0888 36.1 36.297C36.0438 36.5341 36.0308 36.7688 36.0308 37.0116C36.0308 37.3606 35.9941 37.7183 36.0901 38.0544C36.1297 38.1928 36.1302 38.3911 36.2087 38.5088" stroke="#B6C5F9" stroke-width="2" stroke-linecap="round"/>
<path d="M36.209 38.5088C36.5226 38.5088 36.8332 38.5483 37.1453 38.5483C37.4519 38.5483 37.7585 38.5483 38.0652 38.5483C38.4341 38.5483 38.8552 38.5557 39.2024 38.4199C39.6108 38.2601 40.0356 38.1218 40.4175 37.9007C40.471 37.8697 40.5144 37.8237 40.5756 37.7931C40.6671 37.7473 40.6061 37.7715 40.5756 37.8173" stroke="#B6C5F9" stroke-width="2" stroke-linecap="round"/>
<path d="M40.3003 38.0847C40.3003 38.6968 40.6989 39.2805 41.0975 39.6791C41.4323 40.014 41.6228 40.1844 41.8783 40.4248C42.0849 40.6193 42.3451 40.8068 42.6104 40.91C42.6703 40.9333 42.7317 40.951 42.7882 40.9824C42.839 41.0106 42.8619 41.0571 42.9265 41.0571" stroke="#B6C5F9" stroke-width="2" stroke-linecap="round"/>
<path d="M42.9268 41.0578C43.0025 41.0157 43.0985 40.9295 43.1529 40.8602C43.267 40.7149 43.4061 40.5875 43.5041 40.4299C43.6389 40.2134 43.808 40.0194 43.963 39.8163C44.0634 39.6847 44.1503 39.5527 44.2462 39.4178C44.455 39.124 44.6343 38.765 44.7489 38.4255C44.8099 38.2449 44.8942 38.0465 44.9212 37.8569C44.9258 37.8253 44.9619 37.7031 44.9619 37.7186" stroke="#B6C5F9" stroke-width="2" stroke-linecap="round"/>
<path d="M45.021 37.8369C45.2459 37.8369 45.4656 37.949 45.6774 38.0147C46.0199 38.121 46.369 38.2282 46.729 38.2518C47.1142 38.2771 47.496 38.3309 47.8816 38.3309C48.2008 38.3309 48.5975 38.3977 48.8936 38.2826C48.9388 38.265 49.2799 38.1881 49.2493 38.1728" stroke="#B6C5F9" stroke-width="2" stroke-linecap="round"/>
<path d="M49.2491 38.173C49.2491 37.7161 49.2435 37.2606 49.2293 36.8053C49.2241 36.6385 49.2038 36.4619 49.1854 36.2959C49.1568 36.0388 49.1612 35.7804 49.1108 35.5254C49.0335 35.1349 48.9267 34.7519 48.8385 34.364C48.8207 34.2854 48.8086 34.1963 48.7749 34.1225C48.752 34.0725 48.7354 34.008 48.7354 34.1028" stroke="#B6C5F9" stroke-width="2" stroke-linecap="round"/>
<path d="M48.9531 34.4188C49.0379 34.4111 49.1267 34.362 49.199 34.3222C49.3667 34.2297 49.5304 34.1259 49.6952 34.028C49.9167 33.8963 50.1425 33.7262 50.3329 33.5516C50.4109 33.4801 50.4557 33.4052 50.5162 33.3211C50.6745 33.1013 50.8681 32.9122 51.019 32.6844C51.1706 32.4555 51.3271 32.23 51.48 32.0006C51.5151 31.9479 51.5657 31.8646 51.5799 31.8008C51.5854 31.7759 51.6205 31.7088 51.6205 31.7712" stroke="#B6C5F9" stroke-width="2" stroke-linecap="round"/>
<path d="M51.6202 31.771C51.5042 31.655 51.4207 31.4911 51.3282 31.3561C51.1891 31.1529 51.0784 30.9321 50.9287 30.7348C50.8047 30.5714 50.6325 30.4474 50.4743 30.3199C50.3201 30.1957 50.1546 30.0744 49.9847 29.973C49.7609 29.8394 49.535 29.744 49.2888 29.6657C49.1843 29.6324 49.0398 29.5383 48.9331 29.5383" stroke="#B6C5F9" stroke-width="2" stroke-linecap="round"/>
<path d="M49.0118 29.5779C49.0118 28.8134 49.1896 28.0673 49.1896 27.3046C49.1896 26.8395 49.2134 26.3708 49.1501 25.9116C49.1364 25.8124 49.1026 25.6754 49.0557 25.5867C49.0374 25.5522 48.9919 25.5074 49.0118 25.567" stroke="#B6C5F9" stroke-width="2" stroke-linecap="round"/>
<path d="M49.0124 25.5867C48.6386 25.5867 48.2648 25.4633 47.8906 25.4331C47.6942 25.4172 47.4973 25.4223 47.3011 25.4078C47.0485 25.3891 46.7977 25.3892 46.5437 25.3892C46.3712 25.3892 46.1462 25.4154 45.9894 25.4923C45.8386 25.5663 45.6382 25.6658 45.4658 25.6658" stroke="#B6C5F9" stroke-width="2" stroke-linecap="round"/>
<path d="M40.1384 37.7459C40.6853 37.865 41.223 38 41.7887 38C42.8519 38 44.1174 37.966 45.144 37.6786C45.4416 37.5953 45.7345 37.5077 46.0314 37.4137C46.3009 37.3283 46.5505 37.1391 46.7942 37.0619C47.1347 36.954 47.3539 36.7214 47.6318 36.5537C47.9764 36.3459 48.3217 36.0417 48.5641 35.7416C48.8066 35.4414 49.2087 35.1163 49.3269 34.7557C49.369 34.6274 49.4677 34.5054 49.5164 34.3735C49.6012 34.1436 49.6385 33.8958 49.7058 33.6612C49.7731 33.4268 49.7412 33.1799 49.8405 32.9577C49.9344 32.7471 50 32.4802 50 32.2541L50 30.9946L50 30.9864C50 30.5151 50 30.121 49.8006 29.6743C49.5714 29.1609 49.244 28.6541 48.9007 28.1889C48.8099 28.0659 48.6943 27.9217 48.5542 27.8372C48.4543 27.7769 48.2667 27.7139 48.2052 27.62C48.1335 27.5107 47.9106 27.3879 47.8013 27.2899C47.5968 27.1065 47.4846 26.8718 47.2878 26.6841C46.5561 25.9859 45.5594 26 44.5258 26C44.017 26 43.5024 26.0391 43.0002 26.0391C42.5433 26.0391 42.0313 25.9808 41.5843 26.0587C41.196 26.1263 40.7527 26.1196 40.3553 26.1542C40.1152 26.1751 39.8993 26.2878 39.6897 26.3909C39.0972 26.6823 38.7346 27.1055 38.2339 27.4854C37.2038 28.2669 36.492 29.1814 36.0901 30.3192C35.8161 31.095 36.2529 31.8333 36.2696 32.6059C36.288 33.4557 36.2471 34.3185 36.5837 35.1249C36.7087 35.4243 37.1431 35.6092 37.3564 35.8502C37.7096 36.2489 38.1643 36.6206 38.558 36.9837C38.842 37.2457 39.2431 37.3485 39.5451 37.57C39.6961 37.6808 39.9543 37.7058 40.1384 37.7459Z" stroke="black" stroke-linecap="round"/>
<path d="M41.478 33.8941C41.6733 33.9438 41.8654 34 42.0674 34C42.4471 34 42.8991 33.9859 43.2657 33.8661C43.372 33.8314 43.4766 33.7949 43.5827 33.7557C43.6789 33.7201 43.7681 33.6413 43.8551 33.6091C43.9767 33.5642 44.055 33.4672 44.1542 33.3974C44.2773 33.3108 44.4006 33.184 44.4872 33.059C44.5738 32.9339 44.7174 32.7984 44.7596 32.6482C44.7746 32.5948 44.8099 32.5439 44.8273 32.489C44.8576 32.3932 44.8709 32.2899 44.8949 32.1922C44.919 32.0945 44.9076 31.9916 44.943 31.899C44.9766 31.8113 45 31.7001 45 31.6059L45 31.0811L45 31.0777C45 30.8813 45 30.7171 44.9288 30.531C44.8469 30.3171 44.73 30.1059 44.6074 29.9121C44.575 29.8608 44.5337 29.8007 44.4836 29.7655C44.448 29.7404 44.381 29.7141 44.359 29.675C44.3334 29.6295 44.2538 29.5783 44.2148 29.5375C44.1417 29.461 44.1017 29.3633 44.0314 29.285C43.77 28.9941 43.4141 29 43.0449 29C42.8632 29 42.6794 29.0163 42.5001 29.0163C42.3369 29.0163 42.154 28.992 41.9944 29.0244C41.8557 29.0526 41.6974 29.0498 41.5555 29.0643C41.4697 29.073 41.3926 29.1199 41.3178 29.1629C41.1061 29.2843 40.9766 29.4606 40.7978 29.6189C40.4299 29.9446 40.1757 30.3256 40.0322 30.7997C39.9343 31.1229 40.0903 31.4306 40.0963 31.7524C40.1029 32.1065 40.0882 32.466 40.2085 32.802C40.2531 32.9268 40.4082 33.0038 40.4844 33.1042C40.6106 33.2704 40.773 33.4253 40.9136 33.5765C41.015 33.6857 41.1582 33.7285 41.2661 33.8208C41.32 33.867 41.4123 33.8774 41.478 33.8941Z" stroke="black" stroke-linecap="round"/>
<path d="M41.8868 31.0423C42.004 31.0225 42.1192 31 42.2404 31C42.4683 31 42.7395 31.0057 42.9594 31.0536C43.0232 31.0675 43.086 31.082 43.1496 31.0977C43.2073 31.1119 43.2608 31.1435 43.3131 31.1564C43.386 31.1743 43.433 31.2131 43.4925 31.241C43.5664 31.2757 43.6404 31.3264 43.6923 31.3764C43.7443 31.4264 43.8304 31.4806 43.8558 31.5407C43.8648 31.5621 43.8859 31.5824 43.8964 31.6044C43.9145 31.6427 43.9225 31.684 43.937 31.7231C43.9514 31.7622 43.9446 31.8033 43.9658 31.8404C43.986 31.8755 44 31.92 44 31.9577L44 32.1676L44 32.1689C44 32.2475 44 32.3132 43.9573 32.3876C43.9082 32.4732 43.838 32.5576 43.7644 32.6352C43.745 32.6557 43.7202 32.6797 43.6902 32.6938C43.6688 32.7038 43.6286 32.7144 43.6154 32.73C43.6 32.7482 43.5523 32.7687 43.5289 32.785C43.485 32.8156 43.461 32.8547 43.4188 32.886C43.262 33.0023 43.0484 33 42.827 33C42.7179 33 42.6077 32.9935 42.5 32.9935C42.4021 32.9935 42.2924 33.0032 42.1966 32.9902C42.1134 32.979 42.0184 32.9801 41.9333 32.9743C41.8818 32.9708 41.8356 32.952 41.7907 32.9348C41.6637 32.8863 41.586 32.8157 41.4787 32.7524C41.258 32.6222 41.1054 32.4698 41.0193 32.2801C40.9606 32.1508 41.0542 32.0278 41.0578 31.899C41.0617 31.7574 41.0529 31.6136 41.1251 31.4792C41.1519 31.4293 41.2449 31.3985 41.2907 31.3583C41.3663 31.2918 41.4638 31.2299 41.5481 31.1694C41.609 31.1257 41.6949 31.1086 41.7597 31.0717C41.792 31.0532 41.8474 31.049 41.8868 31.0423Z" fill="black" stroke="black" stroke-linecap="round"/>
<path d="M47 32H48" stroke="black" stroke-width="1.5"/>
<path d="M39 34H40" stroke="black" stroke-width="1.5"/>
<path d="M39 29H40" stroke="black" stroke-width="1.5"/>
</svg>
