<svg width="23" height="23" viewBox="0 0 23 23" fill="none" xmlns="http://www.w3.org/2000/svg">
<g opacity="0.7">
<path d="M9.5 4.49999L5.5 4.5C5.30937 4.5 4.35935 4.13911 4 4.49998C3.72917 4.77196 3.80603 4.64026 3.67813 5.01132C3.36887 5.90849 3.38926 6.84864 3.38926 7.80123V11.022C3.38926 11.8416 3.20037 12.6678 3.06641 13.4749C2.98133 13.9876 3.00694 14.5086 3.00694 15.0277C3.00694 16.5681 2.88567 18.339 3.65689 19.733C3.81247 20.0142 4.33547 20.3857 4.70615 20.3857C5.05553 20.3857 5.40339 20.2321 5.75966 20.2321C5.98586 20.2321 6.20285 20.3004 6.43085 20.3089C6.93346 20.3276 8.4992 20.1483 9 20.2321C9.80346 20.3666 10.6971 20.2321 11.5063 20.2321C12.5229 20.2321 13.5317 20.3527 14.5437 20.2321C15.899 20.0706 17.5 20 19 20C19 20 19.1473 19.4173 19.4298 18.85C19.5663 18.5757 19.4468 17.9982 19.4468 17.6982C19.4468 16.5756 19.2963 15.3078 19.485 14.2086C19.6207 13.4182 19.5363 12.5497 19.5955 11.7472C19.6626 10.8373 19.927 9.94727 19.9778 9.02982C20.0252 8.17341 19.982 7.30245 19.982 6.44467C19.982 5.87707 19.7935 5.52826 19.5239 5.02955L19.5232 5.02838C19.254 4.53025 18.9637 4.56766 18.4485 4.56766C17.8992 4.56766 17.3608 4.41409 16.8088 4.41409C15.3859 4.41409 13.9813 4.37565 12.565 4.41409C11.5215 4.44241 10.5519 4.49999 9.5 4.49999Z" stroke="black" stroke-width="1.2" stroke-linecap="round"/>
<path d="M15 2V7" stroke="black" stroke-width="1.2" stroke-linecap="round"/>
<path d="M8 2V7" stroke="black" stroke-width="1.2" stroke-linecap="round"/>
<path d="M19 16C18.4447 16 7.3879 16 6.83975 16C6.24673 16 5.55589 16 4.95084 16C4.30056 16 3.65028 16 3 16" stroke="black" stroke-width="1.2" stroke-linecap="round"/>
<path d="M9.56449 9.8929C9.84938 9.86452 10.1545 9.57562 10.3975 9.43655C10.6889 9.26984 11.0691 9.22544 11.3919 9.14615C12.0053 8.99552 12.6033 8.85194 13.1023 9.3121C13.731 9.89192 13.7412 10.5533 13.5474 11.376C13.4389 11.8369 13.1523 12.2131 12.7769 12.4961C12.1679 12.9553 11.4392 13.343 10.6891 13.5074C10.1979 13.615 9.6497 13.6801 9.14277 13.624C8.87176 13.594 9.0433 13.5922 9.19223 13.5774C9.59494 13.5373 9.99077 13.5333 10.3975 13.5333C11.3645 13.5333 12.3266 13.5582 13.2897 13.6292C13.8654 13.6717 14.4257 14 15 14" stroke="black" stroke-width="1.2" stroke-linecap="round"/>
</g>
</svg>
