<svg width="20" height="20" viewBox="0 0 20 20" fill="none" xmlns="http://www.w3.org/2000/svg">
<path d="M5.78411 1.19178H17.7815C18.7658 1.80928 18.687 14.8662 18.687 16.813C18.687 17.915 19.7502 19.1156 17.9576 18.7696C16.4126 18.4714 15.0516 18.2331 13.4806 18.2331C10.4645 18.2331 6.34169 17.2037 3.74682 18.9274C2.58428 19.6996 2.45671 14.0906 2.38862 12.5527C2.25938 9.63395 1.56467 6.05435 1.05557 3.17993C0.507815 0.0871903 4.15025 1.19178 5.78411 1.19178Z" fill="#37FFCE" stroke="black" stroke-width="2" stroke-linecap="round"/>
<path d="M7 10.9177C7.83002 10.9671 8.80109 12.2743 9.34357 12.8232C9.58512 13.0676 9.53757 13.0693 9.76316 12.7611C10.2849 12.0484 10.9197 11.4439 11.3289 10.6381C11.7358 9.83687 12.1687 9.04271 12.8026 8.4012C13.0722 8.12841 13.2086 7.79194 13.519 7.56237C13.6245 7.48433 14 6.95454 14 7.00314" stroke="black" stroke-width="2" stroke-linecap="round"/>
</svg>
