<svg width="80" height="89" viewBox="0 0 80 89" fill="none" xmlns="http://www.w3.org/2000/svg">
<path d="M69.2227 15.9258C70.5989 18.4031 79.4341 29.6204 79.7227 32.5055C77.8969 35.2442 77.5959 40.336 76.2227 43.4258C74.5069 47.2863 72.7227 57.4258 72.7227 57.4258L70.2227 66.4258C70.2227 66.4258 68.2227 75.761 68.2227 79.9258C68.2227 82.512 65.8903 84.7992 65.8903 87.2864C65.8903 89.7404 64.8955 88.1287 63.3513 88.0429C61.4916 87.9396 58.5313 86.4206 56.795 85.7454C54.2514 84.7562 51.4281 84.0886 48.9778 82.9995C45.7535 81.5665 41.5928 81.2303 38.1347 80.3658C34.8912 79.5549 31.7684 78.4573 28.5523 77.5639C21.573 75.6252 16.5543 70.8955 9.11816 70.8955C8.60834 70.8955 6.80755 71.1785 6.4564 70.7835C5.89285 70.1495 8.00854 66.3242 8.24959 65.7401C10.2162 60.9748 9.52377 62.8615 11.1528 57.9744C13.8606 49.8511 13.0384 40.3911 16.4483 32.5055C18.2305 28.3843 19.1734 23.8216 19.9787 19.3929C20.6876 15.4935 22.5003 12.3587 22.5003 8.29752C22.5003 7.17012 21.8922 6.78452 23.0047 6.78452C23.6163 6.78452 25.1047 6.5097 25.5263 7.03669C26.0667 7.71209 29.8455 7.79319 30.8218 7.79319C34.3982 7.79319 32.9818 8.29752 36.7227 8.29752C42.8104 8.29752 48.8819 9.57449 55.0188 9.81052C58.6076 9.94855 64.2227 10.9258 64.2227 10.9258C65.3031 10.6171 68.6631 14.9185 69.2227 15.9258Z" fill="#C6B6F9"/>
<path d="M64.8613 11.2129C66.2376 13.6902 75.0728 24.9075 75.3613 27.7926C73.5355 30.5313 73.2346 35.6231 71.8613 38.7129C70.1456 42.5734 68.3613 52.7129 68.3613 52.7129L65.8613 61.7129C65.8613 61.7129 63.8613 71.0481 63.8613 75.2129C63.8613 77.7991 61.529 80.0863 61.529 82.5735C61.529 85.0275 60.5342 83.4158 58.99 83.33C57.1302 83.2267 54.17 81.7077 52.4337 81.0325C49.8901 80.0433 47.0668 79.3757 44.6165 78.2867C41.3921 76.8536 37.2315 76.5174 33.7733 75.6529C30.5298 74.842 27.407 73.7444 24.191 72.8511C17.2117 70.9124 12.1929 66.1826 4.75683 66.1826C4.24701 66.1826 2.44622 66.4656 2.09507 66.0706C1.53152 65.4366 3.64721 61.6113 3.88826 61.0272C5.85491 56.2619 5.16244 58.1487 6.7915 53.2615C9.49925 45.1382 8.67703 35.6782 12.087 27.7926C13.8692 23.6714 14.8121 19.1087 15.6173 14.68C16.3263 10.7806 18.139 7.6458 18.139 3.58463C18.139 2.45723 17.5309 2.07163 18.6433 2.07163C19.2549 2.07163 20.7434 1.7968 21.165 2.32379C21.7053 2.9992 25.4842 3.08029 26.4605 3.08029C30.0368 3.08029 28.6204 3.58463 32.3613 3.58463C38.449 3.58463 44.5206 4.8616 50.6574 5.09763C54.2463 5.23566 59.8613 6.21289 59.8613 6.21289C60.9417 5.90421 64.3017 10.2056 64.8613 11.2129Z" stroke="black" stroke-width="3" stroke-linecap="round"/>
<path d="M33.3613 26.7129C31.0074 28.7991 27.9574 30.0314 25.5076 31.9972C24.6915 32.652 24.0943 33.4782 23.2865 34.0969C22.6521 34.5828 22.0135 34.9131 21.4563 35.4618C20.8472 36.0616 21.1812 35.7353 20.3613 36.5427C21.726 37.4846 24.4977 41.2962 24.4977 41.2962C24.4977 41.2962 28.6341 45.9629 30.4068 47.7129" stroke="black" stroke-width="3" stroke-linecap="round"/>
<path d="M46.3613 27.7129C44.8896 31.8796 40.4745 39.7227 40.4745 39.7227C40.4745 39.7227 35.5689 49.5266 33.3613 52.7129" stroke="black" stroke-width="3" stroke-linecap="round"/>
<path d="M49.5262 32.7129C51.7679 35.9953 54.0097 38.6212 54.0097 38.6212L56.7789 42.2975C56.7789 42.2975 58.2295 44.3983 58.3613 44.6609C58.0976 44.7922 57.5701 45.0548 57.5701 45.0548C57.5701 45.0548 56.4497 45.5309 55.7926 45.8642C54.2029 46.6705 52.6622 47.5692 51.1457 48.4081C50.0935 48.9901 48.9866 49.4387 47.9735 50.0983C47.5026 50.4048 46.3383 50.7129 46.3617 50.7129" stroke="black" stroke-width="3" stroke-linecap="round"/>
</svg>
