<svg width="89" height="88" viewBox="0 0 89 88" fill="none" xmlns="http://www.w3.org/2000/svg">
<path d="M57.5864 9.72402C61.2044 12.538 61.9612 9.39062 70.4612 17.3906C78.9612 25.3906 79.8491 32.3448 82.145 36.4774C86.8971 45.0313 84.3783 62.68 78.6451 70.1119C69.8861 81.4661 62.6216 87.1961 47.502 87.1961C41.2538 87.1961 35.4251 85.9397 29.528 83.7556C25.365 82.2137 21.593 80.1617 17.7826 77.8235C14.4143 75.7567 11.9977 71.6801 8.46933 70.1119C0.307904 66.4846 -1.65078 47.2027 1.29159 40.2146C5.2694 30.7673 4.95621 20.7708 12.7404 12.9866C20.1348 5.59218 33.9863 1.25197 44.2394 5.8089C48.5724 7.73467 53.3415 6.42244 57.5864 9.72402Z" fill="#103E2E"/>
<path d="M60.1255 7.77871C63.7435 10.5927 64.5002 7.44531 73.0002 15.4453C81.5002 23.4453 82.3881 30.3995 84.684 34.5321C89.4362 43.086 86.9173 60.7347 81.1841 68.1666C72.4252 79.5208 65.1607 85.2508 50.041 85.2508C43.7929 85.2508 37.9642 83.9944 32.067 81.8102C27.9041 80.2684 24.1321 78.2164 20.3217 75.8782C16.9534 73.8113 14.5367 69.7348 11.0084 68.1666C2.84697 64.5393 0.888285 45.2574 3.83066 38.2693C7.80846 28.822 7.49527 18.8255 15.2794 11.0413C22.6739 3.64686 36.5254 -0.693338 46.7784 3.86358C51.1114 5.78936 55.8806 4.47713 60.1255 7.77871Z" stroke="black" stroke-width="3" stroke-linecap="round"/>
<path d="M37.3136 42.2685C37.3136 39.8249 34.6615 38.3855 33.3382 36.7313C32.7473 35.9928 30.0409 36.7839 29.4258 37.1573C27.8728 38.1002 26.761 39.0224 26.2392 40.8487C25.9946 41.7047 25.6954 42.3559 25.6713 43.2466C25.6381 44.4756 24.6061 47.9884 25.4504 49.0204C26.7351 50.5906 28.9531 50.5033 30.7668 50.5033C32.7125 50.5033 33.2988 49.5646 34.6317 48.2316C35.8887 46.9746 36.913 44.322 37.4555 42.6945C38.1461 40.6227 38.6836 38.5685 39.3644 36.5263C40.6886 32.5534 41.289 28.0309 41.289 23.8744C41.289 22.7904 41.5729 23.6377 41.5729 24.2372C41.5729 25.5553 41.1589 26.7783 41.005 28.0864C40.7304 30.4206 40.337 33.1523 39.6483 35.3904C38.6086 38.7695 39.6625 42.5481 38.6702 45.8969C38.2156 47.4312 37.1439 53.3429 39.3013 53.3429" stroke="white" stroke-width="3" stroke-linecap="round"/>
<path d="M57.4749 43.4043C57.4749 47.7521 56.0503 51.9312 55.2033 56.1666C54.8321 58.0226 54.1089 60.0984 52.7107 61.3567C51.5153 62.4326 50.3232 64.4172 48.5303 64.4172C47.1019 64.4172 44.1289 64.6096 44.1289 62.7134" stroke="white" stroke-width="3" stroke-linecap="round"/>
<path d="M58.8946 34.8853C58.7742 33.8018 56.9348 33.7228 56.6387 34.7591C56.2609 36.0815 57.7588 35.9288 57.7588 34.6013" stroke="white" stroke-width="3" stroke-linecap="round"/>
</svg>
