<svg width="41" height="40" viewBox="0 0 41 40" fill="none" xmlns="http://www.w3.org/2000/svg">
<path d="M5.90452 31.8034C4.60492 31.0961 2.42736 29.0926 2.42736 27.616C2.15958 26.4859 1.091 23.2293 1.091 22.8222C1.091 22.4151 0.88625 20.6412 1.091 19.362C1.27244 18.2284 2.00766 17.6153 2.42736 16.716C2.83698 15.8382 2.54688 14.4644 3.01445 13.6629C3.52821 12.7822 4.9379 11.0169 4.9379 11.0169C4.9379 11.0169 6.31055 9.42001 6.86135 8.37086C7.7138 6.74716 10.3722 5.31773 11.9967 4.40761C12.5663 4.08853 12.7868 3.46804 13.5342 3.23077C14.0882 3.05487 14.5959 2.69142 15.1003 2.43708C16.0604 1.95301 17.5162 1.50157 18.5918 1.27393C21.254 0.71051 23.8442 1.13425 26.4801 1.49287C31.8947 2.22955 37.0112 6.68204 38.837 11.5508C40.7513 16.6556 40.1247 22.6112 38.2479 27.616C37.4468 29.7521 36.8455 32.299 35.5322 34.2118C34.3385 35.9505 32.2158 36.5493 30.6757 38.016C29.2904 39.3353 26.1072 38.9465 24.2817 38.9465C21.3176 38.9465 18.5717 37.8338 15.7469 37.236C14.3512 36.9406 13.0938 36.1133 11.7381 35.7444C10.8153 35.4933 9.08994 34.8018 8.57705 34.0202C8.18315 33.42 6.58118 32.1716 5.90452 31.8034Z" stroke="#E2DABF" stroke-width="2" stroke-linecap="round"/>
<path d="M21 10C15.48 10 11 14.48 11 20C11 25.52 15.48 30 21 30H26V28H21C16.66 28 13 24.34 13 20C13 15.66 16.66 12 21 12C25.34 12 29 15.66 29 20V21.43C29 22.22 28.29 23 27.5 23C26.71 23 26 22.22 26 21.43V20C26 17.24 23.76 15 21 15C18.24 15 16 17.24 16 20C16 22.76 18.24 25 21 25C22.38 25 23.64 24.44 24.54 23.53C25.19 24.42 26.31 25 27.5 25C29.47 25 31 23.4 31 21.43V20C31 14.48 26.52 10 21 10ZM21 23C19.34 23 18 21.66 18 20C18 18.34 19.34 17 21 17C22.66 17 24 18.34 24 20C24 21.66 22.66 23 21 23Z" fill="black"/>
</svg>
