<svg width="41" height="40" viewBox="0 0 41 40" fill="none" xmlns="http://www.w3.org/2000/svg">
<path d="M5.90452 8.19662C4.60492 8.90388 2.42736 10.9074 2.42736 12.384C2.15958 13.5141 1.091 16.7707 1.091 17.1778C1.091 17.5849 0.88625 19.3588 1.091 20.638C1.27244 21.7716 2.00766 22.3847 2.42736 23.284C2.83698 24.1618 2.54688 25.5356 3.01445 26.3371C3.52821 27.2178 4.9379 28.9831 4.9379 28.9831C4.9379 28.9831 6.31055 30.58 6.86135 31.6291C7.7138 33.2528 10.3722 34.6823 11.9967 35.5924C12.5663 35.9115 12.7868 36.532 13.5342 36.7692C14.0882 36.9451 14.5959 37.3086 15.1003 37.5629C16.0604 38.047 17.5162 38.4984 18.5918 38.7261C21.254 39.2895 23.8442 38.8657 26.4801 38.5071C31.8947 37.7705 37.0112 33.318 38.837 28.4492C40.7513 23.3444 40.1247 17.3888 38.2479 12.384C37.4468 10.2479 36.8455 7.70102 35.5322 5.7882C34.3385 4.04949 32.2158 3.45073 30.6757 1.98399C29.2904 0.664671 26.1072 1.05346 24.2817 1.05346C21.3176 1.05346 18.5717 2.16616 15.7469 2.76399C14.3512 3.05937 13.0938 3.88667 11.7381 4.25557C10.8153 4.50666 9.08994 5.19823 8.57705 5.97978C8.18315 6.58001 6.58118 7.82837 5.90452 8.19662Z" stroke="#E2DABF" stroke-width="2" stroke-linecap="round"/>
<g clip-path="url(#clip0_341_5)">
<mask id="mask0_341_5" style="mask-type:alpha" maskUnits="userSpaceOnUse" x="9" y="8" width="24" height="24">
<path d="M9 8H33V32H9V8Z" fill="white"/>
</mask>
<g mask="url(#mask0_341_5)">
<path fill-rule="evenodd" clip-rule="evenodd" d="M9 20.067C9 26.033 13.333 30.994 19 32V23.333H16V20H19V17.333C19 14.333 20.933 12.667 23.667 12.667C24.533 12.667 25.467 12.8 26.333 12.933V16H24.8C23.333 16 23 16.733 23 17.667V20H26.2L25.667 23.333H23V32C28.667 30.994 33 26.034 33 20.067C33 13.43 27.6 8 21 8C14.4 8 9 13.43 9 20.067Z" fill="black"/>
</g>
</g>
<defs>
<clipPath id="clip0_341_5">
<rect width="24" height="24" fill="white" transform="translate(9 8)"/>
</clipPath>
</defs>
</svg>
