<svg width="41" height="40" viewBox="0 0 41 40" fill="none" xmlns="http://www.w3.org/2000/svg">
<path d="M35.0955 8.19662C36.3951 8.90388 38.5726 10.9074 38.5726 12.384C38.8404 13.5141 39.909 16.7707 39.909 17.1778C39.909 17.5849 40.1138 19.3588 39.909 20.638C39.7276 21.7716 38.9923 22.3847 38.5726 23.284C38.163 24.1618 38.4531 25.5356 37.9855 26.3371C37.4718 27.2178 36.0621 28.9831 36.0621 28.9831C36.0621 28.9831 34.6894 30.58 34.1386 31.6291C33.2862 33.2528 30.6278 34.6823 29.0033 35.5924C28.4337 35.9115 28.2132 36.532 27.4658 36.7692C26.9118 36.9451 26.4041 37.3086 25.8997 37.5629C24.9396 38.047 23.4838 38.4984 22.4082 38.7261C19.746 39.2895 17.1558 38.8657 14.5199 38.5071C9.1053 37.7705 3.9888 33.318 2.16303 28.4492C0.248718 23.3444 0.875314 17.3888 2.75214 12.384C3.55315 10.2479 4.15454 7.70102 5.46777 5.7882C6.66146 4.04949 8.78422 3.45073 10.3243 1.98399C11.7096 0.664671 14.8928 1.05346 16.7183 1.05346C19.6824 1.05346 22.4283 2.16616 25.2531 2.76399C26.6488 3.05937 27.9062 3.88667 29.2619 4.25557C30.1847 4.50666 31.9101 5.19823 32.423 5.97978C32.8169 6.58001 34.4188 7.82837 35.0955 8.19662Z" stroke="#E2DABF" stroke-width="2" stroke-linecap="round"/>
<g clip-path="url(#clip0_341_3)">
<path d="M20 8C13.37 8 8 13.37 8 20C8 25.31 11.435 29.795 16.205 31.385C16.805 31.49 17.03 31.13 17.03 30.815C17.03 30.53 17.015 29.585 17.015 28.58C14 29.135 13.22 27.845 12.98 27.17C12.845 26.825 12.26 25.76 11.75 25.475C11.33 25.25 10.73 24.695 11.735 24.68C12.68 24.665 13.355 25.55 13.58 25.91C14.66 27.725 16.385 27.215 17.075 26.9C17.18 26.12 17.495 25.595 17.84 25.295C15.17 24.995 12.38 23.96 12.38 19.37C12.38 18.065 12.845 16.985 13.61 16.145C13.49 15.845 13.07 14.615 13.73 12.965C13.73 12.965 14.735 12.65 17.03 14.195C17.99 13.925 19.01 13.79 20.03 13.79C21.05 13.79 22.07 13.925 23.03 14.195C25.325 12.635 26.33 12.965 26.33 12.965C26.99 14.615 26.57 15.845 26.45 16.145C27.215 16.985 27.68 18.05 27.68 19.37C27.68 23.975 24.875 24.995 22.205 25.295C22.64 25.67 23.015 26.39 23.015 27.515C23.015 29.12 23 30.41 23 30.815C23 31.13 23.225 31.505 23.825 31.385C26.2073 30.581 28.2775 29.05 29.744 27.0076C31.2106 24.9653 31.9996 22.5144 32 20C32 13.37 26.63 8 20 8Z" fill="black"/>
</g>
<defs>
<clipPath id="clip0_341_3">
<rect width="24" height="24" fill="white" transform="translate(8 8)"/>
</clipPath>
</defs>
</svg>
