<svg width="24" height="24" viewBox="0 0 24 24" fill="none" xmlns="http://www.w3.org/2000/svg">
<path opacity="0.7" d="M17.5766 15.3294C16.5153 16.9309 15.2588 17.9962 13.8351 19.3091C13.4069 19.5212 11.6655 20.9765 11 21.5C10.4817 21.1129 9.10854 19.1751 9.00002 19C8.44439 18.1033 8.22615 17.3184 7.50002 16.5C6.69568 15.5935 6.62038 15.0297 6.00002 14C5.61613 13.3628 5.24847 12.1874 5 11.5C4.75908 10.8335 5.00002 10.2386 5.00002 9.54773C5.00002 8.01095 5.3097 6.13382 6.66703 5.1325C9.17222 3.28439 13.2292 2.09822 15.7777 3.8767C17.055 4.76805 17.8329 6.3824 18.7065 7.54599C19.281 8.3112 18.862 10.9164 18.7065 11.7767C18.5057 12.888 18.2215 14.3563 17.5766 15.3294Z" stroke="black" stroke-width="1.2" stroke-linecap="round"/>
<path opacity="0.7" d="M14.3122 10.2812C14.1599 10.5426 14.0482 10.8889 13.8412 11.1121C13.6632 11.3039 12.7391 12 12.4442 12C11.937 12 11.4079 11.9776 10.9509 11.7559C10.6649 11.6172 10.2987 11.5022 10.0651 11.2756C9.92005 11.1349 9.72068 10.6984 9.69847 10.5045C9.68379 10.3763 9.59977 10.2321 9.55396 10.1099C9.49562 9.95426 9.50579 9.80566 9.50579 9.63996C9.50579 9.39972 9.49277 9.15557 9.50579 8.91559C9.51695 8.70989 9.66029 8.43164 9.74664 8.24315C9.77955 8.17132 9.77724 8.06928 9.82158 8.00169C10.0617 7.63563 10.4641 7.4642 10.8546 7.27992C11.6628 6.89845 12.4749 6.95066 13.3113 7.17607C14.0439 7.37348 14.2636 8.03645 14.4567 8.69231C14.5474 9.00009 14.4674 9.43817 14.4674 9.75679C14.4674 9.91182 14.39 10.1477 14.3122 10.2812Z" stroke="black" stroke-width="1.2" stroke-linecap="round"/>
</svg>
