<svg width="322" height="87" viewBox="0 0 322 87" fill="none" xmlns="http://www.w3.org/2000/svg">
<path d="M87.4226 12.0343H90.8097L91.0976 12.3258L91.3855 12.0343H96.771C102.597 12.0343 106.182 17.0981 107.525 27.2257V28.083C107.525 33.2954 104.883 37.7876 99.5992 41.5597C97.6121 42.5199 95.2525 43 92.5202 43C88.1734 42.76 86 41.9941 86 40.7024L86.2879 38.6963V22.0647L86.5589 20.9159L86.2879 19.7671C86.2879 14.6119 86.6661 12.0343 87.4226 12.0343ZM92.5202 19.2013C92.8928 20.0586 93.0791 21.2989 93.0791 22.922V30.9635L93.6549 31.5293H95.6363C97.8267 31.5293 99.2379 30.1919 99.8702 27.5171V26.6598C98.8654 21.4932 97.2621 18.9098 95.0605 18.9098H94.5016L92.5202 19.2013Z" fill="black"/>
<path d="M132.59 12.2229H133.961C134.402 12.2229 134.769 12.9602 135.062 14.4347C135.062 16.6637 132.962 17.7782 128.762 17.7782L128.491 18.0525H128.22C128.762 32.2266 129.22 39.8051 129.592 40.7882C129.592 41.8169 127.949 42.5542 124.664 43H116.992C114.802 43 113.069 42.1656 111.793 40.4967C109.411 39.788 108.219 38.3134 108.219 36.073L107.677 31.9065V29.6947C108.163 26.5513 109.078 24.9795 110.421 24.9795C112.973 24.9795 114.248 26.8256 114.248 30.5177C114.248 34.587 115.801 36.6217 118.906 36.6217L119.177 36.3473L120.549 23.3164V19.4414L120.007 18.8756C118.9 19.4357 117.257 19.7157 115.078 19.7157L114.79 19.4414V18.0525C115.174 14.5319 116.546 12.7716 118.906 12.7716C121.717 12.4058 126.278 12.2229 132.59 12.2229Z" fill="black"/>
<path d="M146.782 12.1543H152.76C154.916 12.1543 156.627 14.269 157.891 18.4983C162.633 28.5573 165.004 35.8615 165.004 40.4109C165.388 40.4109 165.58 40.891 165.58 41.8512L164.733 43L161.312 42.7085H156.469C155.995 42.7085 155.328 40.4967 154.47 36.073L154.199 35.7987C154.199 34.8385 153.341 34.3584 151.625 34.3584C149.796 33.7754 148.091 33.484 146.511 33.484C145.37 33.8154 144.8 34.9699 144.8 36.9475C144.371 36.9475 143.897 37.9076 143.378 39.828C142.237 41.7255 141.475 42.6857 141.091 42.7085H139.381L138.246 42.417L137.399 42.7085C135.706 42.7085 134.47 42.2284 133.69 41.2683V40.9768C133.69 38.382 137.298 29.8319 144.512 15.3263C145.449 13.3717 146.206 12.3143 146.782 12.1543ZM150.491 21.0874L147.933 27.4314V27.7229C147.933 28.4316 149.542 28.9117 152.76 29.1632L153.048 28.8717V28.5802L151.066 21.0874H150.491Z" fill="black"/>
<path d="M169.018 12.1543H169.814C172.682 12.5887 175.329 13.5374 177.757 15.0006L180.941 20.4358H181.212C181.212 16.0808 181.917 13.4117 183.329 12.4287C186.682 12.4287 188.358 13.0973 188.358 14.4347L190.204 36.9989V39.2793L190.475 40.4281C190.058 41.7655 188.996 42.4342 187.291 42.4342H183.854C182.442 42.4342 181.737 41.6683 181.737 40.1366V35.01C181.737 33.6154 181.031 32.5638 179.62 31.8551C178.333 28.8831 176.656 26.5055 174.59 24.7223V24.9967L175.115 41.8512C174.347 42.6171 172.936 43 170.881 43H168.493C166.901 43 166.105 42.3313 166.105 40.9939V25.854C166.929 17.3381 167.9 12.7716 169.018 12.1543Z" fill="black"/>
<path d="M203.431 12.1372H206.818C207.947 12.1372 208.512 12.8973 208.512 14.4176L208.8 16.1322C208.021 18.224 206.705 19.2699 204.854 19.2699L204.566 18.9956H204.278C200.699 21.4189 198.909 23.4192 198.909 24.9967C200.174 29.569 202.155 31.8551 204.854 31.8551H206.259C209.082 31.8551 210.493 30.1405 210.493 26.7113H210.205L205.971 28.9917H205.125C203.284 28.9917 202.251 27.66 202.025 24.9967C202.025 22.7563 204.662 20.9445 209.934 19.5614H210.781C212.904 19.5614 215.162 21.276 217.555 24.7052L218.114 26.9856V28.1344C218.114 33.2211 215.76 37.6047 211.052 41.2854C209.517 42.4285 207.733 43 205.7 43C200.179 43 195.567 39.9537 191.864 33.8612C191.108 32.5466 190.729 31.4036 190.729 30.432V26.1283C190.729 20.9274 193.456 16.738 198.909 13.5603L203.431 12.1372Z" fill="black"/>
<path d="M231.138 12.1372H234.813C239.645 12.1372 243.128 15.9436 245.262 23.5564L245.821 28.4259C245.821 33.2039 243.467 37.4904 238.759 41.2854C237.223 42.4285 235.439 43 233.407 43C227.886 43 223.274 39.9537 219.571 33.8612C218.814 32.5466 218.436 31.4036 218.436 30.432V26.1283C218.436 20.9274 221.163 16.738 226.616 13.5603L231.138 12.1372ZM226.159 26.0083C227.355 30.3177 229.224 32.4723 231.764 32.4723H233.085C235.151 32.4723 236.484 31.215 237.082 28.7002V27.8944C236.134 23.0363 234.626 20.6073 232.56 20.6073H232.018C229.839 20.6073 227.886 22.3162 226.159 25.734V26.0083Z" fill="black"/>
<path d="M260.961 12H262.926C264.8 13.566 265.737 15.7493 265.737 18.5498C265.443 18.927 263.479 19.7786 259.843 21.1045C256.84 22.8191 255.339 25.1853 255.339 28.203C255.339 31.4722 258.618 33.9412 265.178 35.6101L265.466 35.8844V37.599C264.043 41.1997 262.638 43 261.249 43C256.801 43 252.397 40.6281 248.039 35.8844C246.73 33.8383 246.075 32.2266 246.075 31.0492V26.797C246.075 21.8361 248.694 17.5667 253.933 13.9889C256.225 12.663 258.568 12 260.961 12Z" fill="black"/>
<path d="M278.693 12.1372H282.368C287.2 12.1372 290.683 15.9436 292.817 23.5564L293.376 28.4259C293.376 33.2039 291.022 37.4904 286.314 41.2854C284.778 42.4285 282.994 43 280.962 43C275.441 43 270.829 39.9537 267.126 33.8612C266.369 32.5466 265.991 31.4036 265.991 30.432V26.1283C265.991 20.9274 268.718 16.738 274.171 13.5603L278.693 12.1372ZM273.714 26.0083C274.91 30.3177 276.779 32.4723 279.319 32.4723H280.64C282.706 32.4723 284.039 31.215 284.637 28.7002V27.8944C283.689 23.0363 282.181 20.6073 280.115 20.6073H279.573C277.394 20.6073 275.441 22.3162 273.714 25.734V26.0083Z" fill="black"/>
<path d="M296.543 12.1543H297.339C300.206 12.5887 302.854 13.5374 305.281 15.0006L308.465 20.4358H308.736C308.736 16.0808 309.442 13.4117 310.853 12.4287C314.206 12.4287 315.883 13.0973 315.883 14.4347L317.729 36.9989V39.2793L318 40.4281C317.582 41.7655 316.521 42.4342 314.816 42.4342H311.378C309.967 42.4342 309.261 41.6683 309.261 40.1366V35.01C309.261 33.6154 308.556 32.5638 307.144 31.8551C305.857 28.8831 304.181 26.5055 302.114 24.7223V24.9967L302.639 41.8512C301.872 42.6171 300.46 43 298.406 43H296.018C294.426 43 293.63 42.3313 293.63 40.9939V25.854C294.454 17.3381 295.425 12.7716 296.543 12.1543Z" fill="black"/>
<path d="M99.1703 50.1543H105.185C107.354 50.1543 109.075 52.269 110.347 56.4983C115.118 66.5573 117.503 73.8615 117.503 78.4109C117.889 78.4109 118.082 78.891 118.082 79.8512L117.23 81L113.789 80.7085H108.916C108.439 80.7085 107.769 78.4967 106.905 74.073L106.633 73.7987C106.633 72.8385 105.77 72.3584 104.043 72.3584C102.203 71.7754 100.488 71.484 98.8976 71.484C97.7504 71.8154 97.1768 72.9699 97.1768 74.9475C96.7452 74.9475 96.2681 75.9076 95.7457 77.828C94.5984 79.7255 93.8317 80.6857 93.4455 80.7085H91.7247L90.5832 80.417L89.7313 80.7085C88.0275 80.7085 86.7837 80.2284 86 79.2683V78.9768C86 76.382 89.6291 67.8319 96.8872 53.3263C97.83 51.3717 98.591 50.3143 99.1703 50.1543ZM102.902 59.0874L100.329 65.4314V65.7229C100.329 66.4316 101.947 66.9117 105.185 67.1632L105.474 66.8717V66.5802L103.481 59.0874H102.902Z" fill="black"/>
<path d="M136.722 50.3258H138.153L139.022 50.9087C138.783 54.3837 138.21 56.1211 137.301 56.1211C131.36 56.6469 128.39 57.4185 128.39 58.4358V59.0188L128.68 59.3103L128.39 60.7506V62.4823L129.242 62.7738C130.105 62.3851 131.355 62.1908 132.99 62.1908H135.291L136.142 63.0653V65.38C136.142 66.9231 134.422 67.6947 130.98 67.6947C129.253 67.6947 128.39 68.3691 128.39 69.7179V75.7876L128.101 78.9768L128.39 80.417L127.521 81H126.38C121.2 80.0513 118.61 78.2166 118.61 75.4961V75.2218C118.61 64.0654 119.854 56.2526 122.342 51.7832C126.601 50.8116 131.395 50.3258 136.722 50.3258Z" fill="black"/>
<path d="M140.606 50.2229H149.67C155.52 51.8346 158.445 54.778 158.445 59.0531C158.445 61.9336 156.843 64.4998 153.64 66.7517V67.3175C156.537 69.6608 159.365 72.9871 162.125 77.2965V77.5879C159.297 79.474 157.031 80.5142 155.327 80.7085L147.694 69.5979L146.842 69.3236L147.115 69.5979L146.842 71.021V71.3125L147.694 79.2854C147.694 80.2341 147.126 80.7085 145.99 80.7085V81C141.458 80.8171 139.192 80.057 139.192 78.7196L139.482 76.7306V60.2019L139.754 59.0531L139.482 57.9215C139.482 52.7891 139.857 50.2229 140.606 50.2229ZM145.99 57.0642L146.28 62.4823L146.553 62.7566H146.842C148.978 61.8079 150.579 60.3848 151.647 58.4873V58.1958C150.59 56.2983 149.273 55.3496 147.694 55.3496H146.842C146.467 55.3496 146.183 55.9211 145.99 57.0642Z" fill="black"/>
<path d="M163.318 50.2229H167.322C169.605 50.2229 170.746 51.9489 170.746 55.401L173.319 79.8512V80.1427C173.137 80.7142 172.569 81 171.615 81H169.894C166.975 81 164.499 79.9427 162.466 77.828V51.0802L163.318 50.2229Z" fill="black"/>
<path d="M188.857 50H190.834C192.719 51.566 193.662 53.7493 193.662 56.5498C193.367 56.927 191.39 57.7786 187.733 59.1045C184.712 60.8191 183.201 63.1853 183.201 66.203C183.201 69.4722 186.501 71.9412 193.1 73.6101L193.39 73.8844V75.599C191.958 79.1997 190.544 81 189.147 81C184.672 81 180.242 78.6281 175.858 73.8844C174.54 71.8383 173.881 70.2266 173.881 69.0492V64.797C173.881 59.8361 176.516 55.5667 181.787 51.9889C184.093 50.663 186.449 50 188.857 50Z" fill="black"/>
<path d="M207.088 50.1543H213.102C215.272 50.1543 216.993 52.269 218.265 56.4983C223.035 66.5573 225.421 73.8615 225.421 78.4109C225.807 78.4109 226 78.891 226 79.8512L225.148 81L221.706 80.7085H216.834C216.357 80.7085 215.686 78.4967 214.823 74.073L214.551 73.7987C214.551 72.8385 213.687 72.3584 211.961 72.3584C210.121 71.7754 208.406 71.484 206.815 71.484C205.668 71.8154 205.095 72.9699 205.095 74.9475C204.663 74.9475 204.186 75.9076 203.663 77.828C202.516 79.7255 201.749 80.6857 201.363 80.7085H199.642L198.501 80.417L197.649 80.7085C195.945 80.7085 194.701 80.2284 193.918 79.2683V78.9768C193.918 76.382 197.547 67.8319 204.805 53.3263C205.748 51.3717 206.509 50.3143 207.088 50.1543ZM210.819 59.0874L208.247 65.4314V65.7229C208.247 66.4316 209.865 66.9117 213.102 67.1632L213.392 66.8717V66.5802L211.399 59.0874H210.819Z" fill="black"/>
<path d="M56.706 13.3518C58.896 14.7965 59.8998 18.7693 60.1279 20.5751C60.28 21.1018 61.451 25.7218 62.181 28.25C63.0935 31.4102 63.0935 32.9902 68.7966 33.216C73.3591 33.3966 72.0664 36.1504 70.8498 37.5048C67.58 41.1165 60.9491 48.5203 60.5841 49.2427C60.1279 50.1456 60.1279 59.1747 59.4435 61.8834C58.7591 64.5921 54.4248 68.4295 53.2841 70.9125C52.1435 73.3955 50.7748 76.7814 44.3873 81.0703C37.9998 85.3591 34.3498 73.6213 33.6654 70.0096C33.1179 67.1203 33.4373 59.5509 33.6654 57.1431C33.6654 55.7888 33.4373 51.4999 32.0685 50.3713C30.6998 49.2427 30.0154 44.7281 28.8748 43.3737C27.7341 42.0194 27.506 41.3422 24.7685 40.2135C22.031 39.0849 21.5748 42.4708 14.0466 42.2451C6.51851 42.0194 4.23725 29.8301 4.00913 26.4441C3.781 23.0582 7.88725 19.898 9.71226 17.8665C11.5373 15.8349 11.7654 15.6092 12.2216 13.3519C12.6779 11.0947 13.8185 9.51456 15.1873 8.38592C16.556 7.25728 19.7498 7.03155 22.2591 7.03155C24.7685 7.03155 26.8216 5 29.1029 5C31.3841 5 33.8935 11.7717 36.631 11.9975C39.3685 12.2232 42.5623 10.8688 44.3873 11.0946C46.2123 11.3203 53.9685 11.546 56.706 13.3518Z" stroke="black" stroke-width="3"/>
<path d="M70.3935 64.1407C70.0285 65.9465 70.8498 68.2038 71.306 69.1067C71.5341 69.5582 71.5341 71.0931 69.7092 73.6213C67.4279 76.7814 65.831 75.4271 63.5498 73.6213C61.2685 71.8154 62.8654 70.0096 63.5498 67.9781C64.2341 65.9465 62.181 65.4951 66.2873 60.529C70.3935 55.563 70.8498 61.8834 70.3935 64.1407Z" stroke="black" stroke-width="3"/>
<path d="M47.6099 20.5081C46.6335 20.27 45.6732 20 44.6631 20C42.7644 20 40.5046 20.0679 38.6714 20.6428C38.1401 20.8094 37.6169 20.9845 37.0867 21.1726C36.6055 21.3434 36.1597 21.7218 35.7246 21.8762C35.1166 22.0919 34.7252 22.5573 34.2289 22.8925C33.6135 23.3082 32.9969 23.9166 32.564 24.5168C32.131 25.1172 31.4131 25.7675 31.2019 26.4886C31.1268 26.7451 30.9505 26.9893 30.8636 27.253C30.7121 27.7128 30.6455 28.2084 30.5253 28.6775C30.4051 29.1464 30.4621 29.6401 30.2849 30.0847C30.1171 30.5057 30 31.0396 30 31.4918V34.0108V34.0271C30 34.9699 30 35.7579 30.3561 36.6514C30.7654 37.6782 31.3501 38.6918 31.9631 39.6221C32.1252 39.8681 32.3316 40.1567 32.5818 40.3257C32.7602 40.4462 33.0951 40.5723 33.205 40.76C33.3331 40.9786 33.7311 41.2243 33.9262 41.4202C34.2915 41.787 34.4918 42.2563 34.8432 42.6319C36.1498 44.0282 37.9297 44 39.7754 44C40.6839 44 41.6029 43.9218 42.4997 43.9218C43.3155 43.9218 44.2298 44.0385 45.0281 43.8827C45.7214 43.7474 46.5131 43.7608 47.2227 43.6916C47.6514 43.6498 48.0369 43.4244 48.4112 43.2182C49.4694 42.6354 50.1168 41.789 51.0109 41.0293C52.8504 39.4661 54.1215 37.6371 54.8391 35.3615C55.3284 33.8101 54.5485 32.3333 54.5186 30.7883C54.4857 29.0886 54.5588 27.363 53.9577 25.7503C53.7345 25.1514 52.9588 24.7816 52.5778 24.2997C51.9472 23.5021 51.1352 22.7588 50.4322 22.0326C49.925 21.5086 49.2087 21.3031 48.6694 20.8599C48.3998 20.6384 47.9387 20.5883 47.6099 20.5081Z" fill="black" stroke="black" stroke-linecap="round"/>
<path d="M38.6646 22.8711C38.698 23.1301 38.7056 23.7351 38.6234 24.2584C38.6517 24.3149 38.4921 24.2306 38.4633 24.2218C38.4068 24.2044 38.34 24.176 38.2838 24.176C38.0717 24.176 37.881 24.0176 37.6753 23.9919C37.5553 23.9769 37.4355 23.9139 37.3219 23.8718C37.2454 23.8435 37.138 23.8165 37.0703 23.7735C36.8652 23.6429 36.605 23.5369 36.431 23.3629C36.2294 23.1613 36.0027 22.9703 35.8546 22.7236C35.7017 22.4687 35.5554 22.2189 35.4223 21.9527C35.303 21.7141 35.2377 21.4504 35.1856 21.1899C35.1411 20.9676 35.062 20.7162 35.062 20.49C35.062 20.2138 35.0209 19.9448 35.0209 19.6677C35.0209 19.6106 34.9953 19.5629 34.9808 19.5121C34.963 19.4498 35.0796 19.4844 35.1284 19.4984C35.2363 19.5292 35.3621 19.5238 35.4738 19.5441C35.6141 19.5697 35.7481 19.6061 35.8855 19.6425C36.2308 19.7339 36.5374 19.8931 36.853 20.0588C37.0172 20.145 37.1762 20.2913 37.3124 20.4166L37.3151 20.4191C37.4387 20.5328 37.5766 20.6381 37.6765 20.7747C37.7343 20.8539 37.8151 20.8996 37.8732 20.984L37.8739 20.9851C37.9657 21.1185 38.0556 21.2494 38.1294 21.3969C38.2878 21.7138 38.4807 22.055 38.5457 22.4056C38.5747 22.5623 38.6442 22.7128 38.6646 22.8711Z" fill="#37FECE" stroke="black" stroke-linecap="round"/>
<path d="M38.6646 40.9835C38.698 40.7244 38.7056 40.1195 38.6234 39.5962C38.6517 39.5396 38.4921 39.6239 38.4633 39.6328C38.4068 39.6502 38.34 39.6785 38.2838 39.6785C38.0717 39.6785 37.881 39.837 37.6753 39.8627C37.5553 39.8777 37.4355 39.9407 37.3219 39.9827C37.2454 40.0111 37.138 40.0381 37.0703 40.0811C36.8652 40.2116 36.605 40.3177 36.431 40.4917C36.2294 40.6933 36.0027 40.8842 35.8546 41.131C35.7017 41.3859 35.5554 41.6357 35.4223 41.9018C35.303 42.1405 35.2377 42.4041 35.1856 42.6647C35.1411 42.887 35.062 43.1383 35.062 43.3646C35.062 43.6408 35.0209 43.9098 35.0209 44.1869C35.0209 44.2439 34.9953 44.2917 34.9808 44.3424C34.963 44.4048 35.0796 44.3701 35.1284 44.3562C35.2363 44.3253 35.3621 44.3307 35.4738 44.3104C35.6141 44.2849 35.7481 44.2484 35.8855 44.2121C36.2308 44.1206 36.5374 43.9615 36.853 43.7958C37.0172 43.7096 37.1762 43.5633 37.3124 43.438L37.3151 43.4355C37.4387 43.3217 37.5766 43.2164 37.6765 43.0798C37.7343 43.0007 37.8151 42.955 37.8732 42.8705L37.8739 42.8695C37.9657 42.736 38.0556 42.6052 38.1294 42.4577C38.2878 42.1408 38.4807 41.7995 38.5457 41.4489C38.5747 41.2922 38.6442 41.1418 38.6646 40.9835Z" fill="#37FECE" stroke="black" stroke-linecap="round"/>
<path d="M34.2379 25.8736C34.3984 26.0797 34.7125 26.5968 34.9077 27.0892C34.9609 27.1235 34.7805 27.1321 34.7512 27.1391C34.6938 27.1528 34.6218 27.1624 34.5734 27.191C34.3907 27.2988 34.146 27.2593 33.9558 27.3417C33.8448 27.3898 33.7096 27.3964 33.5904 27.418C33.5101 27.4325 33.4039 27.4638 33.3238 27.4612C33.0808 27.453 32.8028 27.494 32.5645 27.4326C32.2884 27.3615 31.9961 27.3123 31.7431 27.1751C31.4818 27.0334 31.2289 26.8926 30.979 26.7311C30.7549 26.5863 30.5646 26.3924 30.3873 26.1946C30.236 26.0257 30.0401 25.8495 29.9251 25.6546C29.7847 25.4168 29.6125 25.2061 29.4716 24.9674C29.4426 24.9183 29.3963 24.8902 29.3581 24.8538C29.311 24.8092 29.429 24.7798 29.4781 24.767C29.5867 24.7387 29.6923 24.6701 29.7988 24.6308C29.9326 24.5815 30.0665 24.5448 30.2034 24.5062C30.5472 24.4094 30.8921 24.3906 31.2482 24.3728C31.4333 24.3636 31.6447 24.4087 31.8256 24.4474L31.8292 24.4482C31.9935 24.4833 32.1658 24.5038 32.3213 24.5707C32.4113 24.6095 32.5041 24.6077 32.5971 24.6509L32.5982 24.6515C32.745 24.7198 32.889 24.7867 33.0276 24.8762C33.3251 25.0686 33.6647 25.2643 33.8989 25.5333C34.0035 25.6534 34.1399 25.7477 34.2379 25.8736Z" fill="#37FECE" stroke="black" stroke-linecap="round"/>
<path d="M34.2379 37.9809C34.3984 37.7749 34.7125 37.2578 34.9077 36.7654C34.9609 36.731 34.7805 36.7225 34.7512 36.7155C34.6938 36.7017 34.6218 36.6922 34.5734 36.6636C34.3907 36.5558 34.146 36.5953 33.9558 36.5128C33.8448 36.4648 33.7096 36.4581 33.5904 36.4366C33.5101 36.4221 33.4039 36.3907 33.3238 36.3934C33.0808 36.4015 32.8028 36.3605 32.5645 36.4219C32.2884 36.493 31.9961 36.5422 31.7431 36.6794C31.4818 36.8212 31.2289 36.9619 30.979 37.1235C30.7549 37.2683 30.5646 37.4621 30.3873 37.66C30.236 37.8288 30.0401 38.0051 29.9251 38.1999C29.7847 38.4378 29.6125 38.6485 29.4716 38.8871C29.4426 38.9362 29.3963 38.9644 29.3581 39.0007C29.311 39.0453 29.429 39.0747 29.4781 39.0875C29.5867 39.1158 29.6923 39.1844 29.7988 39.2237C29.9326 39.2731 30.0665 39.3098 30.2034 39.3483C30.5472 39.4452 30.8921 39.464 31.2482 39.4817C31.4333 39.491 31.6447 39.4458 31.8256 39.4072L31.8292 39.4064C31.9935 39.3713 32.1658 39.3507 32.3213 39.2838C32.4113 39.2451 32.5041 39.2468 32.5971 39.2036L32.5982 39.2031C32.745 39.1348 32.889 39.0679 33.0276 38.9783C33.3251 38.786 33.6647 38.5902 33.8989 38.3213C34.0035 38.2011 34.1399 38.1069 34.2379 37.9809Z" fill="#37FECE" stroke="black" stroke-linecap="round"/>
<path d="M32.687 31.4213C32.9119 31.5541 33.3937 31.9199 33.756 32.3064C33.818 32.3189 33.6534 32.393 33.6287 32.4102C33.5803 32.4441 33.5168 32.4794 33.4823 32.5237C33.3519 32.691 33.1097 32.7441 32.9631 32.8905C32.8775 32.976 32.7541 33.0317 32.6511 33.0955C32.5817 33.1384 32.4944 33.2066 32.4189 33.2335C32.1899 33.3151 31.9463 33.4551 31.7021 33.4855C31.4192 33.5206 31.1292 33.5821 30.8435 33.5472C30.5485 33.5112 30.2615 33.4731 29.9698 33.4145C29.7082 33.3619 29.4601 33.2514 29.2225 33.1324C29.0198 33.0308 28.773 32.9387 28.5945 32.7996C28.3766 32.6299 28.1391 32.497 27.9205 32.3267C27.8755 32.2916 27.8222 32.2824 27.7732 32.2627C27.7131 32.2384 27.8121 32.1678 27.8531 32.1379C27.9437 32.0717 28.0168 31.9691 28.1014 31.8935C28.2078 31.7985 28.3189 31.7152 28.4321 31.6292C28.7164 31.413 29.0304 31.269 29.3551 31.1218C29.524 31.0453 29.7372 31.0098 29.9197 30.9794L29.9233 30.9788C30.089 30.9512 30.2568 30.9071 30.426 30.9123C30.524 30.9153 30.6097 30.8797 30.712 30.8858L30.7133 30.8858C30.8749 30.8955 31.0334 30.9049 31.1951 30.9374C31.5425 31.0072 31.9302 31.0647 32.2467 31.229C32.3882 31.3024 32.5496 31.3401 32.687 31.4213Z" fill="#37FECE" stroke="black" stroke-linecap="round"/>
<path d="M56.6034 31.4213C56.8282 31.5541 57.3101 31.9199 57.6724 32.3064C57.7344 32.3189 57.5698 32.393 57.5451 32.4102C57.4967 32.4441 57.4332 32.4794 57.3987 32.5237C57.2683 32.691 57.0261 32.7441 56.8795 32.8905C56.7939 32.976 56.6705 33.0317 56.5675 33.0955C56.4981 33.1384 56.4108 33.2066 56.3353 33.2335C56.1063 33.3151 55.8627 33.4551 55.6185 33.4855C55.3356 33.5206 55.0456 33.5821 54.7599 33.5472C54.4649 33.5112 54.1779 33.4731 53.8861 33.4145C53.6246 33.3619 53.3765 33.2514 53.1389 33.1324C52.9362 33.0308 52.6894 32.9387 52.5109 32.7996C52.293 32.6299 52.0555 32.497 51.8369 32.3267C51.7919 32.2916 51.7385 32.2824 51.6896 32.2627C51.6295 32.2384 51.7285 32.1678 51.7695 32.1379C51.8601 32.0717 51.9332 31.9691 52.0178 31.8935C52.1242 31.7985 52.2353 31.7152 52.3485 31.6292C52.6328 31.413 52.9468 31.269 53.2715 31.1218C53.4404 31.0453 53.6536 31.0098 53.8361 30.9794L53.8397 30.9788C54.0054 30.9512 54.1732 30.9071 54.3424 30.9123C54.4403 30.9153 54.5261 30.8797 54.6284 30.8858L54.6297 30.8858C54.7913 30.8955 54.9498 30.9049 55.1115 30.9374C55.4588 31.0072 55.8466 31.0647 56.1631 31.229C56.3045 31.3024 56.4659 31.3401 56.6034 31.4213Z" fill="#37FECE" stroke="black" stroke-linecap="round"/>
<path d="M43.76 21.5818C43.6487 21.8181 43.3293 22.332 42.9783 22.7286C42.9717 22.7915 42.8825 22.6345 42.8631 22.6116C42.8248 22.5665 42.7838 22.5066 42.7364 22.4764C42.5577 22.3622 42.4823 22.126 42.3228 21.9936C42.2298 21.9163 42.1628 21.7987 42.0897 21.7021C42.0405 21.637 41.9645 21.5564 41.9307 21.4838C41.8281 21.2633 41.6659 21.0339 41.613 20.7935C41.5517 20.5151 41.4634 20.2321 41.4715 19.9444C41.4799 19.6473 41.4911 19.3581 41.5223 19.0621C41.5502 18.7968 41.6372 18.5395 41.7335 18.2918C41.8158 18.0805 41.8845 17.8262 42.0063 17.6355C42.155 17.4028 42.2652 17.154 42.4144 16.9204C42.4451 16.8724 42.4493 16.8184 42.4644 16.7678C42.483 16.7057 42.5625 16.7977 42.5961 16.8357C42.6704 16.9198 42.7794 16.983 42.8625 17.0602C42.9671 17.1573 43.0603 17.2601 43.1565 17.3648C43.3983 17.6277 43.5709 17.9269 43.7477 18.2366C43.8396 18.3975 43.8948 18.6065 43.9421 18.7854L43.9431 18.7889C43.986 18.9514 44.0455 19.1143 44.0561 19.2832C44.0622 19.3811 44.1057 19.4631 44.1091 19.5655L44.1092 19.5668C44.1146 19.7286 44.12 19.8873 44.1027 20.0514C44.0656 20.4037 44.0444 20.7951 43.9104 21.1255C43.8504 21.2732 43.828 21.4374 43.76 21.5818Z" fill="#37FECE" stroke="black" stroke-linecap="round"/>
<path d="M43.76 42.2727C43.6487 42.0365 43.3293 41.5226 42.9783 41.1259C42.9717 41.063 42.8825 41.22 42.8631 41.243C42.8248 41.288 42.7838 41.3479 42.7364 41.3782C42.5577 41.4924 42.4823 41.7286 42.3228 41.861C42.2298 41.9382 42.1628 42.0558 42.0897 42.1524C42.0405 42.2175 41.9645 42.2981 41.9307 42.3708C41.8281 42.5912 41.6659 42.8207 41.613 43.061C41.5517 43.3394 41.4634 43.6224 41.4715 43.9101C41.4799 44.2072 41.4911 44.4965 41.5223 44.7924C41.5502 45.0578 41.6372 45.3151 41.7335 45.5627C41.8158 45.774 41.8845 46.0283 42.0063 46.219C42.155 46.4517 42.2652 46.7006 42.4144 46.9341C42.4451 46.9822 42.4493 47.0362 42.4644 47.0867C42.483 47.1489 42.5625 47.0569 42.5961 47.0189C42.6704 46.9348 42.7794 46.8716 42.8625 46.7943C42.9671 46.6973 43.0603 46.5944 43.1565 46.4898C43.3983 46.2268 43.5709 45.9276 43.7477 45.618C43.8396 45.457 43.8948 45.2481 43.9421 45.0692L43.9431 45.0656C43.986 44.9032 44.0455 44.7402 44.0561 44.5713C44.0622 44.4735 44.1057 44.3915 44.1091 44.289L44.1092 44.2878C44.1146 44.1259 44.12 43.9672 44.1027 43.8032C44.0656 43.4509 44.0444 43.0594 43.9104 42.729C43.8504 42.5813 43.828 42.4171 43.76 42.2727Z" fill="#37FECE" stroke="black" stroke-linecap="round"/>
<path d="M48.7226 23.6148C48.4931 23.7395 47.9317 23.9651 47.4141 24.0774C47.3715 24.1242 47.3925 23.9449 47.3904 23.9149C47.3862 23.8559 47.3885 23.7833 47.3682 23.7309C47.2916 23.5331 47.3704 23.2981 47.3201 23.0971C47.2908 22.9797 47.3063 22.8453 47.3045 22.7241C47.3033 22.6425 47.2896 22.5326 47.3053 22.454C47.3529 22.2156 47.3579 21.9347 47.4573 21.7095C47.5725 21.4487 47.6686 21.1683 47.8453 20.9411C48.0277 20.7065 48.2078 20.4798 48.4079 20.2596C48.5874 20.0622 48.8096 19.906 49.0338 19.7633C49.225 19.6416 49.4308 19.4771 49.6418 19.3954C49.8994 19.2956 50.1353 19.1601 50.3938 19.06C50.447 19.0394 50.4823 18.9983 50.5244 18.9665C50.5761 18.9274 50.5858 19.0486 50.5904 19.0991C50.6007 19.2109 50.6511 19.3262 50.6725 19.4377C50.6994 19.5778 50.7138 19.7159 50.7295 19.8572C50.769 20.2122 50.7313 20.5555 50.6908 20.9098C50.6697 21.0939 50.5907 21.2951 50.523 21.4673L50.5217 21.4707C50.4603 21.6271 50.4119 21.7937 50.3205 21.9362C50.2676 22.0187 50.2542 22.1106 50.1964 22.1952L50.1957 22.1963C50.1044 22.33 50.0149 22.4611 49.9039 22.5832C49.6657 22.8454 49.4172 23.1486 49.1137 23.3357C48.978 23.4194 48.8628 23.5385 48.7226 23.6148Z" fill="#37FECE" stroke="black" stroke-linecap="round"/>
<path d="M48.7226 40.2398C48.4931 40.1151 47.9317 39.8895 47.4141 39.7771C47.3715 39.7303 47.3925 39.9097 47.3904 39.9397C47.3862 39.9986 47.3885 40.0712 47.3682 40.1236C47.2916 40.3214 47.3704 40.5565 47.3201 40.7575C47.2908 40.8748 47.3063 41.0093 47.3045 41.1304C47.3033 41.212 47.2896 41.322 47.3053 41.4006C47.3529 41.6389 47.3579 41.9199 47.4573 42.145C47.5725 42.4058 47.6686 42.6862 47.8453 42.9134C48.0277 43.1481 48.2078 43.3747 48.4079 43.5949C48.5874 43.7924 48.8096 43.9485 49.0338 44.0912C49.225 44.213 49.4308 44.3775 49.6418 44.4592C49.8994 44.5589 50.1353 44.6945 50.3938 44.7946C50.447 44.8152 50.4823 44.8562 50.5244 44.8881C50.5761 44.9272 50.5858 44.806 50.5904 44.7554C50.6007 44.6437 50.6511 44.5283 50.6725 44.4168C50.6994 44.2768 50.7138 44.1387 50.7295 43.9974C50.769 43.6424 50.7313 43.299 50.6908 42.9448C50.6697 42.7606 50.5907 42.5595 50.523 42.3872L50.5217 42.3838C50.4603 42.2274 50.4119 42.0608 50.3205 41.9184C50.2676 41.8359 50.2542 41.744 50.1964 41.6593L50.1957 41.6583C50.1044 41.5245 50.0149 41.3934 49.9039 41.2713C49.6657 41.0092 49.4172 40.706 49.1137 40.5188C48.978 40.4352 48.8628 40.316 48.7226 40.2398Z" fill="#37FECE" stroke="black" stroke-linecap="round"/>
<path d="M52.2606 27.5728C51.9994 27.5721 51.3987 27.5006 50.8906 27.3507C50.8308 27.3714 50.9353 27.2241 50.9478 27.1967C50.9724 27.143 51.0093 27.0804 51.0166 27.0247C51.0443 26.8144 51.2263 26.646 51.2787 26.4455C51.3092 26.3285 51.3873 26.218 51.4439 26.1109C51.482 26.0387 51.5228 25.9357 51.5743 25.8743C51.7305 25.688 51.8696 25.4438 52.0649 25.2941C52.2911 25.1205 52.51 24.9207 52.774 24.8061C53.0467 24.6878 53.3134 24.5754 53.5947 24.4782C53.8469 24.3911 54.1168 24.3608 54.3819 24.3431C54.6082 24.3281 54.8676 24.2826 55.092 24.3121C55.3658 24.3482 55.6379 24.3425 55.9126 24.3787C55.9692 24.3862 56.0199 24.3671 56.0721 24.3594C56.1362 24.3498 56.0866 24.4609 56.0664 24.5074C56.0217 24.6104 56.0106 24.7358 55.9759 24.8439C55.9323 24.9797 55.8786 25.1077 55.8246 25.2392C55.6889 25.5696 55.491 25.8528 55.2855 26.1441C55.1786 26.2956 55.0127 26.4341 54.8708 26.5528L54.868 26.5551C54.739 26.6628 54.6166 26.7858 54.4681 26.867C54.3821 26.914 54.3262 26.9881 54.2349 27.0346L54.2338 27.0352C54.0895 27.1087 53.948 27.1808 53.7921 27.2347C53.4573 27.3504 53.0937 27.4971 52.7376 27.5156C52.5785 27.5239 52.4202 27.5732 52.2606 27.5728Z" fill="#37FECE" stroke="black" stroke-linecap="round"/>
<path d="M52.2606 36.2814C51.9994 36.2821 51.3987 36.3536 50.8906 36.5035C50.8308 36.4828 50.9353 36.6301 50.9478 36.6574C50.9724 36.7112 51.0093 36.7738 51.0166 36.8295C51.0443 37.0398 51.2263 37.2081 51.2787 37.4087C51.3092 37.5257 51.3873 37.6362 51.4439 37.7433C51.482 37.8155 51.5228 37.9185 51.5743 37.9799C51.7305 38.1662 51.8696 38.4103 52.0649 38.5601C52.2911 38.7337 52.51 38.9335 52.774 39.0481C53.0467 39.1664 53.3134 39.2788 53.5947 39.376C53.8469 39.4631 54.1168 39.4934 54.3819 39.511C54.6082 39.5261 54.8676 39.5716 55.092 39.5421C55.3658 39.506 55.6379 39.5117 55.9126 39.4755C55.9692 39.468 56.0199 39.4871 56.0721 39.4948C56.1362 39.5043 56.0866 39.3933 56.0664 39.3468C56.0217 39.2438 56.0106 39.1184 55.9759 39.0103C55.9323 38.8745 55.8786 38.7465 55.8246 38.615C55.6889 38.2845 55.491 38.0014 55.2855 37.7101C55.1786 37.5586 55.0127 37.42 54.8708 37.3014L54.868 37.2991C54.739 37.1913 54.6166 37.0684 54.4681 36.9872C54.3821 36.9402 54.3262 36.8661 54.2349 36.8195L54.2338 36.819C54.0895 36.7455 53.948 36.6734 53.7921 36.6195C53.4573 36.5038 53.0937 36.3571 52.7376 36.3385C52.5785 36.3302 52.4202 36.281 52.2606 36.2814Z" fill="#37FECE" stroke="black" stroke-linecap="round"/>
<path d="M47.088 22.4235C46.3068 22.225 45.5386 22 44.7305 22C43.2115 22 41.4037 22.0566 39.9371 22.5357C39.512 22.6745 39.0935 22.8205 38.6694 22.9772C38.2844 23.1195 37.9278 23.4349 37.5797 23.5635C37.0933 23.7433 36.7802 24.131 36.3831 24.4104C35.8908 24.7568 35.3975 25.2639 35.0512 25.764C34.7048 26.2643 34.1305 26.8062 33.9615 27.4072C33.9014 27.6209 33.7604 27.8244 33.6909 28.0441C33.5697 28.4273 33.5164 28.8403 33.4202 29.2313C33.3241 29.622 33.3697 30.0335 33.2279 30.4039C33.0937 30.7548 33 31.1997 33 31.5765V33.6757V33.6893C33 34.4749 33 35.1316 33.2849 35.8762C33.6123 36.7318 34.0801 37.5765 34.5705 38.3518C34.7002 38.5568 34.8653 38.7972 35.0655 38.9381C35.2082 39.0385 35.4761 39.1436 35.564 39.3C35.6665 39.4822 35.9849 39.6869 36.1409 39.8501C36.4332 40.1559 36.5934 40.547 36.8745 40.8599C37.9199 42.0235 39.3437 42 40.8203 42C41.5471 42 42.2823 41.9348 42.9997 41.9348C43.6524 41.9348 44.3838 42.0321 45.0225 41.9022C45.5771 41.7895 46.2105 41.8007 46.7781 41.743C47.1211 41.7081 47.4295 41.5203 47.729 41.3485C48.5755 40.8628 49.0935 40.1575 49.8087 39.5244C51.2803 38.2218 52.2972 36.6976 52.8713 34.8013C53.2627 33.5084 52.6388 32.2777 52.6149 30.9902C52.5886 29.5738 52.647 28.1359 52.1662 26.7919C51.9876 26.2929 51.3671 25.9847 51.0622 25.5831C50.5577 24.9184 49.9081 24.299 49.3457 23.6938C48.94 23.2572 48.367 23.0859 47.9355 22.7166C47.7198 22.532 47.3509 22.4903 47.088 22.4235Z" fill="black" stroke="black" stroke-linecap="round"/>
<path fill-rule="evenodd" clip-rule="evenodd" d="M42.6917 41.2228C45.4796 39.0726 47.2756 35.699 47.2756 31.9059C47.2756 28.1128 45.4796 24.7391 42.6917 22.5889C39.9037 24.7391 38.1078 28.1128 38.1078 31.9059C38.1078 35.699 39.9037 39.0726 42.6917 41.2228Z" fill="#A6ADBC"/>
<path fill-rule="evenodd" clip-rule="evenodd" d="M36.4137 38.3834C39.8287 38.7501 43.3736 37.6246 45.9914 35.0069C48.609 32.3893 49.7345 28.8445 49.3679 25.4297C45.9529 25.0629 42.408 26.1884 39.7903 28.8062C37.1726 31.4238 36.0471 34.9685 36.4137 38.3834Z" fill="#A6ADBC"/>
<path fill-rule="evenodd" clip-rule="evenodd" d="M52.0512 31.9065C49.8957 34.5805 46.5933 36.2913 42.8913 36.2913C39.1893 36.2913 35.8869 34.5805 33.7314 31.9065C35.8869 29.2325 39.1893 27.5218 42.8913 27.5218C46.5933 27.5218 49.8957 29.2325 52.0512 31.9065Z" fill="#A6ADBC"/>
<path fill-rule="evenodd" clip-rule="evenodd" d="M49.5039 38.3679C46.0472 38.7796 42.4428 37.6592 39.7903 35.0067C37.1381 32.3545 36.0177 28.7505 36.4291 25.2941C39.9074 24.8606 43.5258 25.9671 46.1783 28.6196C48.8305 31.2719 49.937 34.8898 49.5039 38.3679Z" fill="#A6ADBC"/>
<path d="M45.0835 25.1303C45.0835 24.7344 44.9476 24.5145 44.7318 24.2042C44.5807 23.9871 44.3695 23.8144 44.2191 23.5971C43.9983 23.2781 43.6344 23.0105 43.2905 22.8354C43.1346 22.7559 42.9696 22.6566 42.7976 22.6136C42.7177 22.5936 42.5997 22.4848 42.555 22.5741C42.5033 22.6775 42.344 22.758 42.2587 22.831C42.1902 22.8895 42.1248 22.9637 42.0556 23.0176C41.8758 23.1574 41.7012 23.3126 41.5562 23.494C41.3101 23.8015 40.939 23.9702 40.7527 24.3326C40.6819 24.4702 40.5826 24.5914 40.5145 24.7278C40.452 24.8526 40.4599 25.048 40.3707 25.1471C40.2723 25.2563 40.4129 25.3168 40.2126 25.2096C39.7184 24.9453 39.0629 24.9726 38.5064 24.931C37.8111 24.879 37.1766 25.1822 36.5134 25.3296" stroke="#37FECE" stroke-width="2" stroke-linecap="round"/>
<path d="M36.5445 25.6066C36.5316 25.8003 36.4102 25.9807 36.336 26.1554C36.2783 26.2911 36.2173 26.4293 36.1735 26.5703C36.1473 26.6549 36.1504 26.7911 36.1494 26.8755C36.1457 27.1698 36.1438 27.4659 36.1494 27.7602C36.1559 28.1087 36.2596 28.4699 36.3711 28.792C36.4335 28.9724 36.5245 29.1426 36.5841 29.3211" stroke="#37FECE" stroke-width="2" stroke-linecap="round"/>
<path d="M36.762 29.4593C36.3282 29.4593 35.9263 29.6944 35.571 29.9225C35.31 30.0901 35.122 30.3099 34.8971 30.5153C34.6829 30.7108 34.5457 31.0035 34.3614 31.2288C34.2737 31.3359 34.2221 31.4751 34.1342 31.5734C34.0906 31.6221 34.0774 31.6907 34.0398 31.7359C33.9721 31.8171 33.8773 32.1138 33.8773 32.0081" stroke="#37FECE" stroke-width="2" stroke-linecap="round"/>
<path d="M36.9994 34.3821C37.0258 34.3996 37.05 34.4158 37.0233 34.3944C37.0161 34.3887 37.0081 34.3848 36.9994 34.3821Z" fill="#A6ADBC"/>
<path d="M33.8773 32.0081C34.1425 32.5678 34.673 32.9568 35.1221 33.356C35.3514 33.5599 35.5917 33.7075 35.8641 33.8456C35.9757 33.9021 36.0763 33.9765 36.1934 34.0234C36.3732 34.0953 36.5487 34.176 36.7225 34.2605C36.8003 34.2983 36.8886 34.3146 36.964 34.3593C36.9882 34.3736 37.0636 34.4266 37.0233 34.3944C36.9915 34.369 36.9415 34.3791 36.9003 34.3791" stroke="#37FECE" stroke-width="2" stroke-linecap="round"/>
<path d="M36.9989 34.3004C36.9878 34.4109 36.8585 34.5471 36.7969 34.6319C36.6918 34.7763 36.5655 34.9127 36.4742 35.0665C36.3605 35.258 36.3282 35.469 36.2777 35.6823C36.2286 35.8898 36.1492 36.0888 36.0999 36.297C36.0437 36.5342 36.0307 36.7688 36.0307 37.0116C36.0307 37.3607 35.994 37.7183 36.09 38.0544C36.1295 38.1929 36.13 38.3911 36.2085 38.5089" stroke="#37FECE" stroke-width="2" stroke-linecap="round"/>
<path d="M36.2087 38.5089C36.5224 38.5089 36.833 38.5484 37.1451 38.5484C37.4517 38.5484 37.7583 38.5484 38.0649 38.5484C38.4339 38.5484 38.8549 38.5559 39.2021 38.42C39.6106 38.2602 40.0354 38.1219 40.4173 37.9008C40.4707 37.8698 40.5142 37.8238 40.5753 37.7932C40.6669 37.7474 40.6058 37.7716 40.5753 37.8174" stroke="#37FECE" stroke-width="2" stroke-linecap="round"/>
<path d="M40.3002 38.0848C40.3002 38.6968 40.6988 39.2806 41.0974 39.6792C41.4322 40.014 41.6227 40.1844 41.8781 40.4249C42.0847 40.6193 42.345 40.8069 42.6103 40.91C42.6701 40.9333 42.7316 40.9511 42.7881 40.9825C42.8389 41.0107 42.8617 41.0571 42.9264 41.0571" stroke="#37FECE" stroke-width="2" stroke-linecap="round"/>
<path d="M42.9268 41.0578C43.0025 41.0157 43.0985 40.9295 43.1529 40.8602C43.267 40.7149 43.4061 40.5875 43.5041 40.4299C43.6389 40.2134 43.808 40.0194 43.963 39.8163C44.0634 39.6847 44.1503 39.5527 44.2462 39.4178C44.455 39.124 44.6343 38.765 44.7489 38.4255C44.8099 38.2449 44.8942 38.0465 44.9212 37.8569C44.9258 37.8253 44.9619 37.7031 44.9619 37.7186" stroke="#37FECE" stroke-width="2" stroke-linecap="round"/>
<path d="M45.0211 37.837C45.246 37.837 45.4656 37.9491 45.6775 38.0149C46.02 38.1212 46.3691 38.2284 46.7291 38.252C47.1142 38.2772 47.496 38.331 47.8816 38.331C48.2009 38.331 48.5976 38.3978 48.8937 38.2827C48.9388 38.2651 49.2799 38.1882 49.2493 38.1729" stroke="#37FECE" stroke-width="2" stroke-linecap="round"/>
<path d="M49.2489 38.173C49.2489 37.7161 49.2434 37.2606 49.2291 36.8053C49.2239 36.6385 49.2037 36.4619 49.1852 36.2959C49.1566 36.0388 49.161 35.7804 49.1106 35.5254C49.0333 35.1349 48.9265 34.7519 48.8384 34.364C48.8205 34.2854 48.8084 34.1963 48.7747 34.1225C48.7518 34.0725 48.7352 34.008 48.7352 34.1028" stroke="#37FECE" stroke-width="2" stroke-linecap="round"/>
<path d="M48.9529 34.4187C49.0377 34.411 49.1264 34.362 49.1988 34.3221C49.3665 34.2296 49.5302 34.1259 49.6949 34.0279C49.9165 33.8962 50.1422 33.7261 50.3327 33.5515C50.4106 33.4801 50.4554 33.4051 50.516 33.321C50.6742 33.1013 50.8678 32.9121 51.0187 32.6844C51.1704 32.4555 51.3268 32.2299 51.4797 32.0005C51.5149 31.9478 51.5655 31.8646 51.5796 31.8007C51.5852 31.7759 51.6203 31.7087 51.6203 31.7711" stroke="#37FECE" stroke-width="2" stroke-linecap="round"/>
<path d="M51.6202 31.771C51.5042 31.655 51.4207 31.4911 51.3282 31.3561C51.1891 31.1529 51.0784 30.9321 50.9287 30.7348C50.8047 30.5714 50.6325 30.4474 50.4743 30.3199C50.3201 30.1957 50.1546 30.0744 49.9847 29.973C49.7609 29.8394 49.535 29.744 49.2888 29.6657C49.1843 29.6324 49.0398 29.5383 48.9331 29.5383" stroke="#37FECE" stroke-width="2" stroke-linecap="round"/>
<path d="M49.0119 29.5778C49.0119 28.8133 49.1898 28.0673 49.1898 27.3045C49.1898 26.8394 49.2136 26.3708 49.1502 25.9116C49.1366 25.8123 49.1028 25.6753 49.0558 25.5867C49.0376 25.5521 48.9921 25.5073 49.0119 25.5669" stroke="#37FECE" stroke-width="2" stroke-linecap="round"/>
<path d="M49.0123 25.5868C48.6384 25.5868 48.2646 25.4634 47.8904 25.4331C47.6941 25.4173 47.4971 25.4224 47.301 25.4079C47.0483 25.3892 46.7975 25.3892 46.5436 25.3892C46.371 25.3892 46.146 25.4155 45.9892 25.4924C45.8385 25.5664 45.638 25.6658 45.4656 25.6658" stroke="#37FECE" stroke-width="2" stroke-linecap="round"/>
<path d="M40.1384 37.7459C40.6853 37.865 41.223 38 41.7887 38C42.8519 38 44.1174 37.966 45.144 37.6786C45.4416 37.5953 45.7345 37.5077 46.0314 37.4137C46.3009 37.3283 46.5505 37.1391 46.7942 37.0619C47.1347 36.954 47.3539 36.7214 47.6318 36.5537C47.9764 36.3459 48.3217 36.0417 48.5641 35.7416C48.8066 35.4414 49.2087 35.1163 49.3269 34.7557C49.369 34.6274 49.4677 34.5054 49.5164 34.3735C49.6012 34.1436 49.6385 33.8958 49.7058 33.6612C49.7731 33.4268 49.7412 33.1799 49.8405 32.9577C49.9344 32.7471 50 32.4802 50 32.2541L50 30.9946L50 30.9864C50 30.5151 50 30.121 49.8006 29.6743C49.5714 29.1609 49.244 28.6541 48.9007 28.1889C48.8099 28.0659 48.6943 27.9217 48.5542 27.8372C48.4543 27.7769 48.2667 27.7139 48.2052 27.62C48.1335 27.5107 47.9106 27.3879 47.8013 27.2899C47.5968 27.1065 47.4846 26.8718 47.2878 26.6841C46.5561 25.9859 45.5594 26 44.5258 26C44.017 26 43.5024 26.0391 43.0002 26.0391C42.5433 26.0391 42.0313 25.9808 41.5843 26.0587C41.196 26.1263 40.7527 26.1196 40.3553 26.1542C40.1152 26.1751 39.8993 26.2878 39.6897 26.3909C39.0972 26.6823 38.7346 27.1055 38.2339 27.4854C37.2038 28.2669 36.492 29.1814 36.0901 30.3192C35.8161 31.095 36.2529 31.8333 36.2696 32.6059C36.288 33.4557 36.2471 34.3185 36.5837 35.1249C36.7087 35.4243 37.1431 35.6092 37.3564 35.8502C37.7096 36.2489 38.1643 36.6206 38.558 36.9837C38.842 37.2457 39.2431 37.3485 39.5451 37.57C39.6961 37.6808 39.9543 37.7058 40.1384 37.7459Z" stroke="black" stroke-linecap="round"/>
<path d="M41.478 33.8941C41.6733 33.9438 41.8654 34 42.0674 34C42.4471 34 42.8991 33.9859 43.2657 33.8661C43.372 33.8314 43.4766 33.7949 43.5827 33.7557C43.6789 33.7201 43.7681 33.6413 43.8551 33.6091C43.9767 33.5642 44.055 33.4672 44.1542 33.3974C44.2773 33.3108 44.4006 33.184 44.4872 33.059C44.5738 32.9339 44.7174 32.7984 44.7596 32.6482C44.7746 32.5948 44.8099 32.5439 44.8273 32.489C44.8576 32.3932 44.8709 32.2899 44.8949 32.1922C44.919 32.0945 44.9076 31.9916 44.943 31.899C44.9766 31.8113 45 31.7001 45 31.6059L45 31.0811L45 31.0777C45 30.8813 45 30.7171 44.9288 30.531C44.8469 30.3171 44.73 30.1059 44.6074 29.9121C44.575 29.8608 44.5337 29.8007 44.4836 29.7655C44.448 29.7404 44.381 29.7141 44.359 29.675C44.3334 29.6295 44.2538 29.5783 44.2148 29.5375C44.1417 29.461 44.1017 29.3633 44.0314 29.285C43.77 28.9941 43.4141 29 43.0449 29C42.8632 29 42.6794 29.0163 42.5001 29.0163C42.3369 29.0163 42.154 28.992 41.9944 29.0244C41.8557 29.0526 41.6974 29.0498 41.5555 29.0643C41.4697 29.073 41.3926 29.1199 41.3178 29.1629C41.1061 29.2843 40.9766 29.4606 40.7978 29.6189C40.4299 29.9446 40.1757 30.3256 40.0322 30.7997C39.9343 31.1229 40.0903 31.4306 40.0963 31.7524C40.1029 32.1065 40.0882 32.466 40.2085 32.802C40.2531 32.9268 40.4082 33.0038 40.4844 33.1042C40.6106 33.2704 40.773 33.4253 40.9136 33.5765C41.015 33.6857 41.1582 33.7285 41.2661 33.8208C41.32 33.867 41.4123 33.8774 41.478 33.8941Z" stroke="black" stroke-linecap="round"/>
<path d="M41.8868 31.0423C42.004 31.0225 42.1192 31 42.2404 31C42.4683 31 42.7395 31.0057 42.9594 31.0536C43.0232 31.0675 43.086 31.082 43.1496 31.0977C43.2073 31.1119 43.2608 31.1435 43.3131 31.1564C43.386 31.1743 43.433 31.2131 43.4925 31.241C43.5664 31.2757 43.6404 31.3264 43.6923 31.3764C43.7443 31.4264 43.8304 31.4806 43.8558 31.5407C43.8648 31.5621 43.8859 31.5824 43.8964 31.6044C43.9145 31.6427 43.9225 31.684 43.937 31.7231C43.9514 31.7622 43.9446 31.8033 43.9658 31.8404C43.986 31.8755 44 31.92 44 31.9577L44 32.1676L44 32.1689C44 32.2475 44 32.3132 43.9573 32.3876C43.9082 32.4732 43.838 32.5576 43.7644 32.6352C43.745 32.6557 43.7202 32.6797 43.6902 32.6938C43.6688 32.7038 43.6286 32.7144 43.6154 32.73C43.6 32.7482 43.5523 32.7687 43.5289 32.785C43.485 32.8156 43.461 32.8547 43.4188 32.886C43.262 33.0023 43.0484 33 42.827 33C42.7179 33 42.6077 32.9935 42.5 32.9935C42.4021 32.9935 42.2924 33.0032 42.1966 32.9902C42.1134 32.979 42.0184 32.9801 41.9333 32.9743C41.8818 32.9708 41.8356 32.952 41.7907 32.9348C41.6637 32.8863 41.586 32.8157 41.4787 32.7524C41.258 32.6222 41.1054 32.4698 41.0193 32.2801C40.9606 32.1508 41.0542 32.0278 41.0578 31.899C41.0617 31.7574 41.0529 31.6136 41.1251 31.4792C41.1519 31.4293 41.2449 31.3985 41.2907 31.3583C41.3663 31.2918 41.4638 31.2299 41.5481 31.1694C41.609 31.1257 41.6949 31.1086 41.7597 31.0717C41.792 31.0532 41.8474 31.049 41.8868 31.0423Z" fill="black" stroke="black" stroke-linecap="round"/>
<path d="M47 32H48" stroke="black" stroke-width="1.5"/>
<path d="M39 34H40" stroke="black" stroke-width="1.5"/>
<path d="M39 29H40" stroke="black" stroke-width="1.5"/>
</svg>
