<svg width="187" height="45" viewBox="0 0 187 45" fill="none" xmlns="http://www.w3.org/2000/svg">
<path d="M0.902344 0.599609H3.05078L3.2334 0.782227L3.41602 0.599609H6.83203C10.5273 0.599609 12.8011 3.77214 13.6533 10.1172V10.6543C13.6533 13.9199 11.9775 16.7344 8.62598 19.0977C7.36556 19.6992 5.86881 20 4.13574 20C1.37858 19.8496 0 19.3698 0 18.5605L0.182617 17.3037V6.88379L0.354492 6.16406L0.182617 5.44434C0.182617 2.21452 0.422526 0.599609 0.902344 0.599609ZM4.13574 5.08984C4.37207 5.62695 4.49023 6.40397 4.49023 7.4209V12.459L4.85547 12.8135H6.1123C7.50163 12.8135 8.39681 11.9756 8.79785 10.2998V9.7627C8.16048 6.52572 7.14355 4.90723 5.74707 4.90723H5.39258L4.13574 5.08984Z" fill="black"/>
<path d="M29.5518 0.717773H30.4219C30.7012 0.717773 30.9339 1.17969 31.1201 2.10352C31.1201 3.5 29.7881 4.19824 27.124 4.19824L26.9521 4.37012H26.7803C27.124 13.2503 27.4141 17.9984 27.6504 18.6143C27.6504 19.2588 26.6084 19.7207 24.5244 20H19.6582C18.2689 20 17.1696 19.4772 16.3604 18.4316C14.8493 17.9876 14.0938 17.0638 14.0938 15.6602L13.75 13.0498V11.6641C14.0579 9.69466 14.638 8.70996 15.4902 8.70996C17.1087 8.70996 17.918 9.86654 17.918 12.1797C17.918 14.7292 18.9027 16.0039 20.8721 16.0039L21.0439 15.832L21.9141 7.66797V5.24023L21.5703 4.88574C20.8685 5.23665 19.8265 5.41211 18.4443 5.41211L18.2617 5.24023V4.37012C18.5052 2.16439 19.3753 1.06152 20.8721 1.06152C22.6553 0.832357 25.5485 0.717773 29.5518 0.717773Z" fill="black"/>
<path d="M38.5537 0.674805H42.3457C43.7135 0.674805 44.7985 1.99967 45.6006 4.64941C48.6084 10.9515 50.1123 15.5277 50.1123 18.3779C50.3558 18.3779 50.4775 18.6787 50.4775 19.2803L49.9404 20L47.7705 19.8174H44.6982C44.3975 19.8174 43.9749 18.4316 43.4307 15.6602L43.2588 15.4883C43.2588 14.8867 42.7145 14.5859 41.626 14.5859C40.4658 14.2207 39.3844 14.0381 38.3818 14.0381C37.6585 14.2458 37.2969 14.9691 37.2969 16.208C37.0247 16.208 36.724 16.8096 36.3945 18.0127C35.6712 19.2015 35.1878 19.8031 34.9443 19.8174H33.8594L33.1396 19.6348L32.6025 19.8174C31.5283 19.8174 30.7441 19.5166 30.25 18.915V18.7324C30.25 17.1068 32.5381 11.75 37.1143 2.66211C37.7087 1.4375 38.1885 0.775065 38.5537 0.674805ZM40.9062 6.27148L39.2842 10.2461V10.4287C39.2842 10.8727 40.3047 11.1735 42.3457 11.3311L42.5283 11.1484V10.9658L41.2715 6.27148H40.9062Z" fill="black"/>
<path d="M52.6582 0.674805H53.1631C54.9821 0.94694 56.6615 1.54134 58.2012 2.45801L60.2207 5.86328H60.3926C60.3926 3.13477 60.8402 1.46257 61.7354 0.84668C63.8623 0.84668 64.9258 1.26562 64.9258 2.10352L66.0967 16.2402V17.6689L66.2686 18.3887C66.0036 19.2266 65.3304 19.6455 64.249 19.6455H62.0684C61.1732 19.6455 60.7256 19.1657 60.7256 18.2061V14.9941C60.7256 14.1204 60.278 13.4616 59.3828 13.0176C58.5664 11.1556 57.5029 9.66602 56.1924 8.54883V8.7207L56.5254 19.2803C56.0384 19.7601 55.1432 20 53.8398 20H52.3252C51.3154 20 50.8105 19.5811 50.8105 18.7432V9.25781C51.3333 3.92253 51.9492 1.06152 52.6582 0.674805Z" fill="black"/>
<path d="M74.4863 0.664062H76.6348C77.3509 0.664062 77.709 1.1403 77.709 2.09277L77.8916 3.16699C77.3975 4.47754 76.5631 5.13281 75.3887 5.13281L75.2061 4.96094H75.0234C72.7533 6.47917 71.6182 7.73242 71.6182 8.7207C72.4202 11.5853 73.6771 13.0176 75.3887 13.0176H76.2803C78.0706 13.0176 78.9658 11.9434 78.9658 9.79492H78.7832L76.0977 11.2236H75.5605C74.3932 11.2236 73.738 10.3893 73.5947 8.7207C73.5947 7.31706 75.2669 6.18197 78.6113 5.31543H79.1484C80.4948 5.31543 81.9271 6.38965 83.4453 8.53809L83.7998 9.9668V10.6865C83.7998 13.8734 82.3066 16.6198 79.3203 18.9258C78.3464 19.6419 77.2148 20 75.9258 20C72.4238 20 69.4984 18.0915 67.1494 14.2744C66.6696 13.4508 66.4297 12.7347 66.4297 12.126V9.42969C66.4297 6.17122 68.1592 3.54655 71.6182 1.55566L74.4863 0.664062Z" fill="black"/>
<path d="M92.0605 0.664062H94.3916C97.4567 0.664062 99.666 3.04883 101.02 7.81836L101.374 10.8691C101.374 13.8626 99.8809 16.5482 96.8945 18.9258C95.9206 19.6419 94.7891 20 93.5 20C89.998 20 87.0726 18.0915 84.7236 14.2744C84.2438 13.4508 84.0039 12.7347 84.0039 12.126V9.42969C84.0039 6.17122 85.7334 3.54655 89.1924 1.55566L92.0605 0.664062ZM88.9023 9.35449C89.6615 12.0544 90.8467 13.4043 92.458 13.4043H93.2959C94.6064 13.4043 95.4515 12.6165 95.8311 11.041V10.5361C95.2295 7.49251 94.2734 5.9707 92.9629 5.9707H92.6191C91.237 5.9707 89.998 7.04134 88.9023 9.18262V9.35449Z" fill="black"/>
<path d="M110.978 0.578125H112.224C113.412 1.55924 114.007 2.92708 114.007 4.68164C113.821 4.91797 112.575 5.4515 110.269 6.28223C108.364 7.35645 107.411 8.83887 107.411 10.7295C107.411 12.7777 109.492 14.3245 113.652 15.3701L113.835 15.542V16.6162C112.933 18.8721 112.041 20 111.16 20C108.339 20 105.546 18.514 102.781 15.542C101.951 14.2601 101.535 13.2503 101.535 12.5127V9.84863C101.535 6.74056 103.197 4.06576 106.52 1.82422C107.973 0.99349 109.459 0.578125 110.978 0.578125Z" fill="black"/>
<path d="M122.225 0.664062H124.556C127.621 0.664062 129.83 3.04883 131.184 7.81836L131.538 10.8691C131.538 13.8626 130.045 16.5482 127.059 18.9258C126.085 19.6419 124.953 20 123.664 20C120.162 20 117.237 18.0915 114.888 14.2744C114.408 13.4508 114.168 12.7347 114.168 12.126V9.42969C114.168 6.17122 115.897 3.54655 119.356 1.55566L122.225 0.664062ZM119.066 9.35449C119.826 12.0544 121.011 13.4043 122.622 13.4043H123.46C124.771 13.4043 125.616 12.6165 125.995 11.041V10.5361C125.394 7.49251 124.438 5.9707 123.127 5.9707H122.783C121.401 5.9707 120.162 7.04134 119.066 9.18262V9.35449Z" fill="black"/>
<path d="M133.547 0.674805H134.052C135.871 0.94694 137.55 1.54134 139.09 2.45801L141.109 5.86328H141.281C141.281 3.13477 141.729 1.46257 142.624 0.84668C144.751 0.84668 145.814 1.26562 145.814 2.10352L146.985 16.2402V17.6689L147.157 18.3887C146.892 19.2266 146.219 19.6455 145.138 19.6455H142.957C142.062 19.6455 141.614 19.1657 141.614 18.2061V14.9941C141.614 14.1204 141.167 13.4616 140.271 13.0176C139.455 11.1556 138.392 9.66602 137.081 8.54883V8.7207L137.414 19.2803C136.927 19.7601 136.032 20 134.729 20H133.214C132.204 20 131.699 19.5811 131.699 18.7432V9.25781C132.222 3.92253 132.838 1.06152 133.547 0.674805Z" fill="black"/>
<path d="M106.272 25.6748H110.064C111.432 25.6748 112.517 26.9997 113.319 29.6494C116.327 35.9515 117.831 40.5277 117.831 43.3779C118.075 43.3779 118.196 43.6787 118.196 44.2803L117.659 45L115.489 44.8174H112.417C112.116 44.8174 111.694 43.4316 111.149 40.6602L110.978 40.4883C110.978 39.8867 110.433 39.5859 109.345 39.5859C108.185 39.2207 107.103 39.0381 106.101 39.0381C105.377 39.2458 105.016 39.9691 105.016 41.208C104.743 41.208 104.443 41.8096 104.113 43.0127C103.39 44.2015 102.907 44.8031 102.663 44.8174H101.578L100.858 44.6348L100.321 44.8174C99.2471 44.8174 98.4629 44.5166 97.9688 43.915V43.7324C97.9688 42.1068 100.257 36.75 104.833 27.6621C105.427 26.4375 105.907 25.7751 106.272 25.6748ZM108.625 31.2715L107.003 35.2461V35.4287C107.003 35.8727 108.023 36.1735 110.064 36.3311L110.247 36.1484V35.9658L108.99 31.2715H108.625Z" fill="black"/>
<path d="M129.948 25.7822H130.851L131.398 26.1475C131.248 28.3245 130.886 29.4131 130.313 29.4131C126.568 29.7425 124.695 30.2259 124.695 30.8633V31.2285L124.878 31.4111L124.695 32.3135V33.3984L125.232 33.5811C125.777 33.3376 126.564 33.2158 127.596 33.2158H129.046L129.583 33.7637V35.2139C129.583 36.1807 128.498 36.6641 126.328 36.6641C125.24 36.6641 124.695 37.0866 124.695 37.9316V41.7344L124.513 43.7324L124.695 44.6348L124.147 45H123.428C120.162 44.4056 118.529 43.2562 118.529 41.5518V41.3799C118.529 34.3903 119.313 29.4954 120.882 26.6953C123.567 26.0866 126.59 25.7822 129.948 25.7822Z" fill="black"/>
<path d="M132.397 25.7178H138.112C141.8 26.7275 143.645 28.5716 143.645 31.25C143.645 33.0547 142.635 34.6624 140.615 36.0732V36.4277C142.441 37.8958 144.225 39.9798 145.965 42.6797V42.8623C144.182 44.0439 142.753 44.6956 141.679 44.8174L136.866 37.8564L136.329 37.6846L136.501 37.8564L136.329 38.748V38.9307L136.866 43.9258C136.866 44.5202 136.508 44.8174 135.792 44.8174V45C132.935 44.8854 131.506 44.4092 131.506 43.5713L131.688 42.3252V31.9697L131.86 31.25L131.688 30.541C131.688 27.3255 131.925 25.7178 132.397 25.7178ZM135.792 30.0039L135.975 33.3984L136.146 33.5703H136.329C137.675 32.9759 138.685 32.0843 139.358 30.8955V30.7129C138.692 29.5241 137.862 28.9297 136.866 28.9297H136.329C136.093 28.9297 135.914 29.2878 135.792 30.0039Z" fill="black"/>
<path d="M146.717 25.7178H149.241C150.681 25.7178 151.4 26.7992 151.4 28.9619L153.022 44.2803V44.4629C152.908 44.821 152.55 45 151.948 45H150.863C149.023 45 147.462 44.3376 146.18 43.0127V26.2549L146.717 25.7178Z" fill="black"/>
<path d="M162.819 25.5781H164.065C165.254 26.5592 165.849 27.9271 165.849 29.6816C165.662 29.918 164.416 30.4515 162.11 31.2822C160.205 32.3564 159.253 33.8389 159.253 35.7295C159.253 37.7777 161.333 39.3245 165.494 40.3701L165.677 40.542V41.6162C164.774 43.8721 163.883 45 163.002 45C160.18 45 157.387 43.514 154.623 40.542C153.792 39.2601 153.377 38.2503 153.377 37.5127V34.8486C153.377 31.7406 155.038 29.0658 158.361 26.8242C159.815 25.9935 161.301 25.5781 162.819 25.5781Z" fill="black"/>
<path d="M174.313 25.6748H178.105C179.473 25.6748 180.558 26.9997 181.36 29.6494C184.368 35.9515 185.872 40.5277 185.872 43.3779C186.116 43.3779 186.237 43.6787 186.237 44.2803L185.7 45L183.53 44.8174H180.458C180.157 44.8174 179.735 43.4316 179.19 40.6602L179.019 40.4883C179.019 39.8867 178.474 39.5859 177.386 39.5859C176.226 39.2207 175.144 39.0381 174.142 39.0381C173.418 39.2458 173.057 39.9691 173.057 41.208C172.785 41.208 172.484 41.8096 172.154 43.0127C171.431 44.2015 170.948 44.8031 170.704 44.8174H169.619L168.899 44.6348L168.362 44.8174C167.288 44.8174 166.504 44.5166 166.01 43.915V43.7324C166.01 42.1068 168.298 36.75 172.874 27.6621C173.468 26.4375 173.948 25.7751 174.313 25.6748ZM176.666 31.2715L175.044 35.2461V35.4287C175.044 35.8727 176.064 36.1735 178.105 36.3311L178.288 36.1484V35.9658L177.031 31.2715H176.666Z" fill="black"/>
</svg>
