<svg width="53" height="57" viewBox="0 0 53 57" fill="none" xmlns="http://www.w3.org/2000/svg">
<path d="M17.5545 2.43301C27.2728 5.74257 28.8257 12.6575 26.1272 21.1574C29.8066 11.0005 46.3277 7.44513 49.9226 17.7522C53.5973 28.2877 47.5022 33.2808 42.9673 39.1078C40.532 42.2369 37.4941 44.2639 34.3124 46.3563C31.5894 48.1471 25.834 51.8168 24.6048 54.8332C23.5119 57.515 20.4677 48.7009 20.2154 47.9703L20.2122 47.961C19.2734 45.2433 18.3415 44.5279 16.9725 42.0778C15.2516 38.9979 12.133 35.4125 9.43298 33.2419C5.57587 30.1411 3.11168 24.0933 2.25913 19.3731C1.12814 13.1113 3.31696 13.653 5.28502 7.87388C6.90938 3.10406 13.8257 1.16319 17.5545 2.43301Z" fill="#00FFC1" stroke="black" stroke-width="3" stroke-linecap="round"/>
</svg>
