<svg width="100" height="76" viewBox="0 0 100 76" fill="none" xmlns="http://www.w3.org/2000/svg">
<path d="M73.173 69.7335C73.8421 69.7335 74.8389 70.4217 75.4851 70.708C76.4549 71.1377 77.4985 71.4176 78.4545 71.8252C80.645 72.7591 83.7008 72.7284 86.0599 72.7284C86.8697 72.7284 87.6796 72.7284 88.4894 72.7284C89.8191 72.7284 90.814 72.1594 92.0222 71.7063C93.0651 71.3152 93.8321 70.6342 94.616 69.8404C94.988 69.4637 95.9612 68.104 95.9892 67.5942C96.0997 65.5795 95.3701 64.43 93.4071 63.7911C89.4895 62.516 85.6718 62.6739 81.5765 62.6739C76.1405 62.6739 70.8838 62.9003 65.5675 64.1714C60.8039 65.3103 55.4749 65.2359 50.9905 67.3803C46.2533 69.6455 41.3918 71.7688 36.2022 72.562C33.3482 72.9983 30.1062 73.1447 27.2353 72.8354C23.9581 72.4824 20.635 70.9884 17.4938 69.9474C15.4245 69.2616 12.9568 67.501 11.508 65.8709C10.5822 64.8292 9.93175 63.4553 10.0057 62.0321C10.0743 60.713 12.7652 59.6825 13.7263 59.3581C15.027 58.919 16.5056 58.986 17.8694 59.0372C18.9853 59.079 20.1121 59.7415 21.2143 59.881C22.6681 60.065 24.1691 60.1068 25.6391 60.1068C26.796 60.1068 27.9871 59.6542 29.1249 59.4769C30.2172 59.3067 31.4571 59.465 32.5638 59.465C34.2259 59.465 35.6396 59.5876 37.2115 60.0593C38.1117 60.3293 39.7104 60.2292 40.6387 60.0949C41.5017 59.9701 41.8573 59.3828 42.54 59.0372" stroke="black" stroke-width="3" stroke-linecap="round"/>
<path d="M72.2439 65.6383C70.6999 65.2192 69.3428 63 67.7645 63L65 67.8146C66.6678 68.6068 69.0079 69.1592 70.8745 69.5532C71.2236 69.6269 72.0633 69.8316 72.3207 70.0517C72.4922 70.1983 72.5885 71 72.8326 71C73.097 71 74.7545 68.5178 75.0852 68.2036C75.2244 68.0714 76.2506 67.8298 75.9427 67.5957C75.606 67.3399 75.1887 67.2586 74.7908 67.0486C74.0222 66.643 73.0495 65.857 72.2439 65.6383Z" fill="#F9D6D6"/>
<path d="M42.8411 27.0435C41.8884 26.071 40.7726 23.6336 39.3147 23.4683C38.324 22.9627 37.8946 22.6711 37.1373 23.6374C36.3747 24.6103 35.8392 25.7112 34.948 26.6208C32.8845 28.727 31.0556 31.0285 28.9839 33.1431C28.1858 33.9577 27.4774 35.2554 26.7473 36.1869C26.4263 36.5964 25.6158 36.3757 26.2148 36.8512C26.5377 37.1075 26.8374 37.3539 27.126 37.6484C27.7959 38.3322 28.7982 39.0689 29.6347 39.5567C30.1757 39.8723 30.6058 40.5554 31.1021 40.9699C31.4444 41.2558 32.244 41.8063 32.4511 42.1657C32.9739 43.0728 34.2766 43.4418 34.7942 44.3398C35.3311 45.2714 36.517 46.2674 37.2911 47.0575C39.1589 48.9639 41.1951 50.8247 43.0541 52.7222C44.9155 54.6221 46.8246 56.2739 48.8053 57.928C52.4052 60.9343 56.8737 62.9142 60.1893 66.2984C61.1859 67.3157 62.0371 68.5418 62.9465 69.6441C63.5587 70.3861 65.0897 69.7907 65.8221 69.4509C66.8978 68.9518 67.6464 69.435 68.3309 68.0377C69.3296 65.999 69.6531 63.4754 71.2656 61.7327C72.1102 60.82 72.3054 60.4991 71.4313 59.6069C70.686 58.8462 69.8706 58.1734 69.0291 57.5053C66.3308 55.3633 63.7809 52.5713 61.349 50.0891C60.3612 49.081 59.2105 48.2299 58.2841 47.1662C57.6676 46.4583 57.3431 45.5656 56.6747 44.8833C55.7588 43.9485 55.1149 42.7399 54.2251 41.7309C53.0197 40.3638 52.2169 38.7072 51.1247 37.2739C50.2556 36.1334 49.032 35.1597 48.3083 33.904C47.3744 32.2836 45.8322 30.3202 44.4742 29.0727C43.8409 28.491 43.4381 27.6529 42.8411 27.0435Z" fill="#F9D6D6"/>
<path d="M40.475 27.0435C39.543 26.071 38.4515 23.6336 37.0252 23.4683C36.0561 22.9627 35.636 22.6711 34.8952 23.6374C34.1492 24.6103 33.6253 25.7112 32.7535 26.6208C30.7348 28.727 28.9457 31.0285 26.919 33.1431C26.1382 33.9577 25.4453 35.2554 24.731 36.1869C24.417 36.5964 23.6241 36.3757 24.2101 36.8512C24.526 37.1075 24.8192 37.3539 25.1015 37.6484C25.7569 38.3322 26.7374 39.0689 27.5557 39.5567C28.0849 39.8723 28.5056 40.5554 28.9912 40.9699C29.326 41.2558 30.1083 41.8063 30.3109 42.1657C30.8223 43.0728 32.0967 43.4418 32.603 44.3398C33.1282 45.2714 34.2884 46.2674 35.0456 47.0575C36.8728 48.9639 38.8647 50.8247 40.6834 52.7222C42.5043 54.6221 44.3719 56.2739 46.3095 57.928C49.8311 60.9343 54.2025 62.9142 57.4461 66.2984C58.421 67.3157 59.2537 68.5418 60.1434 69.6441C60.7422 70.3861 62.2399 69.7907 62.9564 69.4509C64.0087 68.9518 64.741 69.435 65.4106 68.0377C66.3876 65.999 66.7041 63.4754 68.2816 61.7327C69.1078 60.82 69.2988 60.4991 68.4437 59.6069C67.7145 58.8462 66.9169 58.1734 66.0937 57.5053C63.4541 55.3633 60.9595 52.5713 58.5805 50.0891C57.6143 49.081 56.4885 48.2299 55.5822 47.1662C54.9792 46.4583 54.6617 45.5656 54.0079 44.8833C53.1119 43.9485 52.4819 42.7399 51.6115 41.7309C50.4323 40.3638 49.6469 38.7072 48.5785 37.2739C47.7283 36.1334 46.5313 35.1597 45.8233 33.904C44.9097 32.2836 43.401 30.3202 42.0725 29.0727C41.4531 28.491 41.0591 27.6529 40.475 27.0435Z" fill="#F9D6D6" stroke="black" stroke-width="3" stroke-linecap="round"/>
<path d="M32 46C35.1126 46 40.431 43.7055 41.3939 40.1603C41.7089 39.0007 42.9091 37.4554 42.9091 36.2459C42.9091 34.8111 44 33.4151 44 32" stroke="black" stroke-width="3" stroke-linecap="round"/>
<path d="M71.5854 66.6383C70.1817 66.2192 68.948 64 67.5131 64L65 68.8146C66.5162 69.6068 68.6436 70.1592 70.3404 70.5532C70.6579 70.6269 71.4211 70.8316 71.6552 71.0517C71.8111 71.1983 71.8986 72 72.1206 72C72.3609 72 73.8677 69.5178 74.1683 69.2036C74.2949 69.0714 75.2278 68.8298 74.9479 68.5957C74.6419 68.3399 74.2624 68.2586 73.9007 68.0486C73.202 67.643 72.3178 66.857 71.5854 66.6383Z" fill="#F9D6D6" stroke="black" stroke-width="3" stroke-linecap="round"/>
<path d="M34.1015 11.8709C35.1346 12.4479 36.8654 14.0823 36.8654 15.2869C37.0783 16.2089 37.9277 18.8656 37.9277 19.1977C37.9277 19.5298 38.0904 20.9769 37.9277 22.0205C37.7834 22.9452 37.199 23.4454 36.8654 24.1791C36.5398 24.8951 36.7704 26.0158 36.3988 26.6697C35.9904 27.3882 34.8699 28.8283 34.8699 28.8283C34.8699 28.8283 33.7788 30.131 33.341 30.9869C32.6634 32.3115 30.5503 33.4776 29.259 34.2201C28.8063 34.4804 28.631 34.9866 28.0369 35.1802C27.5965 35.3237 27.193 35.6202 26.7921 35.8276C26.0289 36.2225 24.8717 36.5908 24.0167 36.7765C21.9007 37.2362 19.8418 36.8905 17.7466 36.5979C13.4427 35.9969 9.37571 32.3646 7.92446 28.3928C6.40283 24.2283 6.90089 19.3698 8.39272 15.2869C9.02943 13.5444 9.50746 11.4666 10.5513 9.90616C11.5001 8.48775 13.1875 7.99928 14.4116 6.80273C15.5127 5.72644 18.043 6.04361 19.494 6.04361C21.8501 6.04361 24.0328 6.95134 26.2781 7.43904C27.3875 7.68001 28.387 8.35492 29.4646 8.65586C30.1981 8.8607 31.5695 9.42487 31.9772 10.0624C32.2903 10.5521 33.5637 11.5705 34.1015 11.8709Z" fill="#F9D6D6"/>
<path d="M32.9758 11.8709C34.0421 12.4479 35.8288 14.0823 35.8288 15.2869C36.0485 16.2089 36.9253 18.8656 36.9253 19.1977C36.9253 19.5298 37.0933 20.9769 36.9253 22.0205C36.7765 22.9452 36.1732 23.4454 35.8288 24.1791C35.4927 24.8951 35.7308 26.0158 35.3471 26.6697C34.9256 27.3882 33.7689 28.8283 33.7689 28.8283C33.7689 28.8283 32.6426 30.131 32.1907 30.9869C31.4912 32.3115 29.31 33.4776 27.977 34.2201C27.5097 34.4804 27.3288 34.9866 26.7156 35.1802C26.2609 35.3237 25.8444 35.6202 25.4305 35.8276C24.6427 36.2225 23.4482 36.5908 22.5657 36.7765C20.3813 37.2362 18.256 36.8905 16.0932 36.5979C11.6505 35.9969 7.45235 32.3646 5.95428 28.3928C4.38356 24.2283 4.89769 19.3698 6.43765 15.2869C7.09489 13.5444 7.58834 11.4666 8.66586 9.90616C9.6453 8.48775 11.387 7.99928 12.6507 6.80273C13.7874 5.72644 16.3992 6.04361 17.897 6.04361C20.3291 6.04361 22.5822 6.95134 24.9 7.43904C26.0451 7.68001 27.0769 8.35492 28.1892 8.65586C28.9464 8.8607 30.3621 9.42487 30.7829 10.0624C31.1061 10.5521 32.4206 11.5705 32.9758 11.8709Z" fill="#F9D6D6" stroke="black" stroke-width="3" stroke-linecap="round"/>
<path d="M31 11C31 14.9138 27.6338 18.4493 24.9327 21.0471C23.0131 22.8933 20.2561 23.8677 18.2294 25.6118C17.4767 26.2595 16.4061 26.4838 15.4771 26.6824C14.0904 26.9787 12.7784 27.6421 11.3792 27.9412C9.89351 28.2587 8.49633 28.92 7 29" stroke="black" stroke-width="3" stroke-linecap="round"/>
</svg>
