<svg width="41" height="40" viewBox="0 0 41 40" fill="none" xmlns="http://www.w3.org/2000/svg">
<path d="M5.90452 31.8034C4.60492 31.0961 2.42736 29.0926 2.42736 27.616C2.15958 26.4859 1.091 23.2293 1.091 22.8222C1.091 22.4151 0.88625 20.6412 1.091 19.362C1.27244 18.2284 2.00766 17.6153 2.42736 16.716C2.83698 15.8382 2.54688 14.4644 3.01445 13.6629C3.52821 12.7822 4.9379 11.0169 4.9379 11.0169C4.9379 11.0169 6.31055 9.42001 6.86135 8.37086C7.7138 6.74716 10.3722 5.31773 11.9967 4.40761C12.5663 4.08853 12.7868 3.46804 13.5342 3.23077C14.0882 3.05487 14.5959 2.69142 15.1003 2.43708C16.0604 1.95301 17.5162 1.50157 18.5918 1.27393C21.254 0.71051 23.8442 1.13425 26.4801 1.49287C31.8947 2.22955 37.0112 6.68204 38.837 11.5508C40.7513 16.6556 40.1247 22.6112 38.2479 27.616C37.4468 29.7521 36.8455 32.299 35.5322 34.2118C34.3385 35.9505 32.2158 36.5493 30.6757 38.016C29.2904 39.3353 26.1072 38.9465 24.2817 38.9465C21.3176 38.9465 18.5717 37.8338 15.7469 37.236C14.3512 36.9406 13.0938 36.1133 11.7381 35.7444C10.8153 35.4933 9.08994 34.8018 8.57705 34.0202C8.18315 33.42 6.58118 32.1716 5.90452 31.8034Z" stroke="#202020" stroke-width="2" stroke-linecap="round"/>
<path d="M29.5556 9C30.2039 9 30.8256 9.25754 31.284 9.71596C31.7425 10.1744 32 10.7961 32 11.4444V28.5556C32 29.2039 31.7425 29.8256 31.284 30.284C30.8256 30.7425 30.2039 31 29.5556 31H12.4444C11.7961 31 11.1744 30.7425 10.716 30.284C10.2575 29.8256 10 29.2039 10 28.5556V11.4444C10 10.7961 10.2575 10.1744 10.716 9.71596C11.1744 9.25754 11.7961 9 12.4444 9H29.5556ZM28.9444 27.9444V21.4667C28.9444 20.4099 28.5247 19.3965 27.7774 18.6492C27.0302 17.902 26.0167 17.4822 24.96 17.4822C23.9211 17.4822 22.7111 18.1178 22.1244 19.0711V17.7144H18.7144V27.9444H22.1244V21.9189C22.1244 20.9778 22.8822 20.2078 23.8233 20.2078C24.2771 20.2078 24.7124 20.3881 25.0333 20.709C25.3542 21.0298 25.5344 21.4651 25.5344 21.9189V27.9444H28.9444ZM14.7422 15.7956C15.2868 15.7956 15.8091 15.5792 16.1941 15.1941C16.5792 14.8091 16.7956 14.2868 16.7956 13.7422C16.7956 12.6056 15.8789 11.6767 14.7422 11.6767C14.1944 11.6767 13.669 11.8943 13.2817 12.2817C12.8943 12.669 12.6767 13.1944 12.6767 13.7422C12.6767 14.8789 13.6056 15.7956 14.7422 15.7956M16.4411 27.9444V17.7144H13.0556V27.9444H16.4411V27.9444Z" fill="white"/>
</svg>
