<?xml version="1.0" encoding="UTF-8" standalone="no" ?>
<!DOCTYPE svg PUBLIC "-//W3C//DTD SVG 1.1//EN" "http://www.w3.org/Graphics/SVG/1.1/DTD/svg11.dtd">
<svg xmlns="http://www.w3.org/2000/svg" xmlns:xlink="http://www.w3.org/1999/xlink" version="1.1" width="42" height="42" viewBox="0 0 42 42" xml:space="preserve">
<desc>Created with Fabric.js 3.6.6</desc>
<defs>
</defs>
<g transform="matrix(0.6 0.8 -0.8 0.6 20.31 20.41)"  >
<path style="stroke: rgb(32,32,32); stroke-width: 2; stroke-dasharray: none; stroke-linecap: round; stroke-dashoffset: 0; stroke-linejoin: miter; stroke-miterlimit: 4; fill: none; fill-rule: nonzero; opacity: 1;"  transform=" translate(-20.5, -20)" d="M 5.90452 31.8034 C 4.60492 31.0961 2.42736 29.0926 2.42736 27.616 C 2.15958 26.4859 1.091 23.2293 1.091 22.8222 C 1.091 22.4151 0.88625 20.6412 1.091 19.362 C 1.27244 18.2284 2.00766 17.6153 2.42736 16.716 C 2.83698 15.8382 2.54688 14.4644 3.01445 13.6629 C 3.52821 12.7822 4.9379 11.0169 4.9379 11.0169 C 4.9379 11.0169 6.31055 9.42001 6.86135 8.37086 C 7.7138 6.74716 10.3722 5.31773 11.9967 4.40761 C 12.5663 4.08853 12.7868 3.46804 13.5342 3.23077 C 14.0882 3.05487 14.5959 2.69142 15.1003 2.43708 C 16.0604 1.95301 17.5162 1.50157 18.5918 1.27393 C 21.254 0.71051 23.8442 1.13425 26.4801 1.49287 C 31.8947 2.22955 37.0112 6.68204 38.837 11.5508 C 40.7513 16.6556 40.1247 22.6112 38.2479 27.616 C 37.4468 29.7521 36.8455 32.299 35.5322 34.2118 C 34.3385 35.9505 32.2158 36.5493 30.6757 38.016 C 29.2904 39.3353 26.1072 38.9465 24.2817 38.9465 C 21.3176 38.9465 18.5717 37.8338 15.7469 37.236 C 14.3512 36.9406 13.0938 36.1133 11.7381 35.7444 C 10.8153 35.4933 9.08994 34.8018 8.57705 34.0202 C 8.18315 33.42 6.58118 32.1716 5.90452 31.8034 Z" stroke-linecap="round" />
</g>
<g transform="matrix(0.34 0 0 0.34 21.19 21.65)"  >
<path style="stroke: none; stroke-width: 1; stroke-dasharray: none; stroke-linecap: butt; stroke-dashoffset: 0; stroke-linejoin: miter; stroke-miterlimit: 4; fill: rgb(255,255,255); fill-rule: nonzero; opacity: 1;"  transform=" translate(-37, -39.58)" d="M 73.7014 17.9592 C 72.5616 9.62034 65.1774 3.04876 56.424 1.77536 C 54.9472 1.56019 49.3517 0.7771 36.3901 0.7771 H 36.2933 C 23.3281 0.7771 20.5465 1.56019 19.0697 1.77536 C 10.56 3.01348 2.78877 8.91838 0.903306 17.356 C -0.00357857 21.5113 -0.100361 26.1181 0.068112 30.3439 C 0.308275 36.404 0.354874 42.4535 0.91406 48.489 C 1.30064 52.498 1.97502 56.4751 2.93215 60.3905 C 4.72441 67.6217 11.9795 73.6395 19.0876 76.0945 C 26.6979 78.6548 34.8821 79.0799 42.724 77.3221 C 43.5866 77.1245 44.4398 76.8953 45.2833 76.6342 C 47.1867 76.0381 49.4199 75.3714 51.0616 74.2003 C 51.0841 74.1839 51.1026 74.1627 51.1156 74.1382 C 51.1286 74.1138 51.1359 74.0868 51.1368 74.0592 V 68.2108 C 51.1364 68.185 51.1302 68.1596 51.1185 68.1365 C 51.1069 68.1134 51.0902 68.0932 51.0695 68.0773 C 51.0489 68.0614 51.0249 68.0503 50.9994 68.0447 C 50.9738 68.0391 50.9473 68.0392 50.9218 68.045 C 45.8976 69.226 40.7491 69.818 35.5836 69.8087 C 26.694 69.8087 24.3031 65.6569 23.6184 63.9285 C 23.0681 62.4347 22.7186 60.8764 22.5789 59.2934 C 22.5775 59.2669 22.5825 59.2403 22.5934 59.216 C 22.6043 59.1916 22.621 59.1702 22.6419 59.1533 C 22.6629 59.1365 22.6876 59.1248 22.714 59.1191 C 22.7404 59.1134 22.7678 59.1139 22.794 59.1206 C 27.7345 60.2936 32.799 60.8856 37.8813 60.8843 C 39.1036 60.8843 40.3223 60.8843 41.5447 60.8526 C 46.6562 60.7115 52.0437 60.454 57.0728 59.4874 C 57.1983 59.4628 57.3237 59.4416 57.4313 59.4098 C 65.3638 57.9107 72.9128 53.2051 73.6799 41.2895 C 73.7086 40.8204 73.7803 36.3758 73.7803 35.889 C 73.7839 34.2347 74.3216 24.1533 73.7014 17.9592 Z M 61.4925 47.6918 H 53.1514 V 27.5855 C 53.1514 23.3526 51.3591 21.1938 47.7136 21.1938 C 43.7061 21.1938 41.6988 23.7476 41.6988 28.7919 V 39.7974 H 33.4078 V 28.7919 C 33.4078 23.7476 31.3969 21.1938 27.3894 21.1938 C 23.7654 21.1938 21.9552 23.3526 21.9516 27.5855 V 47.6918 H 13.6176 V 26.9752 C 13.6176 22.7423 14.7157 19.3795 16.9118 16.8868 C 19.1772 14.4 22.1488 13.1231 25.8373 13.1231 C 30.1064 13.1231 33.3325 14.7386 35.4832 17.9662 L 37.5587 21.3949 L 39.6377 17.9662 C 41.7884 14.7386 45.0145 13.1231 49.2765 13.1231 C 52.9614 13.1231 55.9329 14.4 58.2055 16.8868 C 60.4017 19.3772 61.4997 22.74 61.4997 26.9752 L 61.4925 47.6918 Z" stroke-linecap="round" />
</g>
</svg>