<svg width="41" height="40" viewBox="0 0 41 40" fill="none" xmlns="http://www.w3.org/2000/svg">
<path d="M35.0955 31.8034C36.3951 31.0961 38.5726 29.0926 38.5726 27.616C38.8404 26.4859 39.909 23.2293 39.909 22.8222C39.909 22.4151 40.1138 20.6412 39.909 19.362C39.7276 18.2284 38.9923 17.6153 38.5726 16.716C38.163 15.8382 38.4531 14.4644 37.9855 13.6629C37.4718 12.7822 36.0621 11.0169 36.0621 11.0169C36.0621 11.0169 34.6894 9.42001 34.1386 8.37086C33.2862 6.74716 30.6278 5.31773 29.0033 4.40761C28.4337 4.08853 28.2132 3.46804 27.4658 3.23077C26.9118 3.05487 26.4041 2.69142 25.8997 2.43708C24.9396 1.95301 23.4838 1.50157 22.4082 1.27393C19.746 0.71051 17.1558 1.13425 14.5199 1.49287C9.1053 2.22955 3.9888 6.68204 2.16303 11.5508C0.248718 16.6556 0.875314 22.6112 2.75214 27.616C3.55315 29.7521 4.15454 32.299 5.46777 34.2118C6.66146 35.9505 8.78422 36.5493 10.3243 38.016C11.7096 39.3353 14.8928 38.9465 16.7183 38.9465C19.6824 38.9465 22.4283 37.8338 25.2531 37.236C26.6488 36.9406 27.9062 36.1133 29.2619 35.7444C30.1847 35.4933 31.9101 34.8018 32.423 34.0202C32.8169 33.42 34.4188 32.1716 35.0955 31.8034Z" stroke="#202020" stroke-width="2" stroke-linecap="round"/>
<path d="M31.643 12.9366C30.808 13.3066 29.911 13.5566 28.968 13.6696C29.941 13.0874 30.669 12.1711 31.016 11.0916C30.1019 11.6346 29.1014 12.0168 28.058 12.2216C27.3564 11.4725 26.4271 10.9759 25.4143 10.8091C24.4016 10.6422 23.3621 10.8144 22.4572 11.2988C21.5524 11.7833 20.8328 12.553 20.4102 13.4883C19.9875 14.4236 19.8855 15.4723 20.12 16.4716C18.2677 16.3786 16.4556 15.8971 14.8014 15.0585C13.1472 14.2198 11.6879 13.0428 10.518 11.6036C10.118 12.2936 9.88801 13.0936 9.88801 13.9456C9.88757 14.7126 10.0764 15.4678 10.4379 16.1443C10.7993 16.8208 11.3222 17.3976 11.96 17.8236C11.2203 17.8001 10.4969 17.6002 9.85001 17.2406V17.3006C9.84994 18.3763 10.222 19.419 10.9032 20.2516C11.5843 21.0842 12.5326 21.6555 13.587 21.8686C12.9008 22.0543 12.1813 22.0817 11.483 21.9486C11.7805 22.8742 12.36 23.6836 13.1404 24.2635C13.9208 24.8434 14.8629 25.1648 15.835 25.1826C14.1848 26.478 12.1469 27.1807 10.049 27.1776C9.67739 27.1777 9.30609 27.156 8.93701 27.1126C11.0665 28.4818 13.5454 29.2084 16.077 29.2056C24.647 29.2056 29.332 22.1076 29.332 15.9516C29.332 15.7516 29.327 15.5496 29.318 15.3496C30.2293 14.6906 31.0159 13.8745 31.641 12.9396L31.643 12.9366V12.9366Z" fill="white"/>
</svg>
