<svg width="41" height="40" viewBox="0 0 41 40" fill="none" xmlns="http://www.w3.org/2000/svg">
<path d="M5.90452 8.19662C4.60492 8.90388 2.42736 10.9074 2.42736 12.384C2.15958 13.5141 1.091 16.7707 1.091 17.1778C1.091 17.5849 0.88625 19.3588 1.091 20.638C1.27244 21.7716 2.00766 22.3847 2.42736 23.284C2.83698 24.1618 2.54688 25.5356 3.01445 26.3371C3.52821 27.2178 4.9379 28.9831 4.9379 28.9831C4.9379 28.9831 6.31055 30.58 6.86135 31.6291C7.7138 33.2528 10.3722 34.6823 11.9967 35.5924C12.5663 35.9115 12.7868 36.532 13.5342 36.7692C14.0882 36.9451 14.5959 37.3086 15.1003 37.5629C16.0604 38.047 17.5162 38.4984 18.5918 38.7261C21.254 39.2895 23.8442 38.8657 26.4801 38.5071C31.8947 37.7705 37.0112 33.318 38.837 28.4492C40.7513 23.3444 40.1247 17.3888 38.2479 12.384C37.4468 10.2479 36.8455 7.70102 35.5322 5.7882C34.3385 4.04949 32.2158 3.45073 30.6757 1.98399C29.2904 0.664671 26.1072 1.05346 24.2817 1.05346C21.3176 1.05346 18.5717 2.16616 15.7469 2.76399C14.3512 3.05937 13.0938 3.88667 11.7381 4.25557C10.8153 4.50666 9.08994 5.19823 8.57705 5.97978C8.18315 6.58001 6.58118 7.82837 5.90452 8.19662Z" stroke="#202020" stroke-width="2" stroke-linecap="round"/>
<g clip-path="url(#clip0_1555_399)">
<path d="M32.296 24.0615L32.3306 23.9462C33.2231 21.3911 33.2231 18.6089 32.3306 16.0538L32.296 15.9385C31.4539 13.6169 29.9186 11.6103 27.8981 10.1903C25.8776 8.77037 23.4695 8.00574 21 8C18.5297 8.00243 16.1201 8.76575 14.099 10.1861C12.0778 11.6065 10.5433 13.615 9.70405 15.9385L9.66943 16.0538C8.77686 18.6089 8.77686 21.3911 9.66943 23.9462L9.70405 24.0615C10.5433 26.385 12.0778 28.3935 14.099 29.8139C16.1201 31.2342 18.5297 31.9976 21 32C23.4703 31.9976 25.8799 31.2342 27.901 29.8139C29.9222 28.3935 31.4567 26.385 32.296 24.0615ZM18.0577 24.6154H23.9423C23.351 26.4508 22.3441 28.125 21 29.5077C19.6559 28.125 18.649 26.4508 18.0577 24.6154V24.6154ZM17.5731 22.7692C17.2194 20.94 17.2194 19.06 17.5731 17.2308H24.4269C24.6025 18.1434 24.6914 19.0706 24.6922 20C24.6919 20.9294 24.6031 21.8567 24.4269 22.7692H17.5731ZM10.8463 20C10.8483 19.064 10.9764 18.1326 11.2271 17.2308H15.6924C15.3847 19.0641 15.3847 20.9359 15.6924 22.7692H11.2271C10.9764 21.8674 10.8483 20.936 10.8463 20V20ZM23.9423 15.3846H18.0577C18.649 13.5492 19.6559 11.875 21 10.4923C22.3441 11.875 23.351 13.5492 23.9423 15.3846V15.3846ZM26.3076 17.2308H30.7729C31.2807 19.042 31.2807 20.958 30.7729 22.7692H26.3076C26.6153 20.9359 26.6153 19.0641 26.3076 17.2308V17.2308ZM30.046 15.3846H25.8922C25.337 13.4407 24.3908 11.6307 23.1115 10.0654C24.5887 10.3843 25.9767 11.0268 27.1758 11.9466C28.3749 12.8664 29.3551 14.0405 30.046 15.3846V15.3846ZM18.8885 10.0654C17.6092 11.6307 16.663 13.4407 16.1078 15.3846H11.954C12.6449 14.0405 13.6251 12.8664 14.8242 11.9466C16.0233 11.0268 17.4113 10.3843 18.8885 10.0654V10.0654ZM11.954 24.6154H16.1078C16.663 26.5593 17.6092 28.3693 18.8885 29.9346C17.4104 29.618 16.0213 28.9764 14.8219 28.0563C13.6225 27.1363 12.6429 25.9609 11.954 24.6154V24.6154ZM23.1115 29.9346C24.3908 28.3693 25.337 26.5593 25.8922 24.6154H30.046C29.3571 25.9609 28.3775 27.1363 27.1781 28.0563C25.9787 28.9764 24.5896 29.618 23.1115 29.9346V29.9346Z" fill="white"/>
</g>
<defs>
<clipPath id="clip0_1555_399">
<rect width="24" height="24" fill="white" transform="translate(9 8)"/>
</clipPath>
</defs>
</svg>
