<svg width="41" height="40" viewBox="0 0 41 40" fill="none" xmlns="http://www.w3.org/2000/svg">
<path d="M35.0955 31.8034C36.3951 31.0961 38.5726 29.0926 38.5726 27.616C38.8404 26.4859 39.909 23.2293 39.909 22.8222C39.909 22.4151 40.1138 20.6412 39.909 19.362C39.7276 18.2284 38.9923 17.6153 38.5726 16.716C38.163 15.8382 38.4531 14.4644 37.9855 13.6629C37.4718 12.7822 36.0621 11.0169 36.0621 11.0169C36.0621 11.0169 34.6894 9.42001 34.1386 8.37086C33.2862 6.74716 30.6278 5.31773 29.0033 4.40761C28.4337 4.08853 28.2132 3.46804 27.4658 3.23077C26.9118 3.05487 26.4041 2.69142 25.8997 2.43708C24.9396 1.95301 23.4838 1.50157 22.4082 1.27393C19.746 0.71051 17.1558 1.13425 14.5199 1.49287C9.1053 2.22955 3.9888 6.68204 2.16303 11.5508C0.248718 16.6556 0.875314 22.6112 2.75214 27.616C3.55315 29.7521 4.15454 32.299 5.46777 34.2118C6.66146 35.9505 8.78422 36.5493 10.3243 38.016C11.7096 39.3353 14.8928 38.9465 16.7183 38.9465C19.6824 38.9465 22.4283 37.8338 25.2531 37.236C26.6488 36.9406 27.9062 36.1133 29.2619 35.7444C30.1847 35.4933 31.9101 34.8018 32.423 34.0202C32.8169 33.42 34.4188 32.1716 35.0955 31.8034Z" stroke="#E2DABF" stroke-width="2" stroke-linecap="round"/>
<path d="M31.6435 12.9366C30.8085 13.3066 29.9115 13.5566 28.9685 13.6696C29.9415 13.0874 30.6694 12.1711 31.0165 11.0916C30.1023 11.6346 29.1018 12.0168 28.0585 12.2216C27.3569 11.4725 26.4276 10.9759 25.4148 10.8091C24.4021 10.6422 23.3626 10.8144 22.4577 11.2988C21.5529 11.7833 20.8333 12.553 20.4107 13.4883C19.988 14.4236 19.886 15.4723 20.1205 16.4716C18.2682 16.3786 16.4561 15.8971 14.8019 15.0585C13.1477 14.2198 11.6883 13.0427 10.5185 11.6036C10.1185 12.2936 9.8885 13.0936 9.8885 13.9456C9.88805 14.7126 10.0769 15.4678 10.4384 16.1443C10.7998 16.8208 11.3227 17.3976 11.9605 17.8236C11.2208 17.8001 10.4974 17.6002 9.8505 17.2406V17.3006C9.85043 18.3763 10.2225 19.419 10.9037 20.2516C11.5848 21.0842 12.5331 21.6555 13.5875 21.8686C12.9013 22.0543 12.1818 22.0817 11.4835 21.9486C11.781 22.8742 12.3605 23.6836 13.1409 24.2635C13.9212 24.8434 14.8634 25.1648 15.8355 25.1826C14.1853 26.478 12.1474 27.1807 10.0495 27.1776C9.67788 27.1777 9.30658 27.156 8.9375 27.1126C11.067 28.4818 13.5458 29.2084 16.0775 29.2056C24.6475 29.2056 29.3325 22.1076 29.3325 15.9516C29.3325 15.7516 29.3275 15.5496 29.3185 15.3496C30.2298 14.6906 31.0164 13.8745 31.6415 12.9396L31.6435 12.9366Z" fill="black"/>
</svg>
